<svg xmlns="http://www.w3.org/2000/svg" viewBox="0 0 25.89 32"><title>brand1</title><g id="Layer_2" data-name="Layer 2"><g id="Layer_1-2" data-name="Layer 1"><path d="M13,8H12V7a7,7,0,0,1,7-7h1V1A7,7,0,0,1,13,8Zm4.87-5.87a5,5,0,0,0-3.74,3.74A5,5,0,0,0,17.87,2.13Z"/><path d="M18,32H17a7.21,7.21,0,0,1-3.19-.73A2.59,2.59,0,0,0,13,31a2.59,2.59,0,0,0-.81.27A7.21,7.21,0,0,1,9,32H8c-3.85,0-8-6.11-8-16A6.62,6.62,0,0,1,7,9a9.34,9.34,0,0,1,3.54.57A6.26,6.26,0,0,0,13,10a6.26,6.26,0,0,0,2.46-.42A9.34,9.34,0,0,1,19,9a7.23,7.23,0,0,1,4.6,1.49L25,11.62l-1.67.6A3.49,3.49,0,0,0,24.48,19l.2,0,1.21-.08-.16,1.21C24.83,27,21.58,32,18,32Zm-5-3a3.85,3.85,0,0,1,1.61.44A5.25,5.25,0,0,0,17,30h1c2.05,0,4.6-3.37,5.58-9.08A5.48,5.48,0,0,1,21,11.31a6.11,6.11,0,0,0-2-.3,7.45,7.45,0,0,0-2.89.46A8.25,8.25,0,0,1,13,12a8.25,8.25,0,0,1-3.11-.53A7.45,7.45,0,0,0,7,11c-3.13,0-5,1.86-5,5,0,8.67,3.49,14,6,14H9a5.25,5.25,0,0,0,2.39-.56A3.85,3.85,0,0,1,13,29Z"/></g></g></svg>