<svg xmlns="http://www.w3.org/2000/svg" viewBox="0 0 26 31.83"><title>brand2</title><g id="Layer_2" data-name="Layer 2"><g id="Layer_1-2" data-name="Layer 1"><path d="M18,17.83H16a3,3,0,0,0-6,0H8a5,5,0,0,1,10,0Z"/><path d="M21,31.83H20a5.94,5.94,0,0,1-4.79-2.42L14,27.8l-1-1.31L12,27.8l-1.22,1.61A5.94,5.94,0,0,1,6,31.83H5a5,5,0,0,1-5-5V24.62L10.16,1.25l.13-.13a3.84,3.84,0,0,1,5.42,0l.13.13.08.18L26,24.62v2.21A5,5,0,0,1,21,31.83Zm-6.76-7c.47.63.93,1.23,1.35,1.78l1.22,1.62A4,4,0,0,0,20,29.83h1a3,3,0,0,0,3-3V25L14.17,2.42a1.84,1.84,0,0,0-2.34,0L2,25v1.8a3,3,0,0,0,3,3H6a4,4,0,0,0,3.19-1.62l1.22-1.62c.42-.55.88-1.15,1.35-1.78C9.43,21.63,8,19.32,8,17.83h2c0,.9,1.4,3.07,3,5.29,1.6-2.22,3-4.39,3-5.29h2C18,19.32,16.57,21.63,14.24,24.81Z"/></g></g></svg>