<svg xmlns="http://www.w3.org/2000/svg" viewBox="0 0 32 32"><title>brand4</title><g id="Layer_2" data-name="Layer 2"><g id="Layer_1-2" data-name="Layer 1"><path d="M16,32C7.18,32,0,27.07,0,21S7.18,10,16,10s16,4.93,16,11S24.82,32,16,32Zm0-20C8.28,12,2,16,2,21s6.28,9,14,9,14-4,14-9S23.72,12,16,12Z"/><path d="M20,21a3,3,0,1,1,3-3A3,3,0,0,1,20,21Zm0-4a1,1,0,1,0,1,1A1,1,0,0,0,20,17Z"/><path d="M12,21a3,3,0,1,1,3-3A3,3,0,0,1,12,21Zm0-4a1,1,0,1,0,1,1A1,1,0,0,0,12,17Z"/><path d="M16,28a8.43,8.43,0,0,1-6.8-3.4l1.6-1.2a6.5,6.5,0,0,0,10.4,0l1.6,1.2A8.43,8.43,0,0,1,16,28Z"/><path d="M29.07,16.71l-1.41-1.42.87-.88a2,2,0,0,0,0-2.82,2,2,0,0,0-2.82,0l-1,1-1.42-1.42,1-1a4.1,4.1,0,0,1,5.66,0,4,4,0,0,1,0,5.66Z"/><path d="M2.93,16.71l-.88-.88a4,4,0,0,1,5.66-5.66l1.12,1.12L7.42,12.71,6.29,11.59a2,2,0,0,0-2.83,0,2,2,0,0,0,0,2.82l.88.88Z"/><polygon points="15.95 11.32 14.05 10.68 17.32 0.87 24.16 2.01 23.84 3.99 18.68 3.13 15.95 11.32"/><path d="M26,6a3,3,0,1,1,3-3A3,3,0,0,1,26,6Zm0-4a1,1,0,1,0,1,1A1,1,0,0,0,26,2Z"/></g></g></svg>