<svg xmlns="http://www.w3.org/2000/svg" viewBox="0 0 289.37 289.37"><defs><style>.cls-1{fill:#323232;}</style></defs><title>mandala</title><g id="Layer_2" data-name="Layer 2"><g id="Layer_1-2" data-name="Layer 1"><path class="cls-1" d="M144.69,73.24a71.45,71.45,0,1,0,71.44,71.45A71.53,71.53,0,0,0,144.69,73.24Zm0,142.07a70.62,70.62,0,1,1,70.62-70.62A70.7,70.7,0,0,1,144.69,215.31Z"/><path class="cls-1" d="M221.5,151.2a3.22,3.22,0,0,0,3.19-3.13,3.34,3.34,0,0,0-.93-2.42,3.07,3.07,0,0,0-2.22-1h0a3.11,3.11,0,0,0,2.22-1,3.38,3.38,0,0,0,.93-2.43,3.21,3.21,0,0,0-3.43-3.12l-.95.07,1-.09a3.11,3.11,0,0,0,2.17-1.17,3.36,3.36,0,0,0-.6-4.7,3.1,3.1,0,0,0-2.39-.59l-.95.16.93-.17a3.22,3.22,0,0,0,2.55-3.88,3.37,3.37,0,0,0-1.51-2.12,3.09,3.09,0,0,0-2.39-.36l-.92.22.91-.24a3.12,3.12,0,0,0,1.91-1.48,3.35,3.35,0,0,0,.3-2.6,3.26,3.26,0,0,0-1.66-2,3.13,3.13,0,0,0-2.45-.17l-.89.3.9-.33a3.05,3.05,0,0,0,1.77-1.63,3.28,3.28,0,0,0,.05-2.59,3.19,3.19,0,0,0-4.26-1.81l-.88.39.86-.4a3.17,3.17,0,0,0,1.47-4.39,3.29,3.29,0,0,0-2-1.68,3,3,0,0,0-2.4.25l-.84.46.81-.46a3.17,3.17,0,0,0,1.5-2,3.25,3.25,0,0,0-.4-2.54,3.35,3.35,0,0,0-2.13-1.48,3.11,3.11,0,0,0-2.38.45l-.78.53.77-.54a3.12,3.12,0,0,0,1.31-2,3.36,3.36,0,0,0-.6-2.55,3.27,3.27,0,0,0-2.22-1.3,3.07,3.07,0,0,0-2.36.66l-.74.58.74-.61a3.06,3.06,0,0,0,1.12-2.14,3.27,3.27,0,0,0-.81-2.45,3.18,3.18,0,0,0-4.62-.28l-.71.66.69-.68a3.09,3.09,0,0,0,1-2.29,3.23,3.23,0,0,0-1-2.33,3.32,3.32,0,0,0-2.41-.93,3.14,3.14,0,0,0-2.21,1l-.64.71.62-.71a3.24,3.24,0,0,0,.76-2.4A3.17,3.17,0,0,0,195,82.38a3.31,3.31,0,0,0-2.5-.7,3.07,3.07,0,0,0-2.09,1.21l-.57.76.55-.76a3.16,3.16,0,0,0,.56-2.35,3.4,3.4,0,0,0-1.41-2.22,3.3,3.3,0,0,0-2.55-.47,3.11,3.11,0,0,0-2,1.39l-.49.79.48-.81a3.07,3.07,0,0,0,.36-2.39,3.38,3.38,0,0,0-1.58-2,3.12,3.12,0,0,0-2.5-.32,3.17,3.17,0,0,0-2,1.6l-.44.84.43-.86a3.21,3.21,0,0,0,.13-2.51,3.33,3.33,0,0,0-1.74-1.82,3.24,3.24,0,0,0-2.57-.08,3.07,3.07,0,0,0-1.75,1.73l-.36.87.34-.87a3.2,3.2,0,0,0-.09-2.52,3.15,3.15,0,0,0-1.89-1.67,3.28,3.28,0,0,0-2.59.17,3.06,3.06,0,0,0-1.56,1.84l-.28.89.26-.88a3.12,3.12,0,0,0-.26-2.41,3.31,3.31,0,0,0-2.07-1.61,3.28,3.28,0,0,0-2.56.4,3.1,3.1,0,0,0-1.41,2l-.21.92.19-.94a3.06,3.06,0,0,0-.46-2.37,3.31,3.31,0,0,0-2.17-1.4,3.19,3.19,0,0,0-3.78,2.69l-.13,1,.11-1a3.2,3.2,0,0,0-.72-2.41,3.16,3.16,0,0,0-2.25-1.15,3.33,3.33,0,0,0-2.47.81,3.12,3.12,0,0,0-1,2.18l-.05.94,0-.92a3.09,3.09,0,0,0-.86-2.26,3.26,3.26,0,0,0-4.79,0,3.13,3.13,0,0,0-.86,2.26l0,1-.05-1a3.08,3.08,0,0,0-1-2.18,3.29,3.29,0,0,0-2.45-.81,3.2,3.2,0,0,0-3,3.55l.11,1-.12-.94a3.22,3.22,0,0,0-1.3-2.16,3.17,3.17,0,0,0-2.47-.54,3.29,3.29,0,0,0-2.18,1.4,3.07,3.07,0,0,0-.47,2.37l.19.93-.21-.9a3.09,3.09,0,0,0-1.41-2,3.26,3.26,0,0,0-4.62,1.21,3.1,3.1,0,0,0-.26,2.4l.26.88-.28-.88a3.09,3.09,0,0,0-1.56-1.84,3.33,3.33,0,0,0-2.59-.18,3.21,3.21,0,0,0-2,4.2l.34.88-.36-.88a3.09,3.09,0,0,0-1.76-1.73,3.21,3.21,0,0,0-2.56.08A3.34,3.34,0,0,0,110,73.54a3.24,3.24,0,0,0,.14,2.5l.42.86-.43-.84a3.2,3.2,0,0,0-2-1.6,3.12,3.12,0,0,0-2.5.32,3.31,3.31,0,0,0-1.58,2,3.07,3.07,0,0,0,.35,2.39l.5.82-.51-.79a3.07,3.07,0,0,0-2-1.4,3.27,3.27,0,0,0-4,2.69A3.11,3.11,0,0,0,99,82.89l.56.76L99,82.9a3.09,3.09,0,0,0-2.09-1.22,3.28,3.28,0,0,0-2.5.7A3.21,3.21,0,0,0,93.92,87l.61.71L93.9,87a3.12,3.12,0,0,0-2.21-1,3.32,3.32,0,0,0-2.4.92,3.24,3.24,0,0,0-1,2.34,3.09,3.09,0,0,0,1,2.29l.69.68-.7-.66a3.22,3.22,0,0,0-2.36-.86,3.16,3.16,0,0,0-2.26,1.13,3.27,3.27,0,0,0-.82,2.46,3.06,3.06,0,0,0,1.12,2.14l.74.6-.73-.57a3.11,3.11,0,0,0-2.37-.66,3.26,3.26,0,0,0-2.23,1.32,3.32,3.32,0,0,0-.58,2.53,3.11,3.11,0,0,0,1.3,2l.77.53-.78-.51a3.1,3.1,0,0,0-2.37-.46,3.33,3.33,0,0,0-2.14,1.49,3.22,3.22,0,0,0-.39,2.53,3.11,3.11,0,0,0,1.49,2l.82.47-.84-.46a3.07,3.07,0,0,0-2.41-.25,3.28,3.28,0,0,0-2,1.67,3.13,3.13,0,0,0-.21,2.54A3.18,3.18,0,0,0,74.64,113l.86.4-.86-.38a3.18,3.18,0,0,0-4.27,1.79,3.31,3.31,0,0,0,0,2.6,3.05,3.05,0,0,0,1.77,1.63l.9.33-.88-.3a3.15,3.15,0,0,0-2.46.17,3.27,3.27,0,0,0-1.66,2,3.36,3.36,0,0,0,.3,2.58,3.12,3.12,0,0,0,1.91,1.48l.91.24-.92-.22a3.1,3.1,0,0,0-2.39.36,3.32,3.32,0,0,0-1.5,2.11,3.21,3.21,0,0,0,2.54,3.89l.94.17-1-.15a3,3,0,0,0-2.38.58,3.33,3.33,0,0,0-.6,4.7,3.09,3.09,0,0,0,2.16,1.17l1,.09-.95-.07a3.21,3.21,0,0,0-3.44,3.12,3.38,3.38,0,0,0,.93,2.43,3.15,3.15,0,0,0,2.22,1h0a3.11,3.11,0,0,0-2.23,1,3.34,3.34,0,0,0-.93,2.42,3.22,3.22,0,0,0,3.19,3.13h.24l.94-.06-.94.08a3.09,3.09,0,0,0-2.17,1.17,3.34,3.34,0,0,0,.6,4.7,3.12,3.12,0,0,0,2.38.59l1-.15-.94.16a3.18,3.18,0,0,0-2.09,1.39,3.12,3.12,0,0,0-.45,2.5,3.27,3.27,0,0,0,1.5,2.11,3.08,3.08,0,0,0,1.63.47,3.3,3.3,0,0,0,.76-.1l.91-.23-.9.24a3.12,3.12,0,0,0-1.91,1.48,3.35,3.35,0,0,0-.29,2.6,3.2,3.2,0,0,0,4.11,2.15l.88-.31-.89.33A3.06,3.06,0,0,0,70.42,172a3.26,3.26,0,0,0,0,2.58,3.18,3.18,0,0,0,4.27,1.81l.86-.38-.85.4A3.11,3.11,0,0,0,73,178.22a3.15,3.15,0,0,0,.2,2.53,3.35,3.35,0,0,0,2,1.68,3.18,3.18,0,0,0,.91.13,3.08,3.08,0,0,0,1.5-.39l.85-.47-.83.48a3.11,3.11,0,0,0-1.49,2,3.21,3.21,0,0,0,.4,2.54,3.32,3.32,0,0,0,2.13,1.49,3.57,3.57,0,0,0,.65.06,3.1,3.1,0,0,0,1.72-.52l.79-.52-.77.53a3.1,3.1,0,0,0-1.31,2,3.33,3.33,0,0,0,.59,2.54,3.23,3.23,0,0,0,2.22,1.3l.42,0a3.15,3.15,0,0,0,2-.68l.73-.58-.73.6a3.07,3.07,0,0,0-1.13,2.14,3.25,3.25,0,0,0,.81,2.45,3.14,3.14,0,0,0,2.27,1.14H87a3.15,3.15,0,0,0,2.18-.87l.69-.64-.68.66a3.11,3.11,0,0,0-1,2.3,3.19,3.19,0,0,0,1,2.32,3.26,3.26,0,0,0,2.28.93h.13a3.07,3.07,0,0,0,2.21-1l.64-.71-.61.71a3.2,3.2,0,0,0,.46,4.61,3.33,3.33,0,0,0,2.07.73,3.17,3.17,0,0,0,.43,0A3.12,3.12,0,0,0,99,206.48l.58-.76-.55.76a3.1,3.1,0,0,0-.56,2.36,3.26,3.26,0,0,0,3.24,2.76,3.51,3.51,0,0,0,.72-.07,3.14,3.14,0,0,0,2-1.4l.51-.8-.5.82a3.08,3.08,0,0,0-.35,2.39,3.27,3.27,0,0,0,1.57,2.05,3.2,3.2,0,0,0,4.46-1.27l.44-.85-.42.86a3.22,3.22,0,0,0-.13,2.51,3.39,3.39,0,0,0,3.13,2.13,3.19,3.19,0,0,0,1.17-.22A3.1,3.1,0,0,0,116,216l.36-.87L116,216a3.16,3.16,0,0,0,.09,2.52,3.12,3.12,0,0,0,1.88,1.68,3.58,3.58,0,0,0,1.11.18,3.39,3.39,0,0,0,1.49-.35,3.14,3.14,0,0,0,1.56-1.85l.28-.89-.26.89a3.1,3.1,0,0,0,.26,2.4,3.34,3.34,0,0,0,2.07,1.62,3.74,3.74,0,0,0,.81.1,3.28,3.28,0,0,0,1.74-.5,3.12,3.12,0,0,0,1.41-2l.21-.91-.19.93a3.06,3.06,0,0,0,.47,2.37,3.29,3.29,0,0,0,2.17,1.4,3.34,3.34,0,0,0,.62.06,3.13,3.13,0,0,0,1.86-.6,3.17,3.17,0,0,0,1.29-2.15L135,220l-.11.95a3.21,3.21,0,0,0,.72,2.41,3.17,3.17,0,0,0,2.26,1.14h.27a3.3,3.3,0,0,0,2.19-.82,3.06,3.06,0,0,0,1-2.17l.05-1,0,.93a3.15,3.15,0,0,0,.86,2.27,3.38,3.38,0,0,0,2.42,1,3.33,3.33,0,0,0,2.37-1,3.1,3.1,0,0,0,.86-2.26l0-.94.05.95a3.1,3.1,0,0,0,1,2.18,3.32,3.32,0,0,0,2.19.82h.27a3.15,3.15,0,0,0,2.26-1.14,3.21,3.21,0,0,0,.72-2.41l-.11-1,.13,1a3.17,3.17,0,0,0,3.76,2.69,3.31,3.31,0,0,0,2.19-1.4,3.09,3.09,0,0,0,.47-2.36l-.2-.95.21.92a3.12,3.12,0,0,0,1.41,2,3.25,3.25,0,0,0,1.74.49,3.58,3.58,0,0,0,.85-.1,3.34,3.34,0,0,0,2-1.61,3.1,3.1,0,0,0,.26-2.4l-.26-.88.28.88a3.11,3.11,0,0,0,1.56,1.85,3.33,3.33,0,0,0,1.49.35,3.46,3.46,0,0,0,1.09-.18,3.16,3.16,0,0,0,1.9-1.68,3.2,3.2,0,0,0,.09-2.52l-.35-.88.37.88a3.12,3.12,0,0,0,1.75,1.74,3.25,3.25,0,0,0,2.56-.09,3.27,3.27,0,0,0,1.75-1.83,3.2,3.2,0,0,0-.13-2.5l-.43-.86.44.84a3.14,3.14,0,0,0,2,1.6,3,3,0,0,0,.89.13,3.13,3.13,0,0,0,1.6-.44,3.35,3.35,0,0,0,1.59-2.06,3.08,3.08,0,0,0-.36-2.39l-.48-.8.49.78a3.16,3.16,0,0,0,2,1.4,3.3,3.3,0,0,0,4-2.69,3.18,3.18,0,0,0-.56-2.36l-.56-.77.58.77a3.12,3.12,0,0,0,2.09,1.22,3,3,0,0,0,.43,0A3.33,3.33,0,0,0,195,207a3.19,3.19,0,0,0,1.23-2.23,3.23,3.23,0,0,0-.76-2.39l-.62-.72.64.72a3.09,3.09,0,0,0,2.21,1h.13a3.25,3.25,0,0,0,2.27-.92,3.2,3.2,0,0,0,1-2.33,3.11,3.11,0,0,0-1-2.3l-.69-.68.7.66a3.17,3.17,0,0,0,2.19.87h.18a3.14,3.14,0,0,0,2.26-1.13,3.29,3.29,0,0,0,.81-2.46,3.06,3.06,0,0,0-1.12-2.13l-.75-.62.74.58a3.1,3.1,0,0,0,2,.69,2.83,2.83,0,0,0,.41,0,3.25,3.25,0,0,0,2.23-1.31,3.34,3.34,0,0,0,.59-2.53,3.14,3.14,0,0,0-1.31-2l-.76-.52.77.51a3.13,3.13,0,0,0,1.72.52,3.68,3.68,0,0,0,.66-.06,3.35,3.35,0,0,0,2.13-1.5,3.22,3.22,0,0,0,.4-2.53,3.16,3.16,0,0,0-1.5-2l-.82-.47.84.46a3.14,3.14,0,0,0,2.41.26,3.34,3.34,0,0,0,2-1.67,3.22,3.22,0,0,0,.21-2.54,3.14,3.14,0,0,0-1.67-1.86l-.86-.4.86.38a3.16,3.16,0,0,0,1.28.27,3.08,3.08,0,0,0,1.23-.25,3.15,3.15,0,0,0,1.76-1.82A3.28,3.28,0,0,0,219,172a3.07,3.07,0,0,0-1.77-1.64l-.91-.33.89.3a3.06,3.06,0,0,0,1,.18,3.18,3.18,0,0,0,1.43-.35,3.25,3.25,0,0,0,1.66-2,3.33,3.33,0,0,0-.3-2.59,3.1,3.1,0,0,0-1.91-1.47l-.9-.25.91.23a3.31,3.31,0,0,0,.77.09,3.06,3.06,0,0,0,1.62-.46,3.32,3.32,0,0,0,1.51-2.11,3.22,3.22,0,0,0-2.54-3.88l-.95-.17,1,.15a3.15,3.15,0,0,0,2.39-.59,3.23,3.23,0,0,0,1.27-2.22,3.28,3.28,0,0,0-.67-2.48,3.06,3.06,0,0,0-2.17-1.16l-1-.09.93.06Zm1.15-4.48a1.79,1.79,0,0,1,.49,1.31,1.66,1.66,0,0,1-1.77,1.62l-2.67-.19v-.17q0-.33.06-.72l2.51.13a.74.74,0,0,0,.78-.73.77.77,0,0,0-.74-.79l-2.51-.08,0-.88,2.7,0A1.59,1.59,0,0,1,222.65,146.72ZM217,151.63s0,.28-.06.67l-.42,3.24c0,.38-.1.64-.1.65a.59.59,0,0,0,0,.23c-.06.35-.11.69-.17,1a.6.6,0,0,0-.1.25l-.15.83c-.07.41-.16.93-.29,1.45l-.54,2.31a.85.85,0,0,0,0,.16c-.09.36-.19.73-.29,1.1a.71.71,0,0,0-.08.15l-.65,2.28c-.09.36-.21.71-.32,1l-.17.49-.24.7a1.1,1.1,0,0,0,0,.18c-.13.38-.26.76-.4,1.13,0,0,0,0,0,.07l-.87,2.22c-.4,1.06-.89,2.11-.89,2.12a.42.42,0,0,0,0,.15c-.17.37-.33.75-.51,1.12a1,1,0,0,0-.08.11s-.47,1.07-1,2.09l-.75,1.46c-.18.36-.32.6-.32.61s0,0,0,.06c-.21.38-.42.76-.64,1.13a.87.87,0,0,0-.09.11l-.36.63c-.08.12-.16.26-.24.41-.17.3-.36.63-.58,1l-1.28,2s0,0,0,.06l-.75,1.1s0,0-.05.05l-1.37,1.93c-.22.3-.45.59-.65.85l-.32.41-.46.58a.36.36,0,0,0,0,.09l-.86,1.05h0l-1.56,1.8c-.73.87-1.54,1.69-1.55,1.7a.56.56,0,0,0,0,.08c-.31.33-.63.66-1,1,0,0,0,0,0,0l-2.84,2.77-.34.31h0l-.14.13,0,0-1,.92a.53.53,0,0,0-.1.06l-.56.49c-.35.3-.77.66-1.22,1l-1.87,1.46,0,0-1.08.8-.07,0-1.9,1.35-2,1.29s0,0-.07.07l-1.12.69h0l-2.06,1.19c-.53.31-1,.58-1.39.76l-.66.34a.87.87,0,0,0-.11.09l-1.12.56-.09,0-3.6,1.66a5.36,5.36,0,0,1-.63.26l-.11.07-1.11.45a.58.58,0,0,0-.19,0l-.7.27c-.46.2-1,.39-1.48.55l-2.25.76a.33.33,0,0,0-.1.06l-1.12.34a.47.47,0,0,0-.17,0L163,215l-2.3.54a.66.66,0,0,0-.19.09l-1.1.24h-.13l-2.35.42c-1.11.23-2.26.35-2.27.35a1,1,0,0,0-.25.08l-1,.13a.62.62,0,0,0-.27,0s-1.15.16-2.3.22l-2.37.18-.15.05-1,0a.65.65,0,0,0-.27-.05l-2.33.06-2.37-.06a.71.71,0,0,0-.29.05l-1,0-.15-.05L138.5,217c-1.13-.06-2.28-.22-2.29-.22a.57.57,0,0,0-.26,0l-1-.13a1.12,1.12,0,0,0-.26-.08s-1.16-.12-2.29-.35l-2.33-.42H130l-1.1-.24a.61.61,0,0,0-.2-.09l-2.27-.53-2.27-.65a.5.5,0,0,0-.17,0l-1.12-.34a.6.6,0,0,0-.11-.06l-2.26-.77c-.47-.15-1-.35-1.48-.54l-.68-.27a.71.71,0,0,0-.2,0c-.37-.14-.74-.3-1.11-.45l-.11-.07a6.33,6.33,0,0,1-.63-.26l-1.48-.67-2.11-1-.1,0-1.11-.56a1.27,1.27,0,0,0-.12-.1l-.68-.34c-.35-.17-.84-.44-1.37-.76l-2.06-1.18h0l-1.12-.7s0-.05-.07-.06l-2-1.27-1.93-1.37-.07,0-1.09-.8,0,0L99,201.18c-.44-.34-.85-.7-1.21-1l-.56-.48a.33.33,0,0,0-.1-.06l-1-.92a0,0,0,0,0,0,0l-.14-.13h0l-.34-.32-1.18-1.13-1.66-1.63s0,0,0,0l-1-1a.14.14,0,0,0,0-.08s-.82-.82-1.55-1.71l-1.56-1.79h0c-.29-.35-.57-.71-.85-1.07a.56.56,0,0,1,0-.08l-.45-.57c-.09-.13-.2-.27-.32-.42s-.44-.55-.66-.85L84.92,186l0-.05c-.25-.37-.5-.73-.74-1.1l0-.06-1.29-2c-.21-.32-.4-.65-.56-.94l-.24-.41-.37-.64a.87.87,0,0,0-.09-.11c-.21-.37-.43-.75-.64-1.14a.11.11,0,0,0,0-.05s-.14-.25-.33-.62l-.75-1.46c-.54-1-1-2.07-1-2.08a.76.76,0,0,0-.08-.11l-.51-1.12a.8.8,0,0,0,0-.15s-.5-1.06-.9-2.14l-.87-2.2s0,0,0-.07c-.14-.37-.27-.75-.4-1.13a.55.55,0,0,0,0-.18l-.23-.69-.18-.51c-.1-.31-.22-.65-.32-1l-.65-2.28a.71.71,0,0,0-.08-.15l-.29-1.1a.85.85,0,0,0,0-.16L73.67,160c-.12-.5-.21-1-.28-1.43l-.16-.84a.75.75,0,0,0-.09-.25c-.06-.34-.12-.68-.17-1a.91.91,0,0,0,0-.23s0-.27-.1-.66l-.41-3.23c0-.39-.06-.66-.06-.67a1.05,1.05,0,0,0-.06-.24c0-.33-.07-.66-.09-1a.65.65,0,0,0,0-.28l-.07-.93c0-.4-.07-.89-.07-1.39l-.06-2.38a.61.61,0,0,0,0-.18v-1.07a.65.65,0,0,0,0-.2l.06-2.39c0-.49,0-1,.07-1.37l.07-.94a.67.67,0,0,0,0-.28c0-.33.06-.66.09-1a1,1,0,0,0,.06-.25s0-.28.06-.67l.41-3.23c0-.39.1-.64.1-.66a.89.89,0,0,0,0-.23c0-.34.11-.69.17-1a.63.63,0,0,0,.09-.24l.16-.85c.07-.41.16-.93.29-1.44l.53-2.31a.75.75,0,0,0,0-.15c.09-.36.19-.72.28-1.07a.66.66,0,0,0,.09-.19l.65-2.28c.1-.35.22-.7.32-1s.13-.35.17-.49l.24-.7a.65.65,0,0,0,0-.19l.39-1.11a.26.26,0,0,0,0-.09l.88-2.21c.39-1.07.88-2.12.89-2.13a.8.8,0,0,0,0-.15l.51-1.11a.5.5,0,0,0,.08-.12s.47-1.07,1-2.09l.74-1.45c.19-.37.32-.61.33-.62l0,0c.19-.37.4-.73.6-1.09a.44.44,0,0,0,.12-.15L82,108l.25-.42c.16-.3.35-.63.57-1l1.28-2,0-.05c.24-.38.5-.75.75-1.12l0,0,1.38-1.94c.21-.3.44-.59.65-.85l.32-.4.45-.59a.56.56,0,0,0,0-.08c.28-.36.56-.71.85-1.06h0l1.57-1.81c.72-.87,1.54-1.69,1.54-1.7a.15.15,0,0,0,0-.07l1-1,0,0,2.85-2.77c.27-.27.47-.43.48-.44s0,0,0,0l1-.91a.39.39,0,0,0,.11-.06l.57-.49c.35-.31.76-.67,1.22-1l1.86-1.47,0,0c.35-.27.71-.53,1.07-.79l.09,0,1.9-1.35,2-1.28.07-.07,1.1-.69.06,0,2.06-1.19c.54-.31,1-.58,1.39-.75l.66-.34a.58.58,0,0,0,.12-.1l1.13-.56.08,0,3.59-1.66c.36-.16.62-.25.63-.26a.75.75,0,0,0,.12-.07l1.1-.45.2,0,.7-.28c.45-.19,1-.39,1.48-.54l2.24-.76a.6.6,0,0,0,.11-.06c.35-.12.71-.22,1.07-.33h0a.83.83,0,0,0,.22,0l2.24-.64,2.3-.54a.6.6,0,0,0,.2-.08l1.06-.23h.16l2.35-.42c1.11-.22,2.26-.35,2.27-.35a.79.79,0,0,0,.26-.08l1-.13.15,0h.11s1.16-.17,2.31-.23l2.36-.18a.83.83,0,0,0,.15,0l1.05,0a1.09,1.09,0,0,0,.26,0l2.33-.06,2.37.06h0a.85.85,0,0,0,.22,0l1.06,0a.83.83,0,0,0,.15,0l2.38.18c1.14.06,2.28.23,2.29.23h.11l.15,0,1,.13a.73.73,0,0,0,.25.08s1.16.13,2.29.35l2.33.42h.17l1.06.23a.64.64,0,0,0,.19.08l2.27.54,2.28.64a.76.76,0,0,0,.21,0h0l1.07.33a.33.33,0,0,0,.1.06l2.26.76c.47.15,1,.35,1.48.54l.69.28a.64.64,0,0,0,.2,0l1.1.45s.07.06.11.07.27.1.63.26l2.66,1.2.94.46.08,0,1.13.56.11.1.68.34c.35.17.84.44,1.38.76l2.05,1.18.06,0,1.1.69.07.07,2,1.26,1.93,1.37.08,0c.36.26.72.52,1.07.79,0,0,0,0,0,0l1.88,1.48c.44.33.86.69,1.21,1l.56.49.11.06,1,.91,0,0s.21.17.49.45l2.33,2.22.51.54,0,0,1,1,0,.07s.82.83,1.56,1.72l1.55,1.79h0l.86,1.06a.2.2,0,0,0,0,.08l.45.58.33.41c.2.26.43.55.65.86l1.37,1.93,0,0c.26.37.51.74.76,1.12,0,0,0,0,0,.05l1.29,2c.21.32.4.66.57,1l.23.41.37.64a.61.61,0,0,0,.12.15c.21.36.41.72.61,1.09,0,0,0,0,0,0s.14.25.32.63l.75,1.46c.54,1,1,2.06,1,2.07a1.25,1.25,0,0,0,.08.12c.18.37.34.74.51,1.11a.42.42,0,0,0,0,.15s.49,1.06.89,2.14l.87,2.2a.26.26,0,0,0,.05.09l.39,1.11a1.37,1.37,0,0,0,0,.19l.24.68c0,.16.11.33.17.51s.23.66.33,1l.64,2.28a1.51,1.51,0,0,0,.09.18c.09.35.19.71.28,1.07a.75.75,0,0,0,0,.15l.54,2.33c.13.5.22,1,.29,1.44l.15.83a.51.51,0,0,0,.1.24c.06.34.11.69.17,1a.59.59,0,0,0,0,.23s.06.27.1.66l.41,3.23c.05.39.07.66.07.67a.71.71,0,0,0,.06.25c0,.33.06.66.08,1a.89.89,0,0,0,0,.28l.07,1c0,.39.07.88.07,1.38l.06,2.37a1.6,1.6,0,0,0,0,.21c0,.17,0,.34,0,.52s0,.34,0,.51a1.42,1.42,0,0,0,0,.22l-.06,2.38c0,.49,0,1-.07,1.36l-.07,1a1,1,0,0,0,0,.29c0,.33,0,.66-.08,1A.61.61,0,0,0,217,151.63Zm4.39-11.91a1.67,1.67,0,0,1,1.21.42,1.63,1.63,0,0,1,.55,1.2,1.77,1.77,0,0,1-.49,1.31,1.56,1.56,0,0,1-1.13.48l-2.69,0,0-.89,2.51-.08a.76.76,0,0,0,.74-.79.74.74,0,0,0-.78-.73l-2.51.13c0-.26,0-.5-.06-.71v-.17Zm-.68-6.49a1.59,1.59,0,0,1,1.21.3,1.69,1.69,0,0,1,.67,1.19,1.73,1.73,0,0,1-.35,1.31,1.57,1.57,0,0,1-1.1.59l-2.67.25-.11-.88,2.49-.29a.76.76,0,0,0-.19-1.51l-2.49.34-.11-.88Zm-1.24-6.41a1.58,1.58,0,0,1,1.2.19,1.77,1.77,0,0,1,.81,1.14,1.67,1.67,0,0,1-1.31,2l-2.64.47v-.06l-.14-.81,2.46-.5a.73.73,0,0,0,.57-.9.76.76,0,0,0-.91-.59l-2.45.56-.2-.86Zm-1.79-6.27a1.6,1.6,0,0,1,1.25.09,1.71,1.71,0,0,1,.87,1,1.76,1.76,0,0,1-.15,1.39,1.57,1.57,0,0,1-1,.76l-2.6.7-.24-.85,2.41-.71a.77.77,0,0,0,.51-1,.73.73,0,0,0-.94-.5l-2.4.76c0-.14-.09-.27-.13-.39s-.11-.3-.15-.45Zm-2.31-6.1a1.61,1.61,0,0,1,1.29,0,1.63,1.63,0,0,1,.91,1,1.72,1.72,0,0,1,0,1.39,1.53,1.53,0,0,1-.89.82l-2.54.93-.32-.83,2.34-.91a.75.75,0,0,0,.42-1,.74.74,0,0,0-1-.43l-2.32,1c-.12-.3-.24-.58-.34-.81Zm-2.81-5.89a1.56,1.56,0,0,1,1.21-.13,1.76,1.76,0,0,1,1.06.91,1.65,1.65,0,0,1,.11,1.32,1.6,1.6,0,0,1-.85,1l-2.43,1.13c-.11-.23-.24-.5-.39-.79l2.26-1.11a.74.74,0,0,0,.32-1,.76.76,0,0,0-1-.34l-2.23,1.16-.4-.79Zm-3.32-5.62a1.54,1.54,0,0,1,1.2-.23,1.82,1.82,0,0,1,1.14.8,1.68,1.68,0,0,1,.21,1.33,1.55,1.55,0,0,1-.77,1l-2.32,1.34c-.07-.11-.14-.24-.21-.37l-.23-.4,2.15-1.3a.74.74,0,0,0,.24-1,.77.77,0,0,0-1-.25l-2.13,1.34-.48-.74Zm-3.78-5.31a1.62,1.62,0,0,1,1.21-.34,1.73,1.73,0,0,1,1.16.68,1.79,1.79,0,0,1,.32,1.37,1.53,1.53,0,0,1-.66,1l-2.21,1.53-.51-.72,2-1.48a.77.77,0,0,0,.17-1.07.76.76,0,0,0-1.07-.16l-2,1.52-.26-.32-.29-.38Zm-4.21-5a1.66,1.66,0,0,1,2.39.16,1.77,1.77,0,0,1,.44,1.32,1.49,1.49,0,0,1-.56,1.07l-2.09,1.72-.58-.66,1.91-1.65a.76.76,0,0,0,.06-1.07.74.74,0,0,0-1.06-.08l-1.87,1.68-.59-.65ZM196.63,88a1.51,1.51,0,0,1,1.11-.53A1.75,1.75,0,0,1,199,88a1.66,1.66,0,0,1,.54,1.21,1.55,1.55,0,0,1-.49,1.18l-1.91,1.87-.64-.62,1.76-1.79a.76.76,0,0,0-1.1-1.06l-1.72,1.84-.64-.61h0Zm-5-4.21a1.54,1.54,0,0,1,1.05-.61,1.75,1.75,0,0,1,1.34.39,1.64,1.64,0,0,1,.25,2.38l-1.75,2-.67-.57,1.6-2a.73.73,0,0,0-.12-1,.76.76,0,0,0-1.08.11l-1.56,2L190,86Zm-5.34-3.76a1.59,1.59,0,0,1,1-.7,1.77,1.77,0,0,1,1.35.24,1.81,1.81,0,0,1,.75,1.18,1.59,1.59,0,0,1-.28,1.2l-1.58,2.18-.72-.51,1.43-2.07a.76.76,0,1,0-1.26-.86l-1.39,2.1-.75-.48Zm-5.63-3.3a1.61,1.61,0,0,1,1-.81,1.59,1.59,0,0,1,1.29.17,1.77,1.77,0,0,1,.86,1.1,1.58,1.58,0,0,1-.18,1.2l-1.39,2.31-.77-.44,1.25-2.18a.76.76,0,0,0-.29-1,.75.75,0,0,0-1,.28l-1.21,2.21a8.75,8.75,0,0,0-.78-.41Zm-5.88-2.82a1.58,1.58,0,0,1,.89-.87,1.7,1.7,0,0,1,1.36.05,1.83,1.83,0,0,1,.93.95,1.65,1.65,0,0,1-.07,1.29l-1.18,2.4-.81-.37L177,75.12a.76.76,0,0,0-.38-1h0a.77.77,0,0,0-1,.38l-1,2.3-.81-.37Zm-6.11-2.3a1.56,1.56,0,0,1,.79-.92,1.78,1.78,0,0,1,1.4-.09,1.62,1.62,0,0,1,1,.87,1.68,1.68,0,0,1,.05,1.3l-1,2.49L170.1,75l.86-2.36a.74.74,0,0,0-.47-1,.76.76,0,0,0-1,.46l-.82,2.38-.83-.28Zm-6.28-1.75a1.58,1.58,0,0,1,.72-1,1.76,1.76,0,0,1,1.34-.22,1.8,1.8,0,0,1,1.11.86,1.56,1.56,0,0,1,.13,1.23l-.76,2.58-.85-.24.66-2.43a.77.77,0,0,0-.54-.94.76.76,0,0,0-.93.55l-.61,2.45-.86-.21ZM156,68.66a1.61,1.61,0,0,1,.67-1.1,1.64,1.64,0,0,1,1.29-.28,1.74,1.74,0,0,1,1.17.75,1.52,1.52,0,0,1,.24,1.19l-.54,2.64-.87-.15.45-2.47a.77.77,0,0,0-.63-.88.73.73,0,0,0-.87.61l-.4,2.48-.87-.14ZM149.5,68a1.56,1.56,0,0,1,.53-1.09,1.77,1.77,0,0,1,1.33-.42,1.63,1.63,0,0,1,1.54,1.82l-.31,2.66-.87-.09.23-2.5a.75.75,0,0,0-.7-.81.76.76,0,0,0-.82.7l-.19,2.5-.88-.07Zm-6.08-1.25a1.82,1.82,0,0,1,1.25-.57,1.86,1.86,0,0,1,1.29.57,1.57,1.57,0,0,1,.43,1.15l-.08,2.68-.89,0,0-2.51a.77.77,0,1,0-1.53,0l0,2.51-.88,0L143,67.85A1.54,1.54,0,0,1,143.42,66.71Zm-6.58.33a1.58,1.58,0,0,1,1.18-.59h.15a1.74,1.74,0,0,1,1.17.43,1.56,1.56,0,0,1,.53,1.1l.14,2.7-.88.06-.19-2.5a.76.76,0,0,0-.82-.7.75.75,0,0,0-.7.81l.24,2.5-.88.09-.31-2.66A1.62,1.62,0,0,1,136.84,67Zm-6.59,1a1.74,1.74,0,0,1,1.18-.75,1.84,1.84,0,0,1,.33,0,1.62,1.62,0,0,1,1,.31,1.63,1.63,0,0,1,.66,1.1l.37,2.65-.88.14L132.48,69a.76.76,0,0,0-1.5.27l.44,2.47-.87.15L130,69.21A1.55,1.55,0,0,1,130.25,68Zm-6.45,1.49a1.8,1.8,0,0,1,1.08-.85,1.74,1.74,0,0,1,.45-.06,1.7,1.7,0,0,1,.92.27,1.59,1.59,0,0,1,.73,1l.59,2.62-.86.21-.61-2.45a.76.76,0,0,0-.93-.55.78.78,0,0,0-.55.94l.66,2.42-.85.25-.76-2.59A1.58,1.58,0,0,1,123.8,69.52Zm-6.28,2a1.64,1.64,0,0,1,1-.87,1.86,1.86,0,0,1,.61-.1,1.64,1.64,0,0,1,.78.19,1.52,1.52,0,0,1,.79.93l.82,2.57-.84.28-.81-2.38a.77.77,0,0,0-1-.46.74.74,0,0,0-.47,1l.86,2.36-.82.32-1-2.5A1.65,1.65,0,0,1,117.52,71.5Zm-6.12,2.59a1.78,1.78,0,0,1,.94-1,1.82,1.82,0,0,1,.75-.17,1.57,1.57,0,0,1,.6.12,1.54,1.54,0,0,1,.89.88l1,2.47-.8.37-1-2.3a.76.76,0,0,0-1-.38.77.77,0,0,0-.39,1l1.06,2.27-.8.37-1.19-2.4A1.65,1.65,0,0,1,111.4,74.09Zm-5.86,3.13a1.79,1.79,0,0,1,.86-1.11,1.65,1.65,0,0,1,.83-.23,1.47,1.47,0,0,1,.46.07,1.6,1.6,0,0,1,1,.82l1.23,2.38c-.25.12-.52.26-.78.41L108,77.35a.75.75,0,0,0-1-.28.78.78,0,0,0-.3,1l1.25,2.18-.76.44-1.4-2.31A1.53,1.53,0,0,1,105.54,77.22ZM100,80.78a1.72,1.72,0,0,1,1.72-1.46,1.58,1.58,0,0,1,.38,0,1.52,1.52,0,0,1,1,.71l1.44,2.27-.74.48-1.39-2.1a.77.77,0,1,0-1.27.86l1.43,2.07-.72.51L100.24,82A1.59,1.59,0,0,1,100,80.78Zm-4.62,2.81a1.84,1.84,0,0,1,1.12-.39h.23a1.56,1.56,0,0,1,1,.62L99.37,86l-.7.54-1.56-2A.75.75,0,0,0,96,84.44h0a.73.73,0,0,0-.13,1l1.61,2-.68.57-1.75-2a1.6,1.6,0,0,1-.38-1.23A1.67,1.67,0,0,1,95.34,83.59Zm-5,4.41a1.69,1.69,0,0,1,1.2-.5h.07a1.53,1.53,0,0,1,1.12.53l1.79,2-.63.61L92.18,88.8a.76.76,0,0,0-1.1,1.06l1.76,1.8-.64.61-1.91-1.88a1.59,1.59,0,0,1-.49-1.17A1.65,1.65,0,0,1,90.36,88Zm-4.61,4.79a1.62,1.62,0,0,1,1.17-.58H87a1.61,1.61,0,0,1,1.12.45l2,1.83c-.18.18-.38.41-.6.65l-1.87-1.68a.74.74,0,0,0-1.06.08.75.75,0,0,0,.07,1.07l1.9,1.65-.58.66-2.09-1.72a1.57,1.57,0,0,1-.56-1.07A1.82,1.82,0,0,1,85.75,92.79Zm-4.52,6.55A1.8,1.8,0,0,1,81.54,98a1.74,1.74,0,0,1,1.18-.7h.21a1.58,1.58,0,0,1,1,.35L86,99.29a4.28,4.28,0,0,1-.29.38l-.25.32-2-1.52a.75.75,0,0,0-1.06.16.76.76,0,0,0,.16,1.07l2,1.48-.52.72-2.21-1.53A1.56,1.56,0,0,1,81.23,99.34Zm-3.64,5.5a1.69,1.69,0,0,1,.21-1.32,1.68,1.68,0,0,1,1.47-.84,1.58,1.58,0,0,1,.87.26l2.25,1.49-.48.74-2.12-1.34a.78.78,0,0,0-1.06.25.74.74,0,0,0,.24,1l2.16,1.3-.23.4-.21.37-2.33-1.34A1.62,1.62,0,0,1,77.59,104.84Zm-3.15,5.82a1.64,1.64,0,0,1,.12-1.33,1.75,1.75,0,0,1,1-.9,1.41,1.41,0,0,1,.45-.07,1.57,1.57,0,0,1,.76.2l2.37,1.29-.4.79-2.24-1.16a.76.76,0,0,0-1,.34.75.75,0,0,0,.33,1L78.11,112l-.39.79-2.43-1.13A1.6,1.6,0,0,1,74.44,110.66Zm-2.61,6.13a1.75,1.75,0,0,1,0-1.4,1.58,1.58,0,0,1,.91-1,1.55,1.55,0,0,1,.63-.13,1.62,1.62,0,0,1,.65.14l2.45,1.08c-.1.23-.22.51-.34.81l-2.32-1a.76.76,0,0,0-.56,1.42l2.34.91-.32.83-2.54-.93A1.53,1.53,0,0,1,71.83,116.79Zm-2.1,6.27a1.81,1.81,0,0,1-.16-1.37,1.77,1.77,0,0,1,.88-1,1.65,1.65,0,0,1,.74-.18,1.58,1.58,0,0,1,.52.09l2.54.87-.16.45c0,.12-.08.26-.13.39l-2.39-.76a.74.74,0,0,0-.95.5.77.77,0,0,0,.51,1l2.41.71-.24.85-2.6-.71A1.55,1.55,0,0,1,69.73,123.06Zm-1.59,6.39a1.66,1.66,0,0,1-.24-1.3,1.81,1.81,0,0,1,.81-1.14,1.59,1.59,0,0,1,.82-.23,1.31,1.31,0,0,1,.39,0l2.61.65-.2.86-2.45-.56a.77.77,0,0,0-.91.59.74.74,0,0,0,.57.9l2.47.5c-.06.29-.11.56-.15.79v.08l-2.64-.48A1.6,1.6,0,0,1,68.14,129.45Zm-1,6.58a1.83,1.83,0,0,1,.32-2.5,1.58,1.58,0,0,1,1-.32l.27,0,2.64.42-.11.88-2.49-.34a.76.76,0,0,0-.19,1.51L71,136l-.11.88-2.68-.25A1.61,1.61,0,0,1,67.14,136Zm-.42,6.62a1.81,1.81,0,0,1-.49-1.31,1.65,1.65,0,0,1,1.65-1.62H68l2.67.2v.15c0,.22,0,.47,0,.73l-2.52-.13a.73.73,0,0,0-.77.73.76.76,0,0,0,.73.79l2.51.08,0,.89-2.7,0A1.55,1.55,0,0,1,66.72,142.65Zm1.27,7a1.62,1.62,0,0,1-1.21-.42,1.67,1.67,0,0,1-.55-1.2,1.83,1.83,0,0,1,.49-1.31,1.6,1.6,0,0,1,1.13-.48l2.69,0,0,.88-2.51.08a.77.77,0,0,0-.73.79.72.72,0,0,0,.77.73l2.52-.13c0,.27,0,.51,0,.73v.16Zm.68,6.49a1.58,1.58,0,0,1-1.21-.29,1.73,1.73,0,0,1-.66-1.2,1.66,1.66,0,0,1,.34-1.3,1.59,1.59,0,0,1,1.11-.6l2.67-.25.11.88-2.5.29a.76.76,0,0,0,.19,1.51l2.49-.34.11.88Zm1.24,6.41a1.55,1.55,0,0,1-1.2-.19,1.78,1.78,0,0,1-.81-1.14,1.66,1.66,0,0,1,.24-1.3,1.6,1.6,0,0,1,1.07-.71l2.64-.48v.08c0,.24.09.51.15.79l-2.47.5a.75.75,0,0,0-.57.9.77.77,0,0,0,.91.59l2.45-.55.2.86Zm1.79,6.27a1.56,1.56,0,0,1-1.25-.09,1.71,1.71,0,0,1-.87-1,1.81,1.81,0,0,1,.15-1.39,1.58,1.58,0,0,1,1-.75l2.6-.7.24.84-2.41.72a.76.76,0,0,0,.44,1.46l2.39-.76c.05.13.09.26.13.38l.16.45ZM74,174.93a1.65,1.65,0,0,1-2.2-1,1.76,1.76,0,0,1,0-1.39,1.55,1.55,0,0,1,.89-.83l2.54-.92.32.82-2.34.91A.76.76,0,0,0,73.8,174l2.32-1c.12.3.24.58.34.82Zm2.81,5.89a1.59,1.59,0,0,1-1.21.13,1.8,1.8,0,0,1-1.06-.92,1.65,1.65,0,0,1-.11-1.32,1.58,1.58,0,0,1,.86-1l2.42-1.13.39.79-2.25,1.11a.75.75,0,0,0-.33,1,.76.76,0,0,0,1,.34l2.23-1.15.41.78Zm3.32,5.61a1.54,1.54,0,0,1-1.2.23,1.81,1.81,0,0,1-1.14-.8,1.72,1.72,0,0,1-.21-1.33,1.67,1.67,0,0,1,.77-1l2.33-1.33.21.37c.07.13.15.26.23.39L79,184.25a.74.74,0,0,0-.24,1,.78.78,0,0,0,1.06.25l2.12-1.34.48.74Zm3.78,5.32a1.55,1.55,0,0,1-1.2.33,1.75,1.75,0,0,1-1.17-.68,1.81,1.81,0,0,1-.32-1.36,1.54,1.54,0,0,1,.66-1l2.21-1.54.52.72-2,1.48a.76.76,0,0,0-.16,1.07.75.75,0,0,0,1.06.16l2-1.52.25.32.29.38Zm4.22,5a1.67,1.67,0,0,1-1.22.44,1.64,1.64,0,0,1-1.17-.6,1.77,1.77,0,0,1-.45-1.32,1.56,1.56,0,0,1,.57-1.07L88,192.46l.58.67-1.9,1.64a.75.75,0,0,0-.07,1.07.73.73,0,0,0,1.06.08l1.87-1.68.6.66Zm4.61,4.62a1.61,1.61,0,0,1-1.12.53,1.72,1.72,0,0,1-1.28-.51,1.67,1.67,0,0,1-.55-1.22,1.6,1.6,0,0,1,.49-1.17l1.91-1.87.64.61-1.76,1.8a.75.75,0,0,0,0,1.07h0a.76.76,0,0,0,1.07,0l1.73-1.83.63.61h0Zm5,4.2a1.55,1.55,0,0,1-1,.61,1.76,1.76,0,0,1-1.35-.38,1.67,1.67,0,0,1-.63-1.16,1.6,1.6,0,0,1,.38-1.23l1.75-2,.68.58-1.61,1.94a.74.74,0,0,0,.13,1.06h0a.76.76,0,0,0,1.07-.12l1.56-2,.7.55Zm5.33,3.76a1.59,1.59,0,0,1-1,.71,1.75,1.75,0,0,1-1.34-.25,1.82,1.82,0,0,1-.76-1.18,1.56,1.56,0,0,1,.29-1.2l1.57-2.17.72.51-1.43,2.06a.79.79,0,0,0,.2,1.07.77.77,0,0,0,1.07-.21l1.39-2.1.74.48Zm5.63,3.3a1.65,1.65,0,0,1-2.31.65,1.76,1.76,0,0,1-.85-1.1,1.55,1.55,0,0,1,.17-1.21l1.4-2.31.76.44-1.25,2.18a.77.77,0,0,0,.3,1,.74.74,0,0,0,1-.28l1.2-2.2c.26.14.53.29.78.41Zm5.88,2.82a1.54,1.54,0,0,1-.89.88,1.68,1.68,0,0,1-1.35-.06,1.73,1.73,0,0,1-.93-.95,1.59,1.59,0,0,1,.07-1.28l1.18-2.4.8.36-1.06,2.28a.76.76,0,0,0,1.39.63l1-2.3.8.36Zm6.11,2.3a1.58,1.58,0,0,1-.79.93,1.82,1.82,0,0,1-1.4.08,1.65,1.65,0,0,1-1-.87,1.61,1.61,0,0,1,0-1.29l1-2.5.82.32-.86,2.36a.75.75,0,0,0,.47,1,.77.77,0,0,0,1-.47l.81-2.38.84.29Zm6.28,1.76a1.59,1.59,0,0,1-.72,1,1.76,1.76,0,0,1-1.34.21,1.79,1.79,0,0,1-1.11-.86,1.58,1.58,0,0,1-.13-1.22l.76-2.58.85.24-.66,2.42a.77.77,0,0,0,.55.94.76.76,0,0,0,.93-.55l.61-2.44.86.2Zm6.41,1.22a1.63,1.63,0,0,1-.66,1.1,1.66,1.66,0,0,1-1.3.28,1.77,1.77,0,0,1-1.17-.74,1.58,1.58,0,0,1-.24-1.19l.54-2.65.87.15-.44,2.48a.76.76,0,0,0,1.5.27l.39-2.48.88.13Zm6.49.7a1.54,1.54,0,0,1-.53,1.09,1.77,1.77,0,0,1-1.33.43,1.65,1.65,0,0,1-1.54-1.83l.31-2.65.88.08-.24,2.5a.75.75,0,0,0,.7.81.76.76,0,0,0,.82-.69l.19-2.51.88.07Zm6.09,1.26a1.72,1.72,0,0,1-2.54,0,1.58,1.58,0,0,1-.44-1.16l.09-2.68.88,0,0,2.51a.77.77,0,1,0,1.53,0l0-2.51.89,0,.08,2.69A1.61,1.61,0,0,1,146,222.67Zm6.58-.33a1.69,1.69,0,0,1-1.19.59,1.76,1.76,0,0,1-1.32-.43,1.54,1.54,0,0,1-.53-1.09l-.14-2.7.88-.07.19,2.51a.76.76,0,0,0,.82.69.74.74,0,0,0,.7-.81l-.23-2.5.87-.08.31,2.66A1.63,1.63,0,0,1,152.54,222.34Zm6.58-1a1.77,1.77,0,0,1-1.18.74,1.63,1.63,0,0,1-1.95-1.38l-.36-2.65.87-.13.4,2.48a.74.74,0,0,0,.87.61.77.77,0,0,0,.63-.88l-.45-2.48.87-.15.54,2.65A1.54,1.54,0,0,1,159.12,221.35Zm6.45-1.5a1.79,1.79,0,0,1-1.08.86,1.81,1.81,0,0,1-1.37-.21,1.62,1.62,0,0,1-.72-1l-.59-2.62.86-.2.61,2.44a.76.76,0,0,0,.93.55.77.77,0,0,0,.54-.94l-.66-2.42.85-.24.77,2.58A1.58,1.58,0,0,1,165.57,219.85Zm6.28-2a1.61,1.61,0,0,1-1,.87,1.81,1.81,0,0,1-1.39-.08,1.61,1.61,0,0,1-.79-.93l-.81-2.57.83-.29.82,2.38a.76.76,0,0,0,1,.47.75.75,0,0,0,.47-1l-.86-2.36.82-.32,1,2.5A1.65,1.65,0,0,1,171.85,217.87Zm6.12-2.58a1.82,1.82,0,0,1-.94,1,1.72,1.72,0,0,1-1.35.05,1.57,1.57,0,0,1-.89-.88l-1-2.48.81-.36,1,2.3a.76.76,0,0,0,1,.37h0a.74.74,0,0,0,.38-1L175.91,212l.81-.36,1.18,2.4A1.61,1.61,0,0,1,178,215.29Zm5.87-3.13a1.76,1.76,0,0,1-.87,1.1,1.64,1.64,0,0,1-1.28.17,1.66,1.66,0,0,1-1-.82l-1.23-2.38c.23-.11.49-.26.78-.42l1.21,2.21a.74.74,0,0,0,1,.28.76.76,0,0,0,.29-1l-1.25-2.18.77-.44,1.39,2.32A1.57,1.57,0,0,1,183.84,212.16Zm5.57-3.57a1.73,1.73,0,0,1-2.1,1.43,1.64,1.64,0,0,1-1-.71L184.86,207l.75-.48,1.39,2.1a.76.76,0,0,0,1.06.21.77.77,0,0,0,.2-1.07l-1.43-2.06.72-.51,1.58,2.18A1.56,1.56,0,0,1,189.41,208.59Zm4.62-2.81a1.74,1.74,0,0,1-1.34.38,1.55,1.55,0,0,1-1.06-.61L190,203.4l.69-.55,1.56,2a.77.77,0,0,0,1.08.12.74.74,0,0,0,.12-1.06l-1.6-1.94.67-.58,1.75,2a1.61,1.61,0,0,1,.39,1.22A1.68,1.68,0,0,1,194,205.78Zm5-4.4a1.8,1.8,0,0,1-1.28.5,1.6,1.6,0,0,1-1.12-.54l-1.79-2,.64-.61,1.72,1.83a.76.76,0,0,0,1.07,0h0a.75.75,0,0,0,0-1.07l-1.76-1.8.64-.61,1.92,1.87a1.55,1.55,0,0,1,.48,1.17A1.71,1.71,0,0,1,199,201.38Zm4.6-4.8a1.67,1.67,0,0,1-1.17.59,1.7,1.7,0,0,1-1.22-.44l-1.94-1.83.59-.66,1.87,1.68a.73.73,0,0,0,1.06-.08.76.76,0,0,0-.06-1.07l-1.91-1.64.58-.67,2.09,1.72a1.51,1.51,0,0,1,.56,1.07A1.76,1.76,0,0,1,203.62,196.58Zm4.52-6.54a1.77,1.77,0,0,1-.31,1.35,1.74,1.74,0,0,1-1.17.69,1.57,1.57,0,0,1-1.21-.33l-2.11-1.67.3-.38.25-.32,2,1.52a.76.76,0,0,0,1.07-.16.77.77,0,0,0-.17-1.07l-2-1.48.51-.72,2.22,1.54A1.53,1.53,0,0,1,208.14,190Zm3.64-5.51a1.68,1.68,0,0,1-.21,1.33,1.79,1.79,0,0,1-1.14.8,1.54,1.54,0,0,1-1.2-.23L207,184.94l.48-.74,2.13,1.34a.77.77,0,0,0,1-.25.74.74,0,0,0-.24-1l-2.15-1.3.22-.39.22-.37,2.33,1.33A1.62,1.62,0,0,1,211.78,184.53Zm3.15-5.82a1.67,1.67,0,0,1-.11,1.33,1.79,1.79,0,0,1-1.06.91,1.56,1.56,0,0,1-1.21-.14l-2.36-1.29.4-.78,2.23,1.15a.76.76,0,0,0,1-.34.75.75,0,0,0-.32-1l-2.26-1.11c.15-.28.28-.56.39-.79l2.43,1.13A1.6,1.6,0,0,1,214.93,178.71Zm2.61-6.12a1.75,1.75,0,0,1,0,1.4,1.7,1.7,0,0,1-.91.95,1.61,1.61,0,0,1-1.29,0l-2.45-1.07c.1-.24.22-.52.34-.82l2.32,1a.74.74,0,0,0,1-.43.75.75,0,0,0-.42-1l-2.34-.91.32-.82,2.54.92A1.55,1.55,0,0,1,217.54,172.59Zm2.1-6.28a1.79,1.79,0,0,1,.16,1.38,1.72,1.72,0,0,1-.88,1,1.56,1.56,0,0,1-1.25.09l-2.54-.87c0-.13.09-.29.15-.45s.09-.25.13-.38l2.4.76a.74.74,0,0,0,.94-.51.76.76,0,0,0-.51-1l-2.41-.72.24-.84,2.6.7A1.55,1.55,0,0,1,219.64,166.31Zm1.6-6.39a1.66,1.66,0,0,1,.23,1.3,1.75,1.75,0,0,1-.81,1.14,1.54,1.54,0,0,1-1.2.19l-2.62-.65.2-.86,2.45.55a.76.76,0,0,0,.91-.59.73.73,0,0,0-.57-.9l-2.47-.5c.06-.29.11-.57.15-.81v-.06l2.65.48A1.6,1.6,0,0,1,221.24,159.92Zm1-6.58a1.75,1.75,0,0,1,.35,1.32,1.74,1.74,0,0,1-.67,1.19,1.58,1.58,0,0,1-1.21.29l-2.65-.42.11-.88,2.49.34a.76.76,0,1,0,.19-1.51l-2.49-.29.11-.88,2.67.26A1.52,1.52,0,0,1,222.23,153.34Z"/><path class="cls-1" d="M120.19,47.32c.42-.1-2.36-8.33,4.45-16.66a2.44,2.44,0,0,0,0-3,2.36,2.36,0,0,0-2.26-.5,3.53,3.53,0,0,0-1.89,2c-2.76,5.29-1.75,14.43-1,17.19C119.57,46.62,119.84,47.4,120.19,47.32Z"/><path class="cls-1" d="M123.28,34.15c-2.47,3.11-3,9.19-2.82,11.08,0,.17.09.72.33.71s-.49-5.73,5-10.3a1.63,1.63,0,0,0,.39-2,1.58,1.58,0,0,0-1.41-.61A2.38,2.38,0,0,0,123.28,34.15Z"/><path class="cls-1" d="M123.73,39.43a8.11,8.11,0,0,0-2.54,6c.58-2.52,2.82-3.65,3.81-4.62C126.13,39.73,124.84,38.39,123.73,39.43Z"/><path class="cls-1" d="M118.84,49.37a.3.3,0,0,0,.34.15c.14,0,.2-.13.22-.3,0-.33-3.3-20.74-3.44-21.73a3.64,3.64,0,0,0-1.53-2.77,2.46,2.46,0,0,0-3.53,1,3.62,3.62,0,0,0,.06,3.16C111.33,29.76,118.63,49.11,118.84,49.37Z"/><path class="cls-1" d="M105,35.91c10.06,3.81,11.76,12.33,12.18,12.21s.18-.92.12-1.17c-.74-2.76-4.43-11.18-9.47-14.38a3.46,3.46,0,0,0-2.64-.79,2.33,2.33,0,0,0-1.7,1.56A2.4,2.4,0,0,0,105,35.91Z"/><path class="cls-1" d="M108,38.26a2.33,2.33,0,0,0-1.82-.18,1.57,1.57,0,0,0-.92,1.23,1.62,1.62,0,0,0,1.31,1.49c7,1.21,9.23,6.55,9.48,6.42s0-.62-.07-.77C115.1,44.74,111.64,39.72,108,38.26Z"/><path class="cls-1" d="M110.2,43.06c-1.48-.35-1.93,1.46-.39,1.86,1.34.35,3.85.21,5.61,2.09A8.11,8.11,0,0,0,110.2,43.06Z"/><path class="cls-1" d="M103.41,45.4a.41.41,0,0,0,.29.32c.13,0,12.41,3.7,16.59,9.38a.39.39,0,0,0,.33.17l.1,0a.4.4,0,0,0,.31-.35c.77-7,9.58-16.32,9.67-16.41a.43.43,0,0,0,.09-.42,20.23,20.23,0,0,1-.79-5.59c-.17-3.32-.35-6.75-2.88-8.73-1.93-1.51-5.61-2.53-9.17-3.53-3.14-.87-6.69-1.87-7-2.85a.4.4,0,0,0-.5-.28.43.43,0,0,0-.31.4s0,.06,0,.1h0c.23,1-2.33,3.61-4.6,5.93-2.59,2.64-5.26,5.37-6.18,7.64-1.2,3,.36,6,1.87,9A19.73,19.73,0,0,1,103.41,45.4ZM100.2,31.48c.85-2.12,3.58-4.91,6-7.38s4.15-4.29,4.67-5.61c1.12.88,3.5,1.59,6.86,2.52s7.08,2,8.88,3.39c2.24,1.75,2.4,4.84,2.56,8.12a21.86,21.86,0,0,0,.76,5.58c-1.23,1.33-8.28,9.14-9.58,15.77-4.43-5.09-14.45-8.33-16.18-8.86A21.82,21.82,0,0,0,102,39.79C100.54,36.87,99.13,34.11,100.2,31.48Z"/><path class="cls-1" d="M73.72,72.13c.18.18.8.73,1.07.48s-6.22-6-4.48-16.65a2.44,2.44,0,0,0-1.48-2.6,2.35,2.35,0,0,0-2.2.7A3.47,3.47,0,0,0,66,56.74C66.25,62.71,71.7,70.11,73.72,72.13Z"/><path class="cls-1" d="M74.61,71.12c.25-.16-3.29-4.72-.81-11.42a1.62,1.62,0,0,0-.64-1.88,1.56,1.56,0,0,0-1.52.17,2.33,2.33,0,0,0-.76,1.67c-.58,3.93,2,9.44,3.1,11C74.07,70.81,74.41,71.25,74.61,71.12Z"/><path class="cls-1" d="M74.72,70.51c-.74-2.47.63-4.57,1-5.9.42-1.54-1.37-2.06-1.81-.6A8.13,8.13,0,0,0,74.72,70.51Z"/><path class="cls-1" d="M57.54,61.21c.79.62,16.8,13.73,17.1,13.86a.31.31,0,0,0,.42-.42c-.12-.31-13.23-16.31-13.85-17.1a3.66,3.66,0,0,0-2.71-1.63,2.3,2.3,0,0,0-1.87.72,2.33,2.33,0,0,0-.71,1.87A3.58,3.58,0,0,0,57.54,61.21Z"/><path class="cls-1" d="M56,70.32c10.62-1.74,16.36,4.79,16.66,4.48s-.3-.89-.48-1.07c-2-2-9.43-7.47-15.4-7.73a3.49,3.49,0,0,0-2.68.64,2.32,2.32,0,0,0-.69,2.2A2.42,2.42,0,0,0,56,70.32Z"/><path class="cls-1" d="M70.66,74c-1.57-1.06-7.08-3.68-11-3.09a2.29,2.29,0,0,0-1.67.75,1.58,1.58,0,0,0-.18,1.53,1.61,1.61,0,0,0,1.88.63c6.7-2.47,11.27,1.06,11.42.82S70.81,74.08,70.66,74Z"/><path class="cls-1" d="M64,73.92c-1.46.44-1,2.23.59,1.8,1.33-.36,3.43-1.74,5.9-1A8.11,8.11,0,0,0,64,73.92Z"/><path class="cls-1" d="M54.86,75.86a20.2,20.2,0,0,1,4.44,3.48.43.43,0,0,0,.32.14h.09c.13,0,12.6-3,19.05-.17a.41.41,0,0,0,.54-.54c-2.83-6.45.14-18.92.17-19.05a.4.4,0,0,0-.13-.41,20.2,20.2,0,0,1-3.48-4.44c-1.81-2.79-3.67-5.67-6.85-6.12-2.43-.34-6.13.61-9.71,1.53-3.15.8-6.73,1.72-7.45,1h0a.41.41,0,0,0-.69.3.44.44,0,0,0,.12.3c.72.71-.2,4.29-1,7.44-.92,3.58-1.87,7.28-1.53,9.71C49.19,72.19,52.07,74.05,54.86,75.86ZM51.06,59.5c.87-3.37,1.45-5.79,1.25-7.19,1.4.2,3.82-.38,7.19-1.25s7.13-1.83,9.39-1.51c2.81.4,4.5,3,6.28,5.75a21.87,21.87,0,0,0,3.45,4.46c-.41,1.77-2.61,12.06-.41,18.45-6.39-2.2-16.68,0-18.45.41a21.87,21.87,0,0,0-4.46-3.45c-2.75-1.78-5.35-3.47-5.75-6.28C49.23,66.63,50.2,62.84,51.06,59.5Z"/><path class="cls-1" d="M47,117.34c.25.06,1.06.23,1.17-.12S39.72,115.1,35.91,105a2.43,2.43,0,0,0-2.58-1.5,2.32,2.32,0,0,0-1.56,1.7,3.55,3.55,0,0,0,.79,2.64C35.77,112.91,44.19,116.6,47,117.34Z"/><path class="cls-1" d="M46.44,115.94c.16.08.67.28.78.07s-5.21-2.44-6.42-9.48a1.62,1.62,0,0,0-1.49-1.31,1.56,1.56,0,0,0-1.23.91,2.32,2.32,0,0,0,.18,1.82C39.71,111.65,44.73,115.11,46.44,115.94Z"/><path class="cls-1" d="M47,115.43c-1.88-1.76-1.74-4.27-2.09-5.61-.4-1.54-2.21-1.1-1.86.39A8.11,8.11,0,0,0,47,115.43Z"/><path class="cls-1" d="M27.48,116c1,.14,21.41,3.49,21.74,3.44a.3.3,0,0,0,.15-.56c-.26-.21-19.62-7.51-20.55-7.88a3.6,3.6,0,0,0-3.15-.06,2.46,2.46,0,0,0-1,3.53A3.62,3.62,0,0,0,27.48,116Z"/><path class="cls-1" d="M46.37,119.51c-2.77-.74-11.9-1.75-17.2,1a3.51,3.51,0,0,0-2,1.89,2.36,2.36,0,0,0,.5,2.26,2.44,2.44,0,0,0,3,0c8.32-6.82,16.56-4,16.66-4.45S46.61,119.58,46.37,119.51Z"/><path class="cls-1" d="M45.23,120.47c-1.89-.14-8,.35-11.08,2.82a2.32,2.32,0,0,0-1.07,1.49,1.58,1.58,0,0,0,.61,1.41,1.64,1.64,0,0,0,2-.39c4.57-5.5,10.28-4.72,10.3-5S45.4,120.48,45.23,120.47Z"/><path class="cls-1" d="M40.85,125c1-1,2.1-3.23,4.61-3.82a8.14,8.14,0,0,0-6,2.55C38.39,124.85,39.73,126.14,40.85,125Z"/><path class="cls-1" d="M20.22,118c1,3.56,2,7.24,3.53,9.17,2,2.53,5.41,2.71,8.73,2.88a20.23,20.23,0,0,1,5.59.79l.14,0a.43.43,0,0,0,.28-.11c.09-.09,9.41-8.9,16.41-9.67a.4.4,0,0,0,.35-.31.38.38,0,0,0-.15-.43c-5.68-4.18-9.34-16.46-9.38-16.59a.41.41,0,0,0-.32-.29,19.73,19.73,0,0,1-5.23-2.11c-3-1.51-6-3.07-9-1.87-2.27.92-5,3.59-7.64,6.18-2.33,2.28-5,4.85-5.94,4.59a.41.41,0,0,0-.5.3.34.34,0,0,0,0,.1.43.43,0,0,0,.29.4h0C18.36,111.29,19.35,114.83,20.22,118ZM24.1,106.2c2.47-2.42,5.26-5.15,7.38-6,2.63-1.06,5.39.34,8.31,1.84A22.28,22.28,0,0,0,45,104.18c.53,1.72,3.77,11.74,8.86,16.17-6.63,1.3-14.44,8.35-15.77,9.58a21.42,21.42,0,0,0-5.58-.75c-3.28-.17-6.37-.33-8.12-2.57-1.41-1.8-2.46-5.56-3.39-8.88s-1.64-5.74-2.52-6.86C19.81,110.35,21.61,108.64,24.1,106.2Z"/><path class="cls-1" d="M29.18,168.86c5.29,2.77,14.43,1.75,17.19,1,.25-.07,1-.33,1-.69s-8.33,2.37-16.66-4.45a2.44,2.44,0,0,0-3,0,2.34,2.34,0,0,0-.5,2.25A3.5,3.5,0,0,0,29.18,168.86Z"/><path class="cls-1" d="M34.15,166.09c3.11,2.47,9.19,3,11.08,2.82.17,0,.72-.08.71-.32s-5.73.49-10.3-5a1.62,1.62,0,0,0-2-.39,1.57,1.57,0,0,0-.61,1.41A2.36,2.36,0,0,0,34.15,166.09Z"/><path class="cls-1" d="M45.47,168.19c-2.52-.59-3.65-2.83-4.62-3.81-1.12-1.14-2.46.15-1.42,1.26A8.12,8.12,0,0,0,45.47,168.19Z"/><path class="cls-1" d="M49.52,170.19c0-.13-.13-.2-.3-.22-.33-.05-20.74,3.3-21.73,3.44a3.67,3.67,0,0,0-2.77,1.53,2.29,2.29,0,0,0-.31,2,2.32,2.32,0,0,0,1.26,1.56,3.65,3.65,0,0,0,3.16-.06c.93-.37,20.28-7.68,20.54-7.89A.3.3,0,0,0,49.52,170.19Z"/><path class="cls-1" d="M47,172c-2.76.75-11.18,4.43-14.38,9.48a3.44,3.44,0,0,0-.79,2.63,2.35,2.35,0,0,0,1.56,1.71,2.42,2.42,0,0,0,2.57-1.51c3.81-10.07,12.33-11.77,12.21-12.18S47.2,172,47,172Z"/><path class="cls-1" d="M46.45,173.44c-1.71.83-6.73,4.3-8.19,8a2.32,2.32,0,0,0-.18,1.82,1.54,1.54,0,0,0,1.23.91,1.61,1.61,0,0,0,1.49-1.31c1.21-7,6.55-9.22,6.42-9.48S46.6,173.37,46.45,173.44Z"/><path class="cls-1" d="M43.06,179.17c-.35,1.49,1.46,1.93,1.86.39.35-1.33.21-3.84,2.09-5.61A8.11,8.11,0,0,0,43.06,179.17Z"/><path class="cls-1" d="M33.41,190.37c2.26,0,4.54-1.17,6.76-2.3A20.07,20.07,0,0,1,45.4,186a.41.41,0,0,0,.32-.29c0-.12,3.7-12.41,9.38-16.58a.4.4,0,0,0,.15-.44.41.41,0,0,0-.35-.3c-7-.78-16.32-9.58-16.41-9.67a.39.39,0,0,0-.42-.09,20.62,20.62,0,0,1-5.59.79c-3.32.17-6.75.34-8.73,2.87-1.51,1.93-2.53,5.61-3.53,9.17-.87,3.14-1.87,6.69-2.85,7h0a.41.41,0,0,0-.3.39.41.41,0,0,0,0,.11.42.42,0,0,0,.51.29c1-.27,3.61,2.32,5.94,4.59,2.64,2.59,5.37,5.27,7.64,6.18A5.9,5.9,0,0,0,33.41,190.37ZM18.49,178.5c.88-1.11,1.59-3.5,2.52-6.85s2-7.09,3.39-8.89c1.75-2.23,4.84-2.39,8.12-2.56a21.86,21.86,0,0,0,5.58-.76c1.33,1.24,9.14,8.29,15.77,9.58-5.09,4.44-8.33,14.45-8.86,16.18a22.28,22.28,0,0,0-5.22,2.14c-2.92,1.49-5.68,2.9-8.31,1.84-2.12-.86-4.91-3.59-7.38-6S19.81,179,18.49,178.5Z"/><path class="cls-1" d="M56.74,223.38c6-.26,13.37-5.7,15.39-7.73.18-.18.73-.8.48-1.07s-6,6.22-16.65,4.48a2.45,2.45,0,0,0-2.6,1.48,2.35,2.35,0,0,0,.7,2.2A3.48,3.48,0,0,0,56.74,223.38Z"/><path class="cls-1" d="M59.66,218.49c3.93.59,9.44-2,11-3.09.14-.1.58-.44.45-.64s-4.72,3.29-11.42.82a1.62,1.62,0,0,0-1.88.63,1.58,1.58,0,0,0,.17,1.53A2.33,2.33,0,0,0,59.66,218.49Z"/><path class="cls-1" d="M64,215.46a8.13,8.13,0,0,0,6.5-.81c-2.47.75-4.57-.63-5.9-1C63.07,213.23,62.55,215,64,215.46Z"/><path class="cls-1" d="M75,214.36a.29.29,0,0,0-.37,0c-.31.12-16.31,13.23-17.1,13.85a3.62,3.62,0,0,0-1.63,2.7,2.47,2.47,0,0,0,2.59,2.59,3.62,3.62,0,0,0,2.7-1.63c.62-.79,13.73-16.79,13.86-17.1A.31.31,0,0,0,75,214.36Z"/><path class="cls-1" d="M74.8,216.77c-.27-.25-.89.3-1.07.48-2,2-7.47,9.42-7.73,15.39a3.48,3.48,0,0,0,.64,2.68,2.35,2.35,0,0,0,2.2.7,2.43,2.43,0,0,0,1.48-2.6C68.58,222.8,75.11,217.07,74.8,216.77Z"/><path class="cls-1" d="M74.62,218.26c-.2-.13-.54.31-.64.45-1.06,1.57-3.68,7.08-3.09,11a2.33,2.33,0,0,0,.75,1.67,1.58,1.58,0,0,0,1.53.17,1.61,1.61,0,0,0,.63-1.88C71.33,223,74.86,218.42,74.62,218.26Z"/><path class="cls-1" d="M75.72,224.77c-.36-1.33-1.74-3.43-1-5.9a8.13,8.13,0,0,0-.81,6.5C74.36,226.83,76.15,226.31,75.72,224.77Z"/><path class="cls-1" d="M75.86,234.52a20.27,20.27,0,0,1,3.48-4.45.4.4,0,0,0,.13-.41c0-.12-3-12.6-.17-19a.4.4,0,0,0-.08-.45.41.41,0,0,0-.46-.09c-6.45,2.83-18.92-.14-19.05-.17a.42.42,0,0,0-.41.13,19.91,19.91,0,0,1-4.44,3.48c-2.79,1.81-5.67,3.68-6.12,6.86-.34,2.42.61,6.12,1.53,9.71.8,3.15,1.72,6.72,1,7.44h0a.42.42,0,0,0-.12.29.37.37,0,0,0,.13.29.4.4,0,0,0,.57,0c.72-.72,4.3.2,7.45,1a39.27,39.27,0,0,0,8.59,1.6,9.75,9.75,0,0,0,1.12-.07C72.19,240.19,74.05,237.3,75.86,234.52Zm-7,5.3c-2.26.32-6-.65-9.39-1.51A31.69,31.69,0,0,0,52.94,237a4.09,4.09,0,0,0-.63,0c.2-1.41-.38-3.82-1.25-7.2s-1.83-7.13-1.51-9.39c.4-2.81,3-4.49,5.75-6.28a21.83,21.83,0,0,0,4.46-3.44c1.77.4,12.06,2.6,18.45.41-2.2,6.39,0,16.68.41,18.44a21.87,21.87,0,0,0-3.45,4.46C73.39,236.82,71.7,239.42,68.89,239.82Z"/><path class="cls-1" d="M117.22,241.26c-.42-.13-2.12,8.4-12.19,12.2a2.43,2.43,0,0,0-1.5,2.58,2.32,2.32,0,0,0,1.7,1.56,3.51,3.51,0,0,0,2.64-.79c5-3.21,8.73-11.62,9.47-14.39C117.4,242.18,117.57,241.36,117.22,241.26Z"/><path class="cls-1" d="M106.13,251.3a2.32,2.32,0,0,0,1.82-.19c3.7-1.45,7.16-6.47,8-8.18.08-.15.28-.66.07-.77s-2.44,5.2-9.48,6.41a1.41,1.41,0,0,0-.4,2.73Z"/><path class="cls-1" d="M110.21,246.32a8.12,8.12,0,0,0,5.22-4c-1.76,1.89-4.27,1.75-5.61,2.1C108.28,244.86,108.72,246.67,110.21,246.32Z"/><path class="cls-1" d="M119.19,239.86a.3.3,0,0,0-.34.14c-.21.26-7.52,19.62-7.89,20.55a3.63,3.63,0,0,0,0,3.15,2.3,2.3,0,0,0,1.55,1.27,2.33,2.33,0,0,0,2-.32,3.6,3.6,0,0,0,1.53-2.76c.14-1,3.49-21.41,3.44-21.73C119.39,240,119.32,239.89,119.19,239.86Z"/><path class="cls-1" d="M120.2,242.06c-.35-.09-.62.7-.69.95-.74,2.76-1.75,11.89,1,17.19a3.51,3.51,0,0,0,1.89,2,2.34,2.34,0,0,0,2.26-.5,2.42,2.42,0,0,0,0-3C117.83,250.39,120.62,242.16,120.2,242.06Z"/><path class="cls-1" d="M124.78,256.29a1.55,1.55,0,0,0,1.41-.61,1.62,1.62,0,0,0-.39-1.94c-5.5-4.57-4.72-10.29-5-10.3s-.32.53-.33.7c-.14,1.9.35,8,2.82,11.08A2.28,2.28,0,0,0,124.78,256.29Z"/><path class="cls-1" d="M125,248.52c-1-1-3.23-2.1-3.82-4.61a8.14,8.14,0,0,0,2.55,6C124.85,251,126.14,249.64,125,248.52Z"/><path class="cls-1" d="M130.79,251.31a.45.45,0,0,0-.09-.43c-.09-.09-8.9-9.41-9.67-16.41a.4.4,0,0,0-.31-.35.4.4,0,0,0-.43.15c-4.18,5.68-16.46,9.34-16.59,9.38a.43.43,0,0,0-.29.32,19.92,19.92,0,0,1-2.11,5.24c-1.51,2.95-3.07,6-1.87,9,.92,2.27,3.59,5,6.18,7.65,2.28,2.32,4.86,5,4.59,5.94a.34.34,0,0,0,0,.1.41.41,0,0,0,.3.39l.11,0a.43.43,0,0,0,.4-.3h0c.3-1,3.83-2,7-2.83,3.56-1,7.24-2,9.17-3.53,2.53-2,2.71-5.41,2.88-8.72A20.12,20.12,0,0,1,130.79,251.31Zm-1.62,5.54c-.16,3.28-.32,6.37-2.56,8.12-1.8,1.41-5.56,2.46-8.88,3.39s-5.74,1.64-6.86,2.52c-.52-1.32-2.23-3.12-4.67-5.61s-5.15-5.26-6-7.38c-1.07-2.63.34-5.39,1.84-8.31a21.59,21.59,0,0,0,2.13-5.21c1.73-.53,11.75-3.77,16.18-8.87,1.3,6.63,8.35,14.44,9.58,15.77A21.92,21.92,0,0,0,129.17,256.85Z"/><path class="cls-1" d="M169.18,242.05c-.42.1,2.37,8.34-4.45,16.66a2.44,2.44,0,0,0,0,3,2.34,2.34,0,0,0,2.25.5,3.48,3.48,0,0,0,1.89-2c2.77-5.3,1.75-14.43,1-17.2C169.8,242.76,169.54,242,169.18,242.05Z"/><path class="cls-1" d="M166.09,255.22c2.47-3.1,3-9.18,2.82-11.08,0-.17-.08-.72-.32-.71s.49,5.74-5,10.3a1.62,1.62,0,0,0-.39,2,1.57,1.57,0,0,0,1.41.61A2.32,2.32,0,0,0,166.09,255.22Z"/><path class="cls-1" d="M165.64,249.94a8.1,8.1,0,0,0,2.55-6c-.59,2.51-2.83,3.64-3.81,4.61C163.24,249.64,164.53,251,165.64,249.94Z"/><path class="cls-1" d="M170.53,240a.3.3,0,0,0-.56.15c-.05.33,3.3,20.75,3.44,21.74a3.63,3.63,0,0,0,1.53,2.76,2.45,2.45,0,0,0,3.54-.95,3.63,3.63,0,0,0-.06-3.15C178.05,259.62,170.74,240.26,170.53,240Z"/><path class="cls-1" d="M184.35,253.46c-10.07-3.81-11.77-12.33-12.18-12.21s-.19.92-.13,1.17c.75,2.76,4.43,11.18,9.48,14.39a3.52,3.52,0,0,0,2.63.79,2.35,2.35,0,0,0,1.71-1.56A2.44,2.44,0,0,0,184.35,253.46Z"/><path class="cls-1" d="M181.43,251.11a2.32,2.32,0,0,0,1.82.18,1.52,1.52,0,0,0,.91-1.23,1.61,1.61,0,0,0-1.31-1.49c-7-1.21-9.22-6.55-9.48-6.42s0,.62.07.78C174.27,244.64,177.74,249.66,181.43,251.11Z"/><path class="cls-1" d="M179.17,246.31c1.49.36,1.93-1.46.39-1.86-1.33-.35-3.84-.2-5.61-2.09A8.11,8.11,0,0,0,179.17,246.31Z"/><path class="cls-1" d="M186,244a.43.43,0,0,0-.29-.32c-.12,0-12.41-3.7-16.58-9.38a.43.43,0,0,0-.44-.15.41.41,0,0,0-.3.35c-.78,7-9.59,16.32-9.67,16.41a.41.41,0,0,0-.09.43,20.5,20.5,0,0,1,.79,5.59c.17,3.31.34,6.74,2.87,8.72,1.93,1.51,5.61,2.54,9.17,3.53,3.14.88,6.69,1.87,7,2.85a.42.42,0,0,0,.4.3l.11,0a.42.42,0,0,0,.3-.4.28.28,0,0,0,0-.09h0c-.26-1,2.32-3.62,4.59-5.94,2.59-2.65,5.27-5.38,6.18-7.65,1.2-3-.36-6-1.87-9A20.27,20.27,0,0,1,186,244Zm3.22,13.92c-.86,2.12-3.59,4.92-6,7.38s-4.16,4.29-4.68,5.61c-1.11-.88-3.5-1.58-6.85-2.52s-7.09-2-8.89-3.39c-2.23-1.75-2.39-4.84-2.56-8.12a21.92,21.92,0,0,0-.76-5.58c1.24-1.33,8.29-9.14,9.58-15.77,4.44,5.1,14.45,8.34,16.18,8.87a21.63,21.63,0,0,0,2.14,5.21C188.83,252.5,190.24,255.26,189.18,257.89Z"/><path class="cls-1" d="M215.65,217.24c-.18-.18-.8-.73-1.07-.48s6.22,6,4.48,16.65a2.44,2.44,0,0,0,1.48,2.6,2.34,2.34,0,0,0,2.2-.69,3.51,3.51,0,0,0,.64-2.69C223.12,226.66,217.68,219.26,215.65,217.24Z"/><path class="cls-1" d="M214.76,218.26c-.24.15,3.29,4.71.82,11.42a1.6,1.6,0,0,0,.63,1.87,1.56,1.56,0,0,0,1.53-.17,2.33,2.33,0,0,0,.75-1.67c.59-3.92-2-9.43-3.09-11C215.3,218.56,215,218.13,214.76,218.26Z"/><path class="cls-1" d="M214.65,218.86c.75,2.47-.63,4.57-1,5.91-.43,1.53,1.36,2,1.8.59A8.13,8.13,0,0,0,214.65,218.86Z"/><path class="cls-1" d="M231.83,228.16c-.79-.62-16.79-13.73-17.1-13.85-.16-.06-.28-.06-.37,0a.3.3,0,0,0,0,.37c.12.31,13.23,16.32,13.85,17.1a3.59,3.59,0,0,0,2.7,1.63,2.3,2.3,0,0,0,1.87-.72,2.27,2.27,0,0,0,.72-1.87A3.64,3.64,0,0,0,231.83,228.16Z"/><path class="cls-1" d="M233.42,219.06c-10.62,1.73-16.35-4.8-16.65-4.48s.3.89.48,1.07c2,2,9.42,7.47,15.39,7.72a3.51,3.51,0,0,0,2.68-.63,2.37,2.37,0,0,0,.7-2.21A2.43,2.43,0,0,0,233.42,219.06Z"/><path class="cls-1" d="M218.71,215.39c1.57,1.06,7.08,3.68,11,3.09a2.33,2.33,0,0,0,1.67-.75,1.56,1.56,0,0,0,.17-1.52,1.62,1.62,0,0,0-1.88-.64c-6.7,2.47-11.26-1.06-11.42-.82S218.57,215.29,218.71,215.39Z"/><path class="cls-1" d="M225.37,215.45c1.46-.43.94-2.22-.6-1.8-1.33.37-3.43,1.74-5.9,1A8.09,8.09,0,0,0,225.37,215.45Z"/><path class="cls-1" d="M234.52,213.51a20,20,0,0,1-4.45-3.48.42.42,0,0,0-.41-.13c-.12,0-12.6,3-19,.17a.41.41,0,0,0-.54.54c2.83,6.45-.14,18.93-.17,19a.42.42,0,0,0,.13.41,20,20,0,0,1,3.48,4.45c1.81,2.78,3.68,5.67,6.86,6.12a9.57,9.57,0,0,0,1.11.07,39.25,39.25,0,0,0,8.6-1.6c3.15-.81,6.72-1.73,7.44-1h0a.41.41,0,0,0,.57,0,.42.42,0,0,0,.12-.29.4.4,0,0,0-.12-.29c-.72-.72.2-4.29,1-7.44.92-3.59,1.87-7.29,1.53-9.71C240.19,217.19,237.3,215.32,234.52,213.51Zm3.79,16.36c-.87,3.38-1.45,5.79-1.24,7.2-1.41-.21-3.82.37-7.2,1.24s-7.12,1.83-9.39,1.51c-2.81-.4-4.49-3-6.28-5.75a21.83,21.83,0,0,0-3.44-4.46c.4-1.76,2.6-12.05.41-18.44,6.39,2.19,16.68,0,18.44-.41a21.83,21.83,0,0,0,4.46,3.44c2.75,1.79,5.35,3.47,5.75,6.28C240.14,222.74,239.17,226.53,238.31,229.87Z"/><path class="cls-1" d="M242.42,172c-.24-.07-1.06-.23-1.16.12s8.4,2.11,12.2,12.18a2.44,2.44,0,0,0,2.58,1.51,2.35,2.35,0,0,0,1.56-1.71,3.48,3.48,0,0,0-.79-2.63C253.6,176.46,245.19,172.78,242.42,172Z"/><path class="cls-1" d="M242.93,173.43c-.15-.07-.66-.28-.77-.07s5.2,2.44,6.41,9.48a1.61,1.61,0,0,0,1.49,1.31,1.55,1.55,0,0,0,1.24-.91,2.32,2.32,0,0,0-.19-1.82C249.66,177.73,244.64,174.26,242.93,173.43Z"/><path class="cls-1" d="M242.36,173.94c1.89,1.77,1.75,4.28,2.1,5.61.4,1.55,2.21,1.1,1.86-.39A8.15,8.15,0,0,0,242.36,173.94Z"/><path class="cls-1" d="M261.89,173.4c-1-.14-21.41-3.49-21.73-3.44-.17,0-.27.09-.3.22a.29.29,0,0,0,.14.34c.26.21,19.62,7.52,20.55,7.89a3.63,3.63,0,0,0,3.15.06,2.45,2.45,0,0,0,.95-3.54A3.63,3.63,0,0,0,261.89,173.4Z"/><path class="cls-1" d="M243,169.86c2.76.74,11.89,1.76,17.19-1a3.48,3.48,0,0,0,2-1.89,2.31,2.31,0,0,0-.5-2.25,2.41,2.41,0,0,0-3,0c-8.33,6.81-16.56,4-16.66,4.44S242.76,169.79,243,169.86Z"/><path class="cls-1" d="M244.14,168.91c1.9.13,8-.36,11.08-2.83a2.29,2.29,0,0,0,1.07-1.48,1.54,1.54,0,0,0-.61-1.41,1.61,1.61,0,0,0-1.94.39c-4.57,5.49-10.29,4.71-10.3,5S244,168.89,244.14,168.91Z"/><path class="cls-1" d="M248.52,164.37c-1,1-2.1,3.22-4.61,3.81a8.1,8.1,0,0,0,6-2.55C251,164.52,249.64,163.23,248.52,164.37Z"/><path class="cls-1" d="M269.15,171.42c-1-3.56-2-7.24-3.53-9.17-2-2.53-5.41-2.7-8.72-2.87a20.5,20.5,0,0,1-5.59-.79.41.41,0,0,0-.43.09c-.09.09-9.4,8.89-16.41,9.67a.41.41,0,0,0-.35.3.42.42,0,0,0,.15.44c5.68,4.17,9.34,16.46,9.38,16.58a.43.43,0,0,0,.32.29,20.27,20.27,0,0,1,5.24,2.11c2.22,1.13,4.5,2.3,6.76,2.3a5.89,5.89,0,0,0,2.23-.43c2.27-.91,5-3.59,7.65-6.18,2.32-2.27,4.95-4.85,5.94-4.59a.4.4,0,0,0,.49-.29.43.43,0,0,0,0-.11.44.44,0,0,0-.3-.4h0C271,178.07,270,174.54,269.15,171.42Zm-3.88,11.76c-2.46,2.41-5.26,5.14-7.38,6-2.63,1.06-5.39-.35-8.31-1.84a22,22,0,0,0-5.21-2.14c-.53-1.73-3.77-11.74-8.87-16.18,6.63-1.29,14.44-8.34,15.77-9.58a21.92,21.92,0,0,0,5.58.76c3.28.17,6.37.33,8.12,2.56,1.41,1.8,2.46,5.56,3.39,8.89s1.64,5.74,2.52,6.85C269.56,179,267.76,180.74,265.27,183.18Z"/><path class="cls-1" d="M260.2,120.51c-5.3-2.76-14.43-1.75-17.2-1-.24.07-1,.34-.95.69s8.34-2.36,16.66,4.45a2.44,2.44,0,0,0,3,0,2.36,2.36,0,0,0,.5-2.26A3.51,3.51,0,0,0,260.2,120.51Z"/><path class="cls-1" d="M255.22,123.28c-3.1-2.47-9.18-3-11.08-2.82-.17,0-.72.09-.71.33s5.74-.49,10.3,5a1.64,1.64,0,0,0,2,.39,1.58,1.58,0,0,0,.61-1.41A2.34,2.34,0,0,0,255.22,123.28Z"/><path class="cls-1" d="M243.91,121.19c2.51.58,3.64,2.82,4.61,3.81s2.47-.16,1.42-1.27A8.09,8.09,0,0,0,243.91,121.19Z"/><path class="cls-1" d="M239.85,119.18a.31.31,0,0,0,.3.22c.33,0,20.75-3.3,21.74-3.44a3.6,3.6,0,0,0,2.76-1.53,2.33,2.33,0,0,0,.32-2,2.3,2.3,0,0,0-1.27-1.55,3.6,3.6,0,0,0-3.15.06c-.93.37-20.29,7.67-20.55,7.88A.32.32,0,0,0,239.85,119.18Z"/><path class="cls-1" d="M242.42,117.33c2.76-.74,11.18-4.43,14.39-9.47a3.54,3.54,0,0,0,.79-2.64,2.33,2.33,0,0,0-1.56-1.7,2.42,2.42,0,0,0-2.58,1.51c-3.81,10.06-12.33,11.76-12.21,12.18S242.17,117.39,242.42,117.33Z"/><path class="cls-1" d="M242.93,115.93c1.71-.83,6.73-4.29,8.18-8a2.33,2.33,0,0,0,.18-1.82,1.55,1.55,0,0,0-1.23-.92,1.62,1.62,0,0,0-1.49,1.31c-1.21,7-6.55,9.23-6.42,9.48S242.77,116,242.93,115.93Z"/><path class="cls-1" d="M246.31,110.2c.36-1.48-1.46-1.93-1.86-.39-.35,1.34-.21,3.85-2.09,5.61A8.11,8.11,0,0,0,246.31,110.2Z"/><path class="cls-1" d="M249.21,101.3a19.92,19.92,0,0,1-5.24,2.11.43.43,0,0,0-.32.29c0,.13-3.7,12.41-9.38,16.59a.4.4,0,0,0-.15.43.4.4,0,0,0,.35.31c7,.77,16.32,9.58,16.41,9.67a.44.44,0,0,0,.29.11l.14,0a20.12,20.12,0,0,1,5.59-.79c3.31-.17,6.74-.35,8.72-2.88,1.51-1.93,2.54-5.61,3.53-9.17.88-3.13,1.87-6.69,2.85-7h0a.42.42,0,0,0,.3-.4.43.43,0,0,0,0-.11.41.41,0,0,0-.5-.29c-1,.26-3.62-2.31-5.94-4.59-2.65-2.59-5.38-5.26-7.65-6.18C255.22,98.23,252.16,99.79,249.21,101.3Zm21.67,9.57c-.88,1.12-1.58,3.5-2.52,6.86s-2,7.08-3.39,8.88c-1.75,2.24-4.84,2.4-8.12,2.57a21.48,21.48,0,0,0-5.58.75c-1.33-1.23-9.14-8.28-15.77-9.58,5.1-4.43,8.34-14.45,8.87-16.17a22,22,0,0,0,5.21-2.14c2.92-1.5,5.68-2.9,8.31-1.84,2.12.85,4.92,3.58,7.38,6S269.56,110.35,270.88,110.87Z"/><path class="cls-1" d="M232.63,66c-6,.25-13.37,5.7-15.39,7.72-.18.18-.73.8-.48,1.07s6-6.22,16.65-4.48a2.43,2.43,0,0,0,2.6-1.48,2.34,2.34,0,0,0-.69-2.2A3.51,3.51,0,0,0,232.63,66Z"/><path class="cls-1" d="M229.71,70.88c-3.92-.58-9.43,2-11,3.1-.14.09-.57.43-.44.63s4.71-3.29,11.42-.81a1.61,1.61,0,0,0,1.87-.64,1.53,1.53,0,0,0-.17-1.52A2.33,2.33,0,0,0,229.71,70.88Z"/><path class="cls-1" d="M225.36,73.91a8.13,8.13,0,0,0-6.5.81c2.47-.74,4.57.63,5.91,1C226.3,76.14,226.82,74.35,225.36,73.91Z"/><path class="cls-1" d="M214.35,75a.31.31,0,0,0,.37,0c.31-.12,16.32-13.23,17.1-13.85a3.63,3.63,0,0,0,1.63-2.71,2.45,2.45,0,0,0-2.59-2.58,3.6,3.6,0,0,0-2.7,1.62c-.62.79-13.73,16.8-13.85,17.1S214.25,74.92,214.35,75Z"/><path class="cls-1" d="M214.58,72.61c.26.25.89-.3,1.07-.48,2-2,7.47-9.43,7.72-15.4a3.52,3.52,0,0,0-.63-2.68,2.34,2.34,0,0,0-2.21-.69A2.42,2.42,0,0,0,219.06,56C220.79,66.57,214.26,72.31,214.58,72.61Z"/><path class="cls-1" d="M214.75,71.11c.21.13.54-.3.64-.45,1.06-1.57,3.68-7.08,3.09-11a2.29,2.29,0,0,0-.75-1.67,1.56,1.56,0,0,0-1.52-.18,1.63,1.63,0,0,0-.64,1.88C218,66.39,214.51,71,214.75,71.11Z"/><path class="cls-1" d="M213.65,64.6c.37,1.33,1.74,3.43,1,5.9a8.07,8.07,0,0,0,.81-6.49C215,62.55,213.23,63.06,213.65,64.6Z"/><path class="cls-1" d="M213.51,54.86A19.91,19.91,0,0,1,210,59.3a.42.42,0,0,0-.13.41c0,.13,3,12.6.17,19.05a.41.41,0,0,0,.09.46.4.4,0,0,0,.45.08c6.45-2.83,18.93.14,19,.17h.1a.41.41,0,0,0,.31-.14,20.27,20.27,0,0,1,4.45-3.48c2.78-1.81,5.67-3.67,6.12-6.85.34-2.43-.61-6.13-1.53-9.71-.81-3.15-1.73-6.73-1-7.44a.4.4,0,0,0,.12-.29.42.42,0,0,0-.7-.3h0c-.75.69-4.3-.22-7.43-1-3.59-.92-7.29-1.87-9.71-1.53C217.19,49.19,215.32,52.07,213.51,54.86Zm7-5.31c2.27-.32,6.05.65,9.39,1.51s5.79,1.45,7.2,1.25c-.21,1.4.37,3.82,1.24,7.19s1.83,7.13,1.51,9.39c-.4,2.81-3,4.5-5.75,6.28a21.87,21.87,0,0,0-4.46,3.45,55.44,55.44,0,0,0-11.44-1.37,22.08,22.08,0,0,0-7,1c2.19-6.39,0-16.68-.41-18.45a21.83,21.83,0,0,0,3.44-4.46C216,52.55,217.67,50,220.48,49.55Z"/><path class="cls-1" d="M172.16,48.12c.41.12,2.11-8.4,12.18-12.21a2.43,2.43,0,0,0,1.51-2.58,2.35,2.35,0,0,0-1.71-1.56,3.52,3.52,0,0,0-2.63.79c-5,3.21-8.73,11.63-9.47,14.39C172,47.2,171.81,48,172.16,48.12Z"/><path class="cls-1" d="M183.24,38.08a2.32,2.32,0,0,0-1.82.18c-3.69,1.45-7.16,6.47-8,8.18-.07.16-.28.67-.07.78s2.44-5.21,9.48-6.42a1.61,1.61,0,0,0,1.31-1.49A1.52,1.52,0,0,0,183.24,38.08Z"/><path class="cls-1" d="M179.16,43.06A8.14,8.14,0,0,0,173.94,47c1.77-1.88,4.28-1.74,5.61-2.09C181.1,44.52,180.65,42.71,179.16,43.06Z"/><path class="cls-1" d="M170.18,49.52a.32.32,0,0,0,.34-.15c.21-.26,7.52-19.62,7.89-20.55a3.63,3.63,0,0,0,.06-3.15,2.47,2.47,0,0,0-3.54-1,3.65,3.65,0,0,0-1.53,2.76c-.14,1-3.49,21.41-3.44,21.74A.32.32,0,0,0,170.18,49.52Z"/><path class="cls-1" d="M169.17,47.32c.36.08.62-.71.69-1,.74-2.77,1.76-11.9-1-17.2a3.48,3.48,0,0,0-1.89-2,2.34,2.34,0,0,0-2.25.5,2.42,2.42,0,0,0,0,3C171.54,39,168.75,47.22,169.17,47.32Z"/><path class="cls-1" d="M164.6,33.08a1.57,1.57,0,0,0-1.41.61,1.62,1.62,0,0,0,.39,2c5.49,4.57,4.71,10.28,5,10.3s.31-.54.33-.71c.13-1.89-.36-8-2.83-11.08A2.32,2.32,0,0,0,164.6,33.08Z"/><path class="cls-1" d="M164.37,40.85c1,1,3.22,2.1,3.81,4.61a8.1,8.1,0,0,0-2.55-6C164.52,38.39,163.23,39.73,164.37,40.85Z"/><path class="cls-1" d="M158.59,38.07a.39.39,0,0,0,.09.42c.08.09,8.89,9.41,9.67,16.41a.41.41,0,0,0,.3.35l.11,0a.4.4,0,0,0,.33-.17c4.17-5.68,16.46-9.34,16.58-9.38a.41.41,0,0,0,.29-.32,20.07,20.07,0,0,1,2.11-5.23c1.51-3,3.07-6,1.87-9-.91-2.27-3.59-5-6.18-7.64-2.27-2.33-4.85-5-4.59-5.94h0a.34.34,0,0,0,0-.1.42.42,0,0,0-.3-.4.42.42,0,0,0-.51.29c-.26,1-3.81,2-7,2.85-3.56,1-7.24,2-9.17,3.53-2.53,2-2.7,5.41-2.87,8.73A20.62,20.62,0,0,1,158.59,38.07Zm1.61-5.55c.17-3.28.33-6.37,2.56-8.12,1.8-1.41,5.56-2.46,8.89-3.39s5.74-1.64,6.85-2.52c.52,1.32,2.24,3.12,4.68,5.61s5.14,5.26,6,7.38c1.06,2.63-.35,5.39-1.84,8.31A21.86,21.86,0,0,0,185.2,45c-1.73.53-11.74,3.77-16.18,8.86-1.29-6.63-8.34-14.44-9.58-15.77A21.86,21.86,0,0,0,160.2,32.52Z"/><path class="cls-1" d="M159.61,18.19a.81.81,0,0,0,.18-1.2.84.84,0,0,0-1.2-.17.86.86,0,0,0-.15,1.18A.88.88,0,0,0,159.61,18.19Z"/><path class="cls-1" d="M157.44,15.55a.81.81,0,0,0-.05-1.21.84.84,0,1,0-1.14,1.24A.88.88,0,0,0,157.44,15.55Z"/><path class="cls-1" d="M153.65,13.62a.88.88,0,0,0,1.16-.25.82.82,0,0,0-.28-1.18.83.83,0,0,0-1.18.28A.86.86,0,0,0,153.65,13.62Z"/><path class="cls-1" d="M150.72,12.19a.88.88,0,0,0,1.09-.47.82.82,0,0,0-.49-1.11.85.85,0,0,0-1.11.51A.86.86,0,0,0,150.72,12.19Z"/><path class="cls-1" d="M147.58,11.33a.86.86,0,0,0,1-.66.83.83,0,0,0-.69-1,.84.84,0,1,0-.29,1.66Z"/><path class="cls-1" d="M144.33,11.09a.85.85,0,1,0-.87-.79A.85.85,0,0,0,144.33,11.09Z"/><path class="cls-1" d="M141.09,11.46a.83.83,0,0,0,.67-1,.87.87,0,0,0-1-.69.85.85,0,0,0-.65,1A.83.83,0,0,0,141.09,11.46Z"/><path class="cls-1" d="M138,12.45a.87.87,0,0,0,.47-1.09.86.86,0,0,0-1.13-.46.83.83,0,0,0-.45,1.13A.88.88,0,0,0,138,12.45Z"/><path class="cls-1" d="M135.13,14a.85.85,0,0,0,.25-1.15.86.86,0,0,0-1.2-.25.83.83,0,0,0-.22,1.2A.88.88,0,0,0,135.13,14Z"/><path class="cls-1" d="M132.61,16.07a.85.85,0,0,0,0-1.18.84.84,0,0,0-1.22,0,.82.82,0,0,0,0,1.21A.88.88,0,0,0,132.61,16.07Z"/><path class="cls-1" d="M130.33,17.41a.84.84,0,0,0-1.2.22.82.82,0,0,0,.24,1.19.89.89,0,0,0,1.16-.24A.86.86,0,0,0,130.33,17.41Z"/><path class="cls-1" d="M93.25,28.1a.89.89,0,0,0,1.11-.42.81.81,0,0,0-.44-1.13.85.85,0,0,0-1.13.45A.87.87,0,0,0,93.25,28.1Z"/><path class="cls-1" d="M90.15,27.1a.88.88,0,0,0,1-.62.81.81,0,0,0-.65-1,.85.85,0,0,0-1,.66A.87.87,0,0,0,90.15,27.1Z"/><path class="cls-1" d="M86.92,26.7a.88.88,0,0,0,.87-.8A.83.83,0,0,0,87,25a.85.85,0,0,0-.88.85A.87.87,0,0,0,86.92,26.7Z"/><path class="cls-1" d="M83.67,26.92a.88.88,0,0,0,.71-1,.82.82,0,0,0-1-.71.84.84,0,0,0-.7,1A.86.86,0,0,0,83.67,26.92Z"/><path class="cls-1" d="M80.52,27.75A.87.87,0,0,0,81,26.69a.83.83,0,0,0-1.11-.52.84.84,0,1,0,.59,1.58Z"/><path class="cls-1" d="M77.58,29.16A.85.85,0,0,0,77.89,28a.84.84,0,0,0-1.18-.31.86.86,0,0,0-.28,1.2A.84.84,0,0,0,77.58,29.16Z"/><path class="cls-1" d="M75,31.11a.83.83,0,0,0,.1-1.17.86.86,0,0,0-1.23-.08A.84.84,0,1,0,75,31.11Z"/><path class="cls-1" d="M72.77,33.51a.84.84,0,1,0-1.17.2A.87.87,0,0,0,72.77,33.51Z"/><path class="cls-1" d="M70,36.7a.88.88,0,0,0,1.12-.41.87.87,0,0,0-.37-1.13.85.85,0,0,0-1.15.39A.82.82,0,0,0,70,36.7Z"/><path class="cls-1" d="M68.9,40a.87.87,0,0,0,1-.61.86.86,0,0,0-.57-1,.84.84,0,0,0-1.06.6A.81.81,0,0,0,68.9,40Z"/><path class="cls-1" d="M68.49,43.34a.87.87,0,0,0,.88-.79.85.85,0,0,0-.76-.91.84.84,0,0,0-.92.79A.81.81,0,0,0,68.49,43.34Z"/><path class="cls-1" d="M41.85,69.44a.89.89,0,0,0,.75-.92.82.82,0,0,0-1-.76.85.85,0,0,0-.75,1A.87.87,0,0,0,41.85,69.44Z"/><path class="cls-1" d="M38.66,70.12a.88.88,0,0,0,.57-1,.85.85,0,1,0-1.63.51A.85.85,0,0,0,38.66,70.12Z"/><path class="cls-1" d="M35.66,71.39A.87.87,0,0,0,36,70.26a.82.82,0,0,0-1.16-.35.84.84,0,1,0,.8,1.48Z"/><path class="cls-1" d="M33,73.21A.89.89,0,0,0,33.1,72a.82.82,0,0,0-1.21-.13.85.85,0,0,0-.11,1.22A.86.86,0,0,0,33,73.21Z"/><path class="cls-1" d="M30.65,75.5a.88.88,0,0,0-.09-1.18.82.82,0,0,0-1.21.1.85.85,0,1,0,1.3,1.08Z"/><path class="cls-1" d="M28.51,77.05a.86.86,0,1,0-.82,1.5.83.83,0,0,0,1.12-.36A.86.86,0,0,0,28.51,77.05Z"/><path class="cls-1" d="M26.48,81.75A.86.86,0,0,0,27,80.12a.87.87,0,0,0-1.1.55A.85.85,0,0,0,26.48,81.75Z"/><path class="cls-1" d="M25.9,85.12a.88.88,0,0,0,.92-.75.85.85,0,1,0-1.68-.21A.83.83,0,0,0,25.9,85.12Z"/><path class="cls-1" d="M26.73,87.62a.85.85,0,0,0-.88-.79.84.84,0,0,0-.8.91.82.82,0,0,0,.92.79A.87.87,0,0,0,26.73,87.62Z"/><path class="cls-1" d="M27.27,90.84a.87.87,0,0,0-1-.62.85.85,0,0,0-.62,1,.83.83,0,0,0,1.06.61A.9.9,0,0,0,27.27,90.84Z"/><path class="cls-1" d="M27.28,93.48a.84.84,0,0,0-.4,1.15A.81.81,0,0,0,28,95a.89.89,0,0,0,.38-1.13A.87.87,0,0,0,27.28,93.48Z"/><path class="cls-1" d="M18,130.94a.88.88,0,0,0,.19-1.17.81.81,0,0,0-1.2-.18.84.84,0,0,0-.17,1.2A.87.87,0,0,0,18,130.94Z"/><path class="cls-1" d="M15.59,133.12a.88.88,0,0,0,0-1.18.82.82,0,0,0-1.21,0,.85.85,0,0,0,.06,1.22A.87.87,0,0,0,15.59,133.12Z"/><path class="cls-1" d="M12.47,136a.86.86,0,0,0,1.15-.3.87.87,0,0,0-.25-1.15.81.81,0,0,0-1.18.27A.83.83,0,0,0,12.47,136Z"/><path class="cls-1" d="M11.12,139.16a.86.86,0,0,0,1.07-.51.88.88,0,0,0-.47-1.09.83.83,0,0,0-1.11.49A.85.85,0,0,0,11.12,139.16Z"/><path class="cls-1" d="M10.38,142.5a.85.85,0,0,0,.95-.71.87.87,0,0,0-.66-1,.83.83,0,0,0-1,.7A.85.85,0,0,0,10.38,142.5Z"/><path class="cls-1" d="M11.09,145a.85.85,0,1,0-.79.87A.83.83,0,0,0,11.09,145Z"/><path class="cls-1" d="M11.46,148.28a.83.83,0,0,0-1-.67.87.87,0,0,0-.69,1,.85.85,0,0,0,1,.65A.83.83,0,0,0,11.46,148.28Z"/><path class="cls-1" d="M12.45,151.39a.84.84,0,1,0-1.55.65.83.83,0,0,0,1.13.45A.86.86,0,0,0,12.45,151.39Z"/><path class="cls-1" d="M12.85,154a.84.84,0,0,0-.25,1.19.83.83,0,0,0,1.2.22.86.86,0,0,0,.2-1.16A.84.84,0,0,0,12.85,154Z"/><path class="cls-1" d="M14.89,156.74a.83.83,0,0,0,0,1.21.81.81,0,0,0,1.21,0,.88.88,0,0,0,0-1.19A.85.85,0,0,0,14.89,156.74Z"/><path class="cls-1" d="M17.41,159a.84.84,0,0,0,.22,1.2.82.82,0,0,0,1.19-.23.9.9,0,0,0-.24-1.17A.86.86,0,0,0,17.41,159Z"/><path class="cls-1" d="M27,196.58a.86.86,0,0,0,1.1-.46.89.89,0,0,0-.42-1.11.82.82,0,0,0-1.13.45A.84.84,0,0,0,27,196.58Z"/><path class="cls-1" d="M26.11,199.88a.86.86,0,0,0,1-.66.89.89,0,0,0-.62-1,.83.83,0,0,0-1,.65A.84.84,0,0,0,26.11,199.88Z"/><path class="cls-1" d="M25.86,203.29a.86.86,0,0,0,.84-.83.88.88,0,0,0-.8-.88.83.83,0,0,0-.89.83A.85.85,0,0,0,25.86,203.29Z"/><path class="cls-1" d="M26.92,205.71a.87.87,0,0,0-1-.71.81.81,0,0,0-.71,1,.83.83,0,0,0,1,.7A.85.85,0,0,0,26.92,205.71Z"/><path class="cls-1" d="M27.75,208.86a.87.87,0,0,0-1.06-.52.82.82,0,0,0-.52,1.1.84.84,0,1,0,1.58-.58Z"/><path class="cls-1" d="M28,211.48a.85.85,0,0,0-.31,1.19.86.86,0,0,0,1.2.27.84.84,0,0,0,.24-1.15A.85.85,0,0,0,28,211.48Z"/><path class="cls-1" d="M29.94,214.31a.86.86,0,0,0-.08,1.23.84.84,0,1,0,1.25-1.13A.83.83,0,0,0,29.94,214.31Z"/><path class="cls-1" d="M32.34,216.74A.85.85,0,0,0,32.5,218a.83.83,0,0,0,1.21-.18.86.86,0,0,0-.2-1.16A.85.85,0,0,0,32.34,216.74Z"/><path class="cls-1" d="M36.29,218.31a.84.84,0,1,0-.74,1.51.82.82,0,0,0,1.15-.4A.87.87,0,0,0,36.29,218.31Z"/><path class="cls-1" d="M39.34,219.45a.86.86,0,0,0-1,.57.84.84,0,0,0,.6,1.06.81.81,0,0,0,1.05-.61A.88.88,0,0,0,39.34,219.45Z"/><path class="cls-1" d="M42.55,220a.86.86,0,0,0-.91.76.83.83,0,0,0,.79.92.81.81,0,0,0,.91-.79A.88.88,0,0,0,42.55,220Z"/><path class="cls-1" d="M69.44,247.53a.89.89,0,0,0-.92-.76.82.82,0,0,0-.76.95.84.84,0,0,0,1,.75A.86.86,0,0,0,69.44,247.53Z"/><path class="cls-1" d="M70.12,250.71a.89.89,0,0,0-1-.57.85.85,0,1,0,.51,1.63A.85.85,0,0,0,70.12,250.71Z"/><path class="cls-1" d="M70.26,253.35a.82.82,0,0,0-.35,1.16.83.83,0,0,0,1.17.34.85.85,0,0,0,.31-1.14A.88.88,0,0,0,70.26,253.35Z"/><path class="cls-1" d="M72,256.27a.82.82,0,0,0-.13,1.21.84.84,0,1,0,1.31-1.06A.88.88,0,0,0,72,256.27Z"/><path class="cls-1" d="M74.32,258.81a.84.84,0,0,0,.1,1.22.86.86,0,0,0,1.22-.13.84.84,0,0,0-.14-1.17A.87.87,0,0,0,74.32,258.81Z"/><path class="cls-1" d="M78.19,260.56a.84.84,0,1,0-.81,1.48.85.85,0,0,0,1.17-.36A.83.83,0,0,0,78.19,260.56Z"/><path class="cls-1" d="M81.19,261.86a.85.85,0,0,0-1.07.5.86.86,0,0,0,.55,1.1.84.84,0,1,0,.52-1.6Z"/><path class="cls-1" d="M84.37,262.56a.84.84,0,1,0-.21,1.67.83.83,0,0,0,1-.76A.87.87,0,0,0,84.37,262.56Z"/><path class="cls-1" d="M87.62,262.64a.85.85,0,1,0,.12,1.69.83.83,0,0,0,.79-.93A.87.87,0,0,0,87.62,262.64Z"/><path class="cls-1" d="M90.84,262.11a.86.86,0,0,0-.62,1,.85.85,0,0,0,1,.62.83.83,0,0,0,.61-1.06A.88.88,0,0,0,90.84,262.11Z"/><path class="cls-1" d="M93.89,261a.85.85,0,1,0,.74,1.52.82.82,0,0,0,.39-1.15A.89.89,0,0,0,93.89,261Z"/><path class="cls-1" d="M129.77,271.18a.82.82,0,0,0-.18,1.2.84.84,0,0,0,1.2.17.87.87,0,0,0,.15-1.18A.88.88,0,0,0,129.77,271.18Z"/><path class="cls-1" d="M131.94,273.82a.82.82,0,0,0,0,1.21.84.84,0,1,0,1.14-1.24A.88.88,0,0,0,131.94,273.82Z"/><path class="cls-1" d="M135.72,275.75a.87.87,0,0,0-1.15.25.82.82,0,0,0,.27,1.19.84.84,0,0,0,1.18-.29A.86.86,0,0,0,135.72,275.75Z"/><path class="cls-1" d="M138.65,277.19a.88.88,0,0,0-1.09.46.81.81,0,0,0,.49,1.11.84.84,0,0,0,1.11-.5A.85.85,0,0,0,138.65,277.19Z"/><path class="cls-1" d="M141.79,278a.88.88,0,0,0-1,.66.83.83,0,0,0,.7,1,.85.85,0,0,0,1-.71A.86.86,0,0,0,141.79,278Z"/><path class="cls-1" d="M145,278.29a.85.85,0,0,0-.84.82.86.86,0,1,0,1.71,0A.83.83,0,0,0,145,278.29Z"/><path class="cls-1" d="M148.28,277.91a.84.84,0,0,0-.67,1,.86.86,0,0,0,1,.68.84.84,0,1,0-.35-1.65Z"/><path class="cls-1" d="M151.39,276.92a.85.85,0,0,0-.47,1.09.85.85,0,1,0,1.57-.67A.86.86,0,0,0,151.39,276.92Z"/><path class="cls-1" d="M154.25,275.37a.85.85,0,0,0-.25,1.16.84.84,0,0,0,1.19.24.82.82,0,0,0,.22-1.2A.87.87,0,0,0,154.25,275.37Z"/><path class="cls-1" d="M156.76,273.3a.87.87,0,0,0,0,1.19.84.84,0,0,0,1.21,0,.82.82,0,0,0,0-1.22A.89.89,0,0,0,156.76,273.3Z"/><path class="cls-1" d="M159,272a.85.85,0,0,0,1.2-.23.83.83,0,0,0-.23-1.19.89.89,0,0,0-1.16.24A.86.86,0,0,0,159,272Z"/><path class="cls-1" d="M196.12,261.27a.9.9,0,0,0-1.11.42.82.82,0,0,0,.45,1.13.83.83,0,0,0,1.12-.45A.86.86,0,0,0,196.12,261.27Z"/><path class="cls-1" d="M199.22,262.27a.89.89,0,0,0-1,.62.86.86,0,1,0,1.67.37A.86.86,0,0,0,199.22,262.27Z"/><path class="cls-1" d="M202.46,262.67a.89.89,0,0,0-.88.8.82.82,0,0,0,.83.89.85.85,0,0,0,.88-.84A.86.86,0,0,0,202.46,262.67Z"/><path class="cls-1" d="M205.71,262.45a.89.89,0,0,0-.71.95.82.82,0,0,0,1,.72.84.84,0,0,0,.7-1A.85.85,0,0,0,205.71,262.45Z"/><path class="cls-1" d="M208.86,261.62a.88.88,0,0,0-.52,1.07.83.83,0,0,0,1.1.52.85.85,0,0,0,.5-1.12A.84.84,0,0,0,208.86,261.62Z"/><path class="cls-1" d="M211.79,260.21a.84.84,0,1,0,1.15.25A.83.83,0,0,0,211.79,260.21Z"/><path class="cls-1" d="M214.41,258.26a.85.85,0,0,0-.1,1.18.86.86,0,1,0,.1-1.18Z"/><path class="cls-1" d="M216.61,255.86a.84.84,0,1,0,1.34,1,.82.82,0,0,0-.18-1.2A.86.86,0,0,0,216.61,255.86Z"/><path class="cls-1" d="M219.42,252.67a.88.88,0,0,0-1.11.41.85.85,0,0,0,.36,1.13.84.84,0,0,0,1.15-.39A.83.83,0,0,0,219.42,252.67Z"/><path class="cls-1" d="M220.47,249.42a.89.89,0,0,0-1,.61.85.85,0,0,0,.57,1,.84.84,0,0,0,1.06-.6A.82.82,0,0,0,220.47,249.42Z"/><path class="cls-1" d="M220,246.82a.86.86,0,0,0,.76.91.82.82,0,0,0,.92-.78.81.81,0,0,0-.79-.92A.89.89,0,0,0,220,246.82Z"/><path class="cls-1" d="M247.53,219.94a.88.88,0,0,0-.76.92.82.82,0,0,0,.95.75.84.84,0,0,0,.75-1A.85.85,0,0,0,247.53,219.94Z"/><path class="cls-1" d="M250.71,219.25a.9.9,0,0,0-.57,1.05.83.83,0,0,0,1.08.56.84.84,0,0,0,.55-1.08A.86.86,0,0,0,250.71,219.25Z"/><path class="cls-1" d="M253.71,218a.88.88,0,0,0-.36,1.13.81.81,0,0,0,1.16.35.82.82,0,0,0,.34-1.16A.85.85,0,0,0,253.71,218Z"/><path class="cls-1" d="M256.42,216.17a.87.87,0,0,0-.15,1.17.82.82,0,0,0,1.21.13.84.84,0,1,0-1.06-1.3Z"/><path class="cls-1" d="M258.73,213.87a.87.87,0,0,0,.08,1.18A.84.84,0,0,0,260,215a.85.85,0,1,0-1.3-1.08Z"/><path class="cls-1" d="M260.86,212.32a.86.86,0,1,0-.3-1.14A.85.85,0,0,0,260.86,212.32Z"/><path class="cls-1" d="M262.89,207.62a.86.86,0,0,0-.53,1.63.86.86,0,1,0,.53-1.63Z"/><path class="cls-1" d="M263.47,204.26a.85.85,0,0,0-.91.74.84.84,0,1,0,1.67.21A.82.82,0,0,0,263.47,204.26Z"/><path class="cls-1" d="M262.64,201.75a.85.85,0,1,0,1.69-.12.83.83,0,0,0-.93-.79A.88.88,0,0,0,262.64,201.75Z"/><path class="cls-1" d="M262.11,198.53a.85.85,0,0,0,1,.62.84.84,0,0,0,.62-1.05.83.83,0,0,0-1.06-.6A.87.87,0,0,0,262.11,198.53Z"/><path class="cls-1" d="M262.09,195.89a.84.84,0,0,0,.41-1.14.83.83,0,0,0-1.15-.4.89.89,0,0,0-.37,1.13A.85.85,0,0,0,262.09,195.89Z"/><path class="cls-1" d="M288.55,143.86h-.12c-2.16-.18-4.46-4.84-6.69-9.35-2.55-5.15-5.41-10.94-9.27-13,.29-.91.58-1.85.87-2.77,1.16-3.73,2.6-8.36,3.79-8.68l-.43-1.59h0c-1.19.32-4.75-3-7.62-5.62-.71-.66-1.42-1.32-2.14-2,2.33-3.71,1.91-10.17,1.54-15.91-.32-5-.66-10.22,1.12-11.45l.11,0a.82.82,0,0,0,.38-.51.84.84,0,0,0-.09-.64.82.82,0,0,0-1.12-.28l-.1.06c-1.95.93-6.28-2-10.47-4.76-4.78-3.18-10.15-6.77-14.54-6.62-.2-.95-.41-1.9-.62-2.84-.86-3.81-1.93-8.54-1.06-9.41a.81.81,0,0,0,0-1.15.83.83,0,0,0-1.16,0h0c-.87.87-5.61-.2-9.41-1.06l-2.83-.62c.17-4.36-3.28-9.54-6.63-14.56-2.8-4.19-5.68-8.52-4.75-10.47l.06-.1a.83.83,0,0,0-.3-1.12.75.75,0,0,0-.62-.09.79.79,0,0,0-.51.38l-.06.11c-1.23,1.78-6.42,1.44-11.45,1.12-5.73-.37-12.17-.79-15.89,1.52l-2-2.14c-2.64-2.87-5.94-6.43-5.62-7.62l-1.59-.42v0h0c-.32,1.19-5,2.63-8.68,3.78l-2.77.88c-2-3.86-7.6-6.62-13-9.29-4.51-2.23-9.18-4.54-9.35-6.69V.82a.83.83,0,0,0-.83-.82.82.82,0,0,0-.82.82V1c-.18,2.15-4.84,4.46-9.35,6.69-5.4,2.66-11,5.42-13,9.27L118.73,16c-3.73-1.16-8.36-2.6-8.68-3.78l-1.59.42v0c.32,1.19-3,4.76-5.62,7.62l-2,2.14C97.17,20.12,90.71,20.54,85,20.91c-5,.33-10.22.66-11.44-1.12l-.06-.1a.83.83,0,0,0-1.52.19.86.86,0,0,0,.09.63l.06.11c.93,1.95-2,6.28-4.76,10.47-3.18,4.78-6.77,10.15-6.62,14.53l-2.84.63c-3.81.86-8.54,1.93-9.41,1.06h0a.82.82,0,0,0-1.14,1.18h0c.87.87-.2,5.6-1.06,9.41-.21.94-.42,1.89-.62,2.83-4.36-.18-9.54,3.27-14.56,6.62-4.18,2.8-8.51,5.68-10.47,4.76l-.1-.07a.81.81,0,0,0-.63-.07.79.79,0,0,0-.5.39.81.81,0,0,0,.3,1.11.3.3,0,0,0,.11.06C21.57,74.76,21.23,80,20.91,85c-.39,6-.79,12.21,1.52,15.9-.71.64-1.43,1.3-2.14,2-2.87,2.65-6.44,5.93-7.62,5.62h0a.82.82,0,0,0-.38,1.6h0c1.19.31,2.63,5,3.78,8.68.29.92.58,1.85.88,2.76-3.86,2-6.62,7.61-9.29,13C5.41,139,3.1,143.7.94,143.87H.82a.83.83,0,0,0,0,1.65H.94c2.16.17,4.47,4.83,6.7,9.35,2.66,5.4,5.42,11,9.27,13-.3.92-.59,1.85-.88,2.77-1.16,3.73-2.6,8.36-3.78,8.68h0l-.06,0a.82.82,0,0,0,.5,1.56h0c1.21-.3,4.75,3,7.61,5.63l2.14,2c-2.33,3.68-1.93,9.89-1.54,15.91.33,5,.66,10.22-1.12,11.45l-.1.06a.83.83,0,0,0-.31,1.12.85.85,0,0,0,.5.39.81.81,0,0,0,.63-.08l.11-.07c1.95-.92,6.28,2,10.47,4.76,4.68,3.12,9.94,6.63,14.27,6.63l.26,0q.3,1.43.63,2.85c.86,3.81,1.93,8.54,1.06,9.41h0a.83.83,0,0,0,0,1.16.82.82,0,0,0,1.16,0h0c.87-.87,5.6.2,9.41,1.06l2.83.63c-.16,4.38,3.43,9.77,6.62,14.55,2.8,4.19,5.68,8.52,4.76,10.47l-.07.11a.84.84,0,0,0,.32,1.13.82.82,0,0,0,.4.1.79.79,0,0,0,.71-.41.39.39,0,0,0,.06-.11c1.23-1.78,6.42-1.44,11.45-1.11,6,.39,12.21.79,15.9-1.53.64.72,1.3,1.43,2,2.14,2.65,2.87,5.94,6.44,5.62,7.62h0v0h0a.82.82,0,0,0,.59,1l.22,0a.82.82,0,0,0,.79-.61v0h0c.31-1.19,5-2.63,8.68-3.79l2.76-.87c2.06,3.87,7.86,6.74,13,9.29,4.51,2.23,9.18,4.53,9.35,6.69v.12a.83.83,0,0,0,1.65,0v-.12c.17-2.16,4.83-4.46,9.35-6.69,5.15-2.55,10.94-5.41,13-9.27l2.77.87c3.73,1.16,8.36,2.6,8.68,3.79h0s0,0,0,.05h0a.82.82,0,0,0,.77.54l.22,0a.82.82,0,0,0,.57-1v0c-.3-1.19,3-4.75,5.63-7.61.65-.71,1.31-1.42,2-2.14,3.71,2.33,10.17,1.91,15.91,1.54,5-.32,10.22-.66,11.45,1.12l.06.11a.83.83,0,0,0,.71.41A.87.87,0,0,0,217,270a.85.85,0,0,0,.39-.5.82.82,0,0,0-.08-.63.61.61,0,0,0-.07-.1c-.92-2,2-6.29,4.76-10.47,3.18-4.78,6.77-10.16,6.62-14.53l2.84-.63c3.81-.86,8.54-1.93,9.41-1.06h0a.83.83,0,0,0,1.15-1.19h0c-.87-.87.2-5.61,1.06-9.41.21-.95.43-1.9.63-2.85l.28,0c4.33,0,9.59-3.51,14.27-6.63,4.19-2.79,8.52-5.68,10.47-4.75l.11.06A.84.84,0,0,0,270,217a.87.87,0,0,0,.09-.63.84.84,0,0,0-.39-.51l-.1-.06c-1.79-1.22-1.45-6.42-1.12-11.44.37-5.73.78-12.18-1.53-15.9.72-.65,1.43-1.31,2.14-2,2.87-2.64,6.43-5.94,7.62-5.62l.43-1.59h0c-1.18-.32-2.62-5-3.78-8.68l-.87-2.77c3.87-2.05,6.74-7.85,9.29-13,2.23-4.51,4.53-9.18,6.69-9.35h.12a.83.83,0,0,0,.82-.83A.82.82,0,0,0,288.55,143.86Zm-13.46-34.11c-1.13,1.59-2.08,4.51-3.32,8.49-1.3,4.2-2.78,9-4.67,11.22-2.33,2.79-6.43,3-10.77,3.33a33.7,33.7,0,0,0-7.21,1,22.4,22.4,0,0,0-19.4-11.35,23.69,23.69,0,0,0-2.53.15,23.81,23.81,0,0,0,2.26-1.13,22.37,22.37,0,0,0,11.13-19.53,33.72,33.72,0,0,0,6.72-2.75c3.9-1.93,7.58-3.75,11-2.5,2.76,1,6.42,4.4,9.65,7.38C271,106.89,273.31,109,275.09,109.75Zm-18.67,45.19a35.42,35.42,0,0,1-6.53-.83c.24-.52.46-1.05.67-1.59.82-2.17,2.47-5.15,4.05-6.41a6.7,6.7,0,1,0,0-2.85c-1.58-1.26-3.23-4.23-4.05-6.41-.21-.54-.43-1.07-.67-1.59a35.53,35.53,0,0,1,6.55-.83c3-.19,6.09-.39,8.63-1.51a12.4,12.4,0,0,1,0,23.53C262.53,155.33,259.44,155.13,256.42,154.94Zm-17.27,44.29c-3.38.36-7.52,3.73-7.74,3.91A20.72,20.72,0,0,1,208,205.05a20,20,0,0,1-4.29-3.29l-.09-.08c.65-.67,1.29-1.35,1.91-2.05a17.83,17.83,0,1,0,21.71-27.87,18.09,18.09,0,0,0-4.52-1.83c.29-.88.57-1.77.83-2.67l.07,0a20.32,20.32,0,0,1,5,2.07,20.72,20.72,0,0,1,10,21.22C238.62,190.84,237.78,196.12,239.15,199.23Zm3,9.48a6.69,6.69,0,1,0-1.6-10.3c-.75-1.88-.69-5.28-.31-7.57.1-.57.17-1.14.22-1.71a34.1,34.1,0,0,1,6.08,2.55c2.71,1.34,5.48,2.71,8.24,3a12.4,12.4,0,0,1-11.77,20.37c-1.64-2.24-4.22-4-6.74-5.64a34.36,34.36,0,0,1-5.24-4c.47-.33.93-.66,1.38-1,1.79-1.48,4.71-3.23,6.71-3.52A6.68,6.68,0,0,0,242.2,208.71Zm-27.13,34.35a12.4,12.4,0,0,1-20.38,11.77c-.3-2.77-1.67-5.54-3-8.26a34.24,34.24,0,0,1-2.55-6.06c.57,0,1.14-.12,1.71-.22,2.29-.38,5.69-.44,7.57.31a6.69,6.69,0,1,0,2.48-1.43c.29-2,2-4.92,3.52-6.71.36-.45.71-.91,1-1.38a34.41,34.41,0,0,1,4,5.26C211.12,238.85,212.83,241.42,215.07,243.06Zm-11.93-11.65c-.18.22-3.55,4.36-3.91,7.74-3.11-1.37-8.39-.53-8.66-.48a20.71,20.71,0,0,1-21.22-10,20.32,20.32,0,0,1-2.07-5l0-.07c.9-.26,1.79-.54,2.67-.83a18.09,18.09,0,0,0,1.83,4.52,17.84,17.84,0,1,0,27.87-21.71c.7-.62,1.38-1.26,2.05-1.91l.09.09a20.68,20.68,0,0,1,1.37,27.68Zm-38.54-7a21,21,0,0,1,.7,5.36A20.72,20.72,0,0,1,151.94,249c-.26.1-5.25,2-7.25,4.75-2-2.75-7-4.65-7.26-4.75a20.62,20.62,0,0,1-12.65-24.66l0-.08c.9.23,1.81.44,2.72.63a17.85,17.85,0,1,0,34.33,0c.92-.19,1.82-.4,2.73-.63Zm-9.66,32.08c.2,3,.4,6.09,1.51,8.63a12.4,12.4,0,0,1-23.53,0c1.12-2.54,1.32-5.63,1.52-8.65a33.78,33.78,0,0,1,.83-6.53c.51.24,1,.46,1.58.67,2.18.82,5.15,2.47,6.41,4.05a6.7,6.7,0,1,0,2.85,0c1.26-1.58,4.24-3.23,6.41-4.05.54-.21,1.07-.43,1.59-.67A33.89,33.89,0,0,1,154.94,256.44Zm-60.26-1.61A12.4,12.4,0,0,1,74.3,243.06c2.25-1.64,4-4.22,5.65-6.74a34.66,34.66,0,0,1,4-5.24c.32.47.67.93,1,1.38,1.48,1.79,3.23,4.71,3.53,6.71A6.7,6.7,0,1,0,91,240.6c1.88-.75,5.28-.69,7.58-.31.57.1,1.14.17,1.71.22a34.16,34.16,0,0,1-2.56,6.08C96.35,249.3,95,252.07,94.68,254.83Zm4.13-16.16c-.28,0-5.56-.89-8.66.48-.37-3.38-3.74-7.52-3.91-7.74a20.64,20.64,0,0,1,1.37-27.68l.09-.09c.67.65,1.35,1.29,2,1.91a18.05,18.05,0,0,0-3,3.87,17.86,17.86,0,0,0,15.42,26.77,18.05,18.05,0,0,0,4.65-.61,17.8,17.8,0,0,0,12.66-12.84c.89.29,1.78.57,2.67.83l0,.07a20.32,20.32,0,0,1-2.07,5A20.71,20.71,0,0,1,98.81,238.67Zm-52.5-23.6a12.4,12.4,0,0,1-11.76-20.38c2.76-.3,5.54-1.67,8.25-3a34,34,0,0,1,6.07-2.55q.08.85.21,1.71c.38,2.29.44,5.69-.3,7.57a6.71,6.71,0,1,0,1.42,2.48c2,.29,4.92,2,6.72,3.52.45.37.91.7,1.38,1a34.06,34.06,0,0,1-5.27,4C50.52,211.12,48,212.83,46.31,215.07ZM58,203.14c-.22-.18-4.36-3.55-7.74-3.91,1.38-3.11.53-8.39.48-8.66a20.64,20.64,0,0,1,15-23.29l.07,0c.26.9.53,1.79.82,2.67a18.09,18.09,0,0,0-4.52,1.83,17.84,17.84,0,1,0,21.71,27.87c.63.7,1.27,1.38,1.91,2.05l-.09.09a20.25,20.25,0,0,1-4.29,3.28A20.72,20.72,0,0,1,58,203.14ZM24.3,156.45a12.4,12.4,0,0,1,0-23.53c2.55,1.12,5.64,1.32,8.66,1.52a33.68,33.68,0,0,1,6.52.83c-.24.51-.46,1-.66,1.58C38,139,36.35,142,34.76,143.26a6.7,6.7,0,1,0,0,2.85c1.59,1.26,3.24,4.24,4.06,6.41q.3.81.66,1.59a33.89,33.89,0,0,1-6.55.83C29.92,155.14,26.84,155.34,24.3,156.45Zm16.06-4.51c-.1-.26-2-5.25-4.75-7.25,2.74-2,4.65-7,4.75-7.26A20.62,20.62,0,0,1,65,124.78l.07,0c-.22.9-.43,1.81-.63,2.72a17.85,17.85,0,1,0,0,34.33c.2.92.41,1.82.63,2.73l-.07,0a21,21,0,0,1-5.36.7A20.71,20.71,0,0,1,40.36,151.94Zm9.86-61.79c3.38-.37,7.52-3.74,7.74-3.91a20.71,20.71,0,0,1,23.39-1.92,21,21,0,0,1,4.3,3.29l.08.09c-.64.67-1.28,1.35-1.91,2a17.84,17.84,0,1,0-17.19,29.7c-.29.89-.56,1.78-.82,2.67l-.08,0a20.65,20.65,0,0,1-15-23.28C50.75,98.53,51.6,93.25,50.22,90.15Zm-3-9.49A6.69,6.69,0,1,0,48.78,91c.74,1.88.68,5.28.3,7.58q-.13.85-.21,1.71a34.25,34.25,0,0,1-6.09-2.56c-2.71-1.34-5.48-2.7-8.23-3A12.4,12.4,0,0,1,46.31,74.3c1.65,2.25,4.22,4,6.74,5.65a33.69,33.69,0,0,1,5.24,4c-.47.32-.93.67-1.37,1-1.8,1.48-4.71,3.24-6.72,3.53A6.69,6.69,0,0,0,47.17,80.66ZM74.31,46.31A12.39,12.39,0,0,1,94.68,34.55c.31,2.76,1.67,5.54,3,8.25a35.55,35.55,0,0,1,2.55,6.07q-.85.08-1.71.21c-2.3.38-5.7.44-7.58-.3a6.7,6.7,0,1,0-2.47,1.42c-.3,2-2,4.92-3.53,6.72-.36.44-.71.9-1,1.37a34,34,0,0,1-4-5.26C78.25,50.52,76.54,48,74.31,46.31ZM86.24,58c.17-.22,3.54-4.36,3.91-7.74,3.1,1.37,8.38.53,8.66.48a20.72,20.72,0,0,1,21.21,10,20.39,20.39,0,0,1,2.07,5l0,.07c-.89.26-1.78.53-2.67.82a17.84,17.84,0,1,0-29.7,17.19c-.69.63-1.37,1.27-2,1.91l-.09-.09a20.29,20.29,0,0,1-3.29-4.29A20.71,20.71,0,0,1,86.24,58ZM124.78,65a20.62,20.62,0,0,1,12.65-24.66c.26-.1,5.25-2,7.26-4.75,2,2.74,7,4.65,7.25,4.75a20.71,20.71,0,0,1,13.36,19.3,21,21,0,0,1-.7,5.36l0,.07c-.91-.22-1.81-.43-2.73-.63a17.84,17.84,0,1,0-34.33,0c-.91.2-1.82.41-2.72.63Zm9.65-32.09c-.19-3-.39-6.09-1.51-8.63a12.4,12.4,0,0,1,23.53,0c-1.12,2.55-1.32,5.64-1.51,8.66a35.2,35.2,0,0,1-.83,6.52q-.78-.36-1.59-.66c-2.17-.82-5.15-2.47-6.41-4.06a6.7,6.7,0,1,0-2.85,0C142,36.35,139,38,136.85,38.82q-.81.3-1.59.66A35.53,35.53,0,0,1,134.43,32.93Zm60.26,1.62a12.4,12.4,0,0,1,20.38,11.76c-2.24,1.65-4,4.22-5.64,6.74a35,35,0,0,1-4,5.24c-.33-.47-.68-.93-1-1.37-1.48-1.8-3.23-4.71-3.52-6.72a6.69,6.69,0,1,0-2.48-1.43c-1.88.75-5.28.69-7.57.31q-.85-.13-1.71-.21a34.19,34.19,0,0,1,2.55-6.09C193,40.07,194.39,37.3,194.69,34.55ZM190.57,50.7c.27,0,5.55.89,8.66-.48.36,3.38,3.73,7.52,3.91,7.74a20.72,20.72,0,0,1,1.91,23.39,20.28,20.28,0,0,1-3.29,4.3l-.08.08c-.67-.64-1.35-1.28-2.05-1.91a17.57,17.57,0,0,0,3-3.87,17.84,17.84,0,0,0-30.9-17.84,18.09,18.09,0,0,0-1.83,4.52c-.88-.29-1.77-.56-2.67-.82l0-.08a20.49,20.49,0,0,1,2.07-5A20.74,20.74,0,0,1,190.57,50.7Zm52.49,23.61a12.4,12.4,0,0,1,11.77,20.37c-2.77.31-5.54,1.67-8.26,3a35.8,35.8,0,0,1-6.06,2.55c0-.57-.12-1.14-.22-1.71-.38-2.3-.44-5.7.31-7.58a6.69,6.69,0,1,0-1.43-2.47c-2-.3-4.92-2-6.71-3.53-.45-.36-.91-.71-1.38-1a34.45,34.45,0,0,1,5.26-4C238.85,78.25,241.42,76.54,243.06,74.31ZM231.41,86.24c.22.17,4.36,3.54,7.74,3.91-1.37,3.1-.53,8.38-.48,8.66a20.71,20.71,0,0,1-10,21.21,20.32,20.32,0,0,1-5,2.07l-.07,0c-.26-.89-.54-1.78-.83-2.67a17.84,17.84,0,1,0-13.32-32.73,18.05,18.05,0,0,0-3.87,3c-.62-.69-1.26-1.37-1.91-2l.09-.09a20.64,20.64,0,0,1,27.68-1.37ZM234,191.35l-5.75-2a10.89,10.89,0,0,0,.19-1.38l6.11-.25A15.77,15.77,0,0,1,234,191.35Zm-21.12-1.09c4.62,4.05,8.79-1.13,10.46-.17-1.67-1,.73-7.15-5.07-9.14.35-.71.7-1.43,1-2.15a8.47,8.47,0,0,1,6.4,12.65,8.5,8.5,0,0,1-11.58,3.11,8.31,8.31,0,0,1-2.59-2.34C212,191.57,212.43,190.92,212.87,190.26Zm-2.37,3.35a9.87,9.87,0,0,0,1.15,1.18l-3.48,5a14.5,14.5,0,0,1-1.52-1.41C208,196.85,209.28,195.25,210.5,193.61Zm3.07,2.51a12.09,12.09,0,0,0,1.27.58l-1.44,5.93a16.6,16.6,0,0,1-3.15-1.39l-.16-.1Zm3.54,1.14a9.87,9.87,0,0,0,1.22.08h.17l.81,6a15.84,15.84,0,0,1-3.64-.2Zm4.51,5.79-.8-6,.14,0a11.07,11.07,0,0,0,1.19-.4l2.92,5.34a16.6,16.6,0,0,1-2.53.93C222.23,202.94,221.93,203,221.62,203.05Zm5.51-2.23-2.93-5.36a10,10,0,0,0,1.08-.87l4.66,3.91A16,16,0,0,1,227.13,200.82Zm4.32-4.1-4.67-3.93c.11-.17.23-.34.33-.52a7.67,7.67,0,0,0,.36-.7l5.76,2a15.73,15.73,0,0,1-.86,1.75A14.84,14.84,0,0,1,231.45,196.72Zm-3.11-11.07a8.33,8.33,0,0,0-.22-1.06c0-.1-.06-.2-.09-.3l5.59-2.42c.13.38.26.76.37,1.15a16.42,16.42,0,0,1,.43,2.39Zm-1.24-3.51a11.1,11.1,0,0,0-.77-1.16l4.33-4.27a16,16,0,0,1,2,3Zm-2.42-2.81a9.41,9.41,0,0,0-1.15-.8L226,173l.4.22A15.41,15.41,0,0,1,229,175Zm-3.28-1.76a9.65,9.65,0,0,0-1.41-.34c.81-1.88,1.56-3.79,2.23-5.73a14.28,14.28,0,0,1,1.69.51Zm-76.71,47.51a80.4,80.4,0,1,1,80.39-80.39A80.49,80.49,0,0,1,144.69,225.08ZM199.63,208l-4.95,3.56a11.43,11.43,0,0,0-1.07-1q2.46-1.84,4.79-3.85A13.82,13.82,0,0,1,199.63,208ZM181,218.26c2,5.8,8.18,3.4,9.14,5.07-1-1.67,4.22-5.84.17-10.46.66-.44,1.31-.89,2-1.35a8.31,8.31,0,0,1,2.34,2.59,8.48,8.48,0,1,1-14.69,8.47,8.39,8.39,0,0,1-1.07-3.29C179.52,219,180.24,218.61,181,218.26ZM177.23,220a8.61,8.61,0,0,0,.4,1.57l-5.53,2.6a14.51,14.51,0,0,1-.6-1.94C173.44,221.55,175.35,220.8,177.23,220Zm1.39,3.68a11.78,11.78,0,0,0,.82,1.14l-4.22,4.41a16.13,16.13,0,0,1-2-2.78l-.09-.16Zm2.5,2.76a9.66,9.66,0,0,0,1.17.75L180,232.83a15.81,15.81,0,0,1-3-2Zm3.33,1.64a9.28,9.28,0,0,0,1.37.29l-.14,6.09A16.27,16.27,0,0,1,183,234c-.3-.08-.59-.19-.89-.29Zm3.71.34a13,13,0,0,0,1.37-.22l2.08,5.73a16.33,16.33,0,0,1-3.59.6Zm5.65,4.72-2.09-5.75a5.6,5.6,0,0,0,.55-.27c.23-.13.45-.28.67-.43l4,4.6a16.52,16.52,0,0,1-1.63,1.09A15.08,15.08,0,0,1,193.81,233.13Zm4.89-3.38-4-4.6a10,10,0,0,0,.85-1.09L201,226.9A15.62,15.62,0,0,1,198.7,229.75Zm3.34-4.93L196.65,222a9.88,9.88,0,0,0,.4-1.34l6.06.71c-.07.39-.15.78-.25,1.18A17.13,17.13,0,0,1,202,224.82Zm-4.71-6.49a9.38,9.38,0,0,0-.1-1.39l5.9-1.54a16.4,16.4,0,0,1,.26,3.64Zm-.69-3.65a11.16,11.16,0,0,0-.59-1.27l4.94-3.55c.08.13.17.25.25.39a16.26,16.26,0,0,1,1.31,2.89Zm-35.76,15.06a16.44,16.44,0,0,1-.31,3.16l-5.89-1.62a9.09,9.09,0,0,0,.12-1.39l6.06-.61C160.87,229.43,160.88,229.59,160.88,229.74Zm-25.67-3.57a9.5,9.5,0,0,0-.43,1.56l-6.09-.51a14.92,14.92,0,0,1,.45-2Q132.14,225.83,135.21,226.17Zm9.48,9.32c0-1.92,6.55-2.94,5.38-9,.79,0,1.59-.11,2.38-.18a8.47,8.47,0,1,1-16.24,3.38,8.3,8.3,0,0,1,.72-3.38c.79.07,1.58.13,2.38.18C138.13,232.55,144.69,233.57,144.69,235.49Zm-16.19-5.94,6.08.51a9.09,9.09,0,0,0,.14,1.39l-5.86,1.72a16.16,16.16,0,0,1-.37-3.43C128.49,229.68,128.5,229.61,128.5,229.55Zm6.87,4.14a9.69,9.69,0,0,0,.64,1.24l-4.83,3.72a16.2,16.2,0,0,1-1.65-3.24Zm2.06,3.09a10.37,10.37,0,0,0,1,.94l-3.17,5.2a16.4,16.4,0,0,1-2.7-2.43Zm3,2.15a11.27,11.27,0,0,0,1.3.5l-1.06,6a15.86,15.86,0,0,1-3.41-1.28Zm3.6.9c.21,0,.41,0,.62,0s.52,0,.78,0l1.17,6a17.91,17.91,0,0,1-1.95.12c-.57,0-1.13,0-1.69-.08Zm4.86,5.52-1.16-6a9.53,9.53,0,0,0,1.28-.52l3.27,5.16A16,16,0,0,1,148.93,245.35Zm5.35-2.59L151,237.62a10.44,10.44,0,0,0,1-1l4.89,3.63A16.9,16.9,0,0,1,154.28,242.76Zm4.06-4.34-4.89-3.64a9.5,9.5,0,0,0,.61-1.24l5.87,1.61A16.21,16.21,0,0,1,158.34,238.42Zm2.3-11.47-6.08.61a10,10,0,0,0-.4-1.39q3.08-.34,6.08-.93A17,17,0,0,1,160.64,227ZM91,206.65q2.32,2,4.79,3.85a11.64,11.64,0,0,0-1.18,1.15l-5-3.48A15.66,15.66,0,0,1,91,206.65Zm8.31,16.68c1-1.67,7.16.73,9.14-5.07.71.35,1.43.7,2.15,1a8.08,8.08,0,0,1-1.07,3.29,8.47,8.47,0,1,1-14.68-8.47,8.28,8.28,0,0,1,2.33-2.59c.65.46,1.31.91,2,1.35C95.06,217.49,100.24,221.66,99.28,223.33ZM88.13,210.25l.11-.16,5,3.48a9,9,0,0,0-.58,1.27l-5.93-1.44A16.6,16.6,0,0,1,88.13,210.25Zm-1.93,5.42,5.91,1.44a10.78,10.78,0,0,0-.06,1.39l-6.06.81A15.84,15.84,0,0,1,86.2,215.67Zm6.16,5.15a10.84,10.84,0,0,0,.43,1.33l-5.35,2.92a15.56,15.56,0,0,1-.92-2.53c-.08-.31-.14-.61-.2-.92Zm1.55,3.38a11.22,11.22,0,0,0,.88,1.08l-3.92,4.66a15.92,15.92,0,0,1-2.31-2.81Zm2.67,2.58c.17.11.34.23.52.33s.47.24.7.35l-2,5.77a15.06,15.06,0,0,1-1.76-.86,14.84,14.84,0,0,1-1.41-.92Zm3.43,1.44a10.77,10.77,0,0,0,1.37.2l.25,6.12A15.68,15.68,0,0,1,98,234Zm3.95,6.2-.24-6.09a9.25,9.25,0,0,0,1.36-.32l2.42,5.61c-.38.13-.76.26-1.15.37A16.42,16.42,0,0,1,104,234.42Zm5.69-1.72-2.42-5.6a9.69,9.69,0,0,0,1.15-.78l4.28,4.34A16.26,16.26,0,0,1,109.65,232.7Zm4.69-3.67-4.29-4.35a12.31,12.31,0,0,0,.8-1.15L116.4,226l-.21.4A16.64,16.64,0,0,1,114.34,229Zm3-5.12-5.57-2.51a9.68,9.68,0,0,0,.35-1.41c1.87.81,3.78,1.56,5.73,2.23A16.44,16.44,0,0,1,117.37,223.91Zm-48-46.68a8.82,8.82,0,0,0-1.57.4l-2.6-5.53a14.51,14.51,0,0,1,1.94-.6Q68.17,174.41,69.38,177.23Zm7.12,13c.45.66.9,1.31,1.36,2a8.53,8.53,0,0,1-2.59,2.34,8.48,8.48,0,1,1-5.18-15.76c.33.72.67,1.44,1,2.15-5.81,2-3.41,8.18-5.08,9.14C67.71,189.13,71.88,194.31,76.5,190.26ZM63.1,173.1l2.6,5.52a10.29,10.29,0,0,0-1.14.82l-4.41-4.22a16.13,16.13,0,0,1,2.78-2Zm-4.56,3.82,4.41,4.2a8.11,8.11,0,0,0-.75,1.18L56.54,180A16.29,16.29,0,0,1,58.54,176.92Zm-2.87,5.21,5.63,2.32a9.25,9.25,0,0,0-.28,1.37l-6.1-.14a16.3,16.3,0,0,1,.47-2.66C55.47,182.72,55.57,182.43,55.67,182.13Zm5.29,6a9.09,9.09,0,0,0,.22,1.37l-5.73,2.08a16.31,16.31,0,0,1-.59-3.59Zm1,3.57c.09.18.18.36.28.54s.28.45.43.67l-4.6,4A16.52,16.52,0,0,1,57,195.31c-.28-.49-.53-1-.76-1.5Zm2.24,3a10,10,0,0,0,1.09.86L62.48,201a15.88,15.88,0,0,1-2.85-2.27Zm3.16,2a8.87,8.87,0,0,0,1,.34c.1,0,.21,0,.31.06l-.7,6.06A16.41,16.41,0,0,1,64.55,202Zm3.66.69h0a10.67,10.67,0,0,0,1.38-.1L74,203.12a15.85,15.85,0,0,1-3.63.25Zm5.19,5.21-1.54-5.91a10.41,10.41,0,0,0,1.27-.59L79.52,201l-.39.25A16.68,16.68,0,0,1,76.23,202.55Zm5.19-2.92-3.57-4.95a10.27,10.27,0,0,0,1-1.07c1.23,1.64,2.51,3.24,3.86,4.79A15.15,15.15,0,0,1,81.42,199.63ZM59.63,153.16a8.48,8.48,0,0,1,0-16.95,8.35,8.35,0,0,1,3.39.72c-.08.79-.14,1.58-.19,2.38-6-1.18-7,5.38-8.95,5.38,1.92,0,2.94,6.55,8.95,5.38.05.79.11,1.59.19,2.38A8.51,8.51,0,0,1,59.63,153.16Zm3.57-17.95a9.5,9.5,0,0,0-1.56-.43l.51-6.09a14.92,14.92,0,0,1,2,.45Q63.56,132.14,63.2,135.21Zm-3.88-.63a9.22,9.22,0,0,0-1.4.14l-1.71-5.86a16.07,16.07,0,0,1,3.42-.37h.19ZM54,129.53l1.71,5.84a9.69,9.69,0,0,0-1.24.64l-3.72-4.83A16,16,0,0,1,54,129.53Zm-5.09,3.08,3.71,4.82a9.19,9.19,0,0,0-.93,1l-5.21-3.17A16.4,16.4,0,0,1,48.88,132.61Zm-3.64,4.69,5.2,3.17a11.27,11.27,0,0,0-.5,1.3l-6-1.06A16.43,16.43,0,0,1,45.24,137.3Zm4.3,6.77c0,.21,0,.41,0,.62s0,.52,0,.78l-6,1.17a15.23,15.23,0,0,1,0-3.64Zm.45,3.7a11.1,11.1,0,0,0,.53,1.28l-5.16,3.27A16.06,16.06,0,0,1,44,148.93ZM51.76,151a9.28,9.28,0,0,0,1,1L49.08,157a16.38,16.38,0,0,1-2.46-2.67Zm2.83,2.42a9,9,0,0,0,1.25.61l-1.62,5.87A15.88,15.88,0,0,1,51,158.34Zm3.5,1.23a9.22,9.22,0,0,0,1.4.12l.6,6.06-.46,0a16.52,16.52,0,0,1-3.16-.31Zm4.33,6-.61-6.08a9.59,9.59,0,0,0,1.39-.4q.36,3.08.93,6.08A16.34,16.34,0,0,1,62.42,160.64ZM55.38,98l5.76,2a9,9,0,0,0-.19,1.37l-6.12.25A16.25,16.25,0,0,1,55.38,98ZM76.5,99.12c-4.62-4.06-8.79,1.12-10.46.16,1.67,1-.73,7.16,5.08,9.14-.36.71-.7,1.43-1,2.15a8.17,8.17,0,0,1-3.3-1.07A8.48,8.48,0,1,1,77.86,97.15C77.4,97.8,77,98.46,76.5,99.12Zm2.37-3.36a10.66,10.66,0,0,0-1.15-1.18l3.49-5A16.91,16.91,0,0,1,82.73,91C81.38,92.52,80.1,94.12,78.87,95.76Zm-3.06-2.51a10.48,10.48,0,0,0-1.28-.58L76,86.74a17,17,0,0,1,3.16,1.39l.16.11Zm-3.55-1.14a10.7,10.7,0,0,0-1.39-.06l-.8-6a15.3,15.3,0,0,1,3.63.2Zm-4.51-5.78.8,6-.14,0a9.83,9.83,0,0,0-1.19.41L64.3,87.45A16.36,16.36,0,0,1,67.75,86.33Zm-5.5,2.24,2.92,5.34a11.41,11.41,0,0,0-1.08.87l-4.65-3.91A16.15,16.15,0,0,1,62.25,88.57Zm-4.33,4.08,4.68,3.93c-.12.17-.23.34-.34.52s-.24.46-.36.7l-5.76-2A15.06,15.06,0,0,1,57,94.06C57.29,93.57,57.59,93.1,57.92,92.65ZM61,103.72a10.32,10.32,0,0,0,.31,1.36l-5.6,2.42c-.13-.38-.26-.76-.36-1.15A15.21,15.21,0,0,1,55,104Zm1.24,3.51a11,11,0,0,0,.77,1.15l-4.33,4.28a15.78,15.78,0,0,1-2-3ZM64.7,110a11.7,11.7,0,0,0,1.14.81l-2.5,5.55-.41-.21a16.55,16.55,0,0,1-2.58-1.85ZM68,111.8a9.88,9.88,0,0,0,1.4.35q-1.22,2.8-2.23,5.73a17.23,17.23,0,0,1-1.69-.51ZM89.74,81.42l5-3.57a9.27,9.27,0,0,0,1.06,1c-1.64,1.23-3.24,2.51-4.79,3.86A16.87,16.87,0,0,1,89.74,81.42Zm18.68-10.3c-2-5.81-8.18-3.41-9.14-5.08,1,1.67-4.22,5.84-.16,10.46-.66.45-1.32.9-2,1.36A8.47,8.47,0,1,1,109.5,66.79a8.17,8.17,0,0,1,1.07,3.3C109.85,70.42,109.13,70.76,108.42,71.12Zm3.73-1.74a11,11,0,0,0-.4-1.57l5.52-2.6a16.17,16.17,0,0,1,.61,1.94Q115,68.17,112.15,69.38Zm-1.39-3.68a11.78,11.78,0,0,0-.82-1.14l4.21-4.41a16.32,16.32,0,0,1,2,2.78l.08.17Zm-2.51-2.76a10.12,10.12,0,0,0-1.17-.75l2.32-5.63a16,16,0,0,1,3,2Zm-3.33-1.64-.14,0a10.68,10.68,0,0,0-1.23-.24l.14-6.08a15.92,15.92,0,0,1,3.55.75ZM101.21,61a10.54,10.54,0,0,0-1.37.21l-2.07-5.71a16.31,16.31,0,0,1,3.59-.59Zm-5.65-4.72L97.65,62l-.55.28a7.48,7.48,0,0,0-.66.43l-4-4.6A15.28,15.28,0,0,1,94.06,57C94.55,56.72,95.06,56.47,95.56,56.24Zm-4.88,3.39,4,4.59a11.13,11.13,0,0,0-.85,1.1l-5.41-2.84A15.88,15.88,0,0,1,90.68,59.63Zm-3.34,4.92,5.39,2.83a10.87,10.87,0,0,0-.41,1.34l-6-.7A16.38,16.38,0,0,1,87.34,64.55ZM92.05,71a10.81,10.81,0,0,0,.09,1.39L86.25,74A16.43,16.43,0,0,1,86,70.34Zm.68,3.65a10.48,10.48,0,0,0,.6,1.27l-5,3.56-.25-.39a15.91,15.91,0,0,1-1.3-2.9Zm35.76-15.06a15.76,15.76,0,0,1,.32-3.16l5.88,1.62a10.71,10.71,0,0,0-.12,1.4l-6.06.6C128.5,59.94,128.49,59.79,128.49,59.63Zm25.67,3.57a10.64,10.64,0,0,0,.44-1.56l6.09.51a18.92,18.92,0,0,1-.45,2Q157.24,63.56,154.16,63.2Zm-9.47-9.32c0,1.92-6.56,2.94-5.38,8.95-.8.05-1.59.11-2.38.19a8.35,8.35,0,0,1-.72-3.39A8.48,8.48,0,1,1,152.45,63c-.79-.08-1.59-.14-2.38-.19C151.24,56.82,144.69,55.8,144.69,53.88Zm16.18,5.94-6.08-.5a9.22,9.22,0,0,0-.14-1.4l5.86-1.71a16.07,16.07,0,0,1,.37,3.42A1.15,1.15,0,0,1,160.87,59.82ZM154,55.68a9.69,9.69,0,0,0-.64-1.24l4.84-3.72A16.51,16.51,0,0,1,159.84,54Zm-2.06-3.09a8.33,8.33,0,0,0-1-.93l3.16-5.21a16,16,0,0,1,2.7,2.43Zm-3-2.15a11.27,11.27,0,0,0-1.3-.5l1.07-6a16.56,16.56,0,0,1,3.4,1.29Zm-3.6-.9-.61,0c-.27,0-.53,0-.79,0l-1.16-6a15.15,15.15,0,0,1,3.63,0ZM140.44,44l1.17,6a10.56,10.56,0,0,0-1.29.53l-3.26-5.16A16,16,0,0,1,140.44,44Zm-5.35,2.6,3.25,5.14a10.15,10.15,0,0,0-1,1l-4.89-3.63A15.92,15.92,0,0,1,135.09,46.62ZM131,51l4.88,3.63a9,9,0,0,0-.61,1.25l-5.87-1.62A15.91,15.91,0,0,1,131,51Zm-2.3,11.46,6.07-.61a9.59,9.59,0,0,0,.4,1.39q-3.08.36-6.07.93A14.15,14.15,0,0,1,128.74,62.42ZM198.4,82.73c-1.55-1.35-3.15-2.63-4.79-3.86a9.79,9.79,0,0,0,1.18-1.14l5,3.48A15.57,15.57,0,0,1,198.4,82.73ZM190.09,66c-1,1.67-7.15-.73-9.14,5.08-.71-.36-1.43-.7-2.15-1a8.45,8.45,0,0,1,12.65-6.4,8.49,8.49,0,0,1,3.11,11.58,8.53,8.53,0,0,1-2.34,2.59l-2-1.36C194.31,71.88,189.13,67.71,190.09,66Zm11.15,13.09c0,.05-.07.1-.1.16l-5-3.48a10.41,10.41,0,0,0,.57-1.28L202.63,76A16.34,16.34,0,0,1,201.24,79.13Zm1.93-5.43-5.91-1.44a10.7,10.7,0,0,0,.07-1.39l6-.8A16.43,16.43,0,0,1,203.17,73.7ZM197,68.55l0-.14a11.87,11.87,0,0,0-.4-1.19l5.33-2.92a16.39,16.39,0,0,1,1.13,3.45Zm-1.56-3.38a10,10,0,0,0-.87-1.08l3.91-4.65a16.68,16.68,0,0,1,2.31,2.81Zm-2.67-2.57-.52-.34c-.23-.13-.46-.24-.7-.36l2-5.76a15.73,15.73,0,0,1,1.75.86c.49.29,1,.59,1.41.92Zm-3.42-1.46A9.34,9.34,0,0,0,188,61l-.25-6.11a15.76,15.76,0,0,1,3.61.54Zm-4-6.19.24,6.09a10.69,10.69,0,0,0-1.36.31l-2.42-5.6c.38-.13.76-.26,1.15-.36A15.21,15.21,0,0,1,185.41,55Zm-5.69,1.73,2.43,5.6a11.1,11.1,0,0,0-1.16.77l-4.28-4.33A15.78,15.78,0,0,1,179.72,56.68ZM175,60.35l4.29,4.35a10.13,10.13,0,0,0-.8,1.14L173,63.34c.08-.14.14-.28.22-.41A15.33,15.33,0,0,1,175,60.35Zm-3,5.11L177.57,68a11.46,11.46,0,0,0-.35,1.4q-2.81-1.22-5.72-2.23A14.87,14.87,0,0,1,172,65.46Zm48,46.69a10.63,10.63,0,0,0,1.57-.4l2.6,5.52a16.17,16.17,0,0,1-1.94.61C221.55,115.93,220.8,114,220,112.15Zm-7.12-13c-.44-.66-.89-1.32-1.35-2a8.19,8.19,0,0,1,2.59-2.34,8.47,8.47,0,0,1,12.42,9.53,8.4,8.4,0,0,1-3.95,5.15,8.08,8.08,0,0,1-3.29,1.07c-.33-.72-.68-1.44-1-2.15,5.8-2,3.4-8.18,5.07-9.14C221.66,100.24,217.49,95.06,212.87,99.12Zm13.4,17.15-2.6-5.51a11.78,11.78,0,0,0,1.14-.82l4.41,4.21a15.93,15.93,0,0,1-2.78,2Zm4.56-3.82-4.4-4.2a8.94,8.94,0,0,0,.75-1.17l5.64,2.32A16,16,0,0,1,230.83,112.45Zm2.87-5.21-5.62-2.32s0-.09,0-.14a8.9,8.9,0,0,0,.24-1.23l6.09.14A16.5,16.5,0,0,1,233.7,107.24Zm-5.28-6a10.44,10.44,0,0,0-.22-1.38l5.71-2.07a15.21,15.21,0,0,1,.59,3.59Zm-1-3.57a5.68,5.68,0,0,0-.28-.55,7.48,7.48,0,0,0-.43-.66l4.6-4a14.75,14.75,0,0,1,1.85,3.12Zm-2.24-3a10,10,0,0,0-1.09-.85l2.84-5.42a15.26,15.26,0,0,1,2.85,2.28ZM222,92.73a9.91,9.91,0,0,0-1.34-.41l.71-6.06c.39.08.78.15,1.18.26a15.79,15.79,0,0,1,2.28.81Zm-3.66-.68a10.93,10.93,0,0,0-1.39.09l-1.54-5.9A15.82,15.82,0,0,1,219,86Zm-5.19-5.23,1.54,5.92a9.67,9.67,0,0,0-1.27.59l-3.55-5,.39-.25A17,17,0,0,1,213.14,86.82ZM208,89.74l3.56,5a10.22,10.22,0,0,0-1,1.06q-1.84-2.46-3.85-4.79A15.24,15.24,0,0,1,208,89.74Zm21.78,46.47a8.48,8.48,0,1,1-3.38,16.24c.07-.79.13-1.59.18-2.38,6,1.17,7-5.38,9-5.38-1.92,0-2.94-6.56-9-5.38,0-.8-.11-1.59-.18-2.38A8.3,8.3,0,0,1,229.74,136.21Zm-3.57,17.95a10.64,10.64,0,0,0,1.56.44l-.51,6.09a18.92,18.92,0,0,1-2-.45Q225.83,157.24,226.17,154.16Zm3.89.63a9.09,9.09,0,0,0,1.39-.14l1.72,5.86a16.16,16.16,0,0,1-3.43.37h-.19Zm5.34,5.05L233.69,154a9.69,9.69,0,0,0,1.24-.64l3.72,4.84A16.51,16.51,0,0,1,235.4,159.84Zm5.09-3.08-3.71-4.82a9.29,9.29,0,0,0,.94-1l5.2,3.16A16,16,0,0,1,240.49,156.76Zm3.65-4.69-5.21-3.17a11.27,11.27,0,0,0,.5-1.3l6,1.07A16,16,0,0,1,244.14,152.07Zm-4.31-6.77c0-.2,0-.41,0-.61s0-.53,0-.79l6-1.16a17.91,17.91,0,0,1,.12,1.95c0,.56,0,1.13-.08,1.68Zm-.45-3.69a9.15,9.15,0,0,0-.52-1.29l5.16-3.26a16,16,0,0,1,1.33,3.38Zm-1.76-3.27a11.58,11.58,0,0,0-1-1l3.63-4.89a16.41,16.41,0,0,1,2.47,2.66Zm-2.84-2.42a9.5,9.5,0,0,0-1.24-.61l1.61-5.87a16.25,16.25,0,0,1,3.27,1.6Zm-3.5-1.23a10.56,10.56,0,0,0-1.39-.12l-.61-6.06.46,0a15.68,15.68,0,0,1,3.16.32ZM227,128.74l.6,6.07a10,10,0,0,0-1.39.4q-.34-3.08-.93-6.07A14.31,14.31,0,0,1,227,128.74Zm-2.68,35.84c.23-.91.44-1.81.63-2.73a17.84,17.84,0,1,0,0-34.33c-.19-.91-.4-1.82-.63-2.72l.08,0A20.62,20.62,0,0,1,249,137.43c.1.26,2,5.25,4.75,7.26-2.75,2-4.65,7-4.75,7.25a20.72,20.72,0,0,1-19.3,13.36,21,21,0,0,1-5.36-.7Zm33.09-95.87c3.84,2.56,7.29,4.86,9.94,5.17-1.06,2.46-.79,6.59-.49,11.2.35,5.36.73,11.39-1.15,14.69a24.78,24.78,0,0,0-6.82-4.64,8.35,8.35,0,0,0-1.92-.45,14,14,0,0,0-12.81-22.2,8.07,8.07,0,0,0,.59-1.9,24.65,24.65,0,0,0-.62-8.22C247.89,62.4,252.91,65.73,257.37,68.71ZM240.15,49.23c-.18,1.94.45,5,1.37,9,1,4.29,2.07,9.15,1.57,12.06-.62,3.57-4,5.85-7.66,8.26A33.45,33.45,0,0,0,229.67,83a22.39,22.39,0,0,0-22.47-.13,23.54,23.54,0,0,0-2.12,1.4,22.68,22.68,0,0,0,1.4-2.11,22.39,22.39,0,0,0-.13-22.48A33.74,33.74,0,0,0,210.8,54c2.41-3.62,4.69-7,8.26-7.65,2.9-.51,7.77.59,12.05,1.56C235.2,48.79,238.21,49.42,240.15,49.23ZM204.29,22.55c4.6.3,8.74.57,11.19-.5.31,2.66,2.61,6.11,5.17,10,3,4.47,6.34,9.5,6.35,13.3a24.63,24.63,0,0,0-8.22-.62,8.31,8.31,0,0,0-1.89.58A14,14,0,0,0,194.7,32.44a7.91,7.91,0,0,0-.45-1.94,24.17,24.17,0,0,0-4.64-6.81C192.92,21.82,198.93,22.2,204.29,22.55Zm-33.16-4.92c4-1.25,6.92-2.2,8.5-3.34.82,1.77,2.87,4.05,5.7,7.12,3,3.23,6.36,6.89,7.38,9.65,1.25,3.41-.57,7.09-2.5,11a33.3,33.3,0,0,0-2.75,6.74,22.38,22.38,0,0,0-19.53,11.13,21.73,21.73,0,0,0-1.14,2.26,21.18,21.18,0,0,0,.16-2.52A22.4,22.4,0,0,0,155.6,40.25a34.07,34.07,0,0,0,1-7.19c.28-4.34.54-8.44,3.32-10.76C162.17,20.41,166.93,18.93,171.13,17.63Zm-35.9-8.52c4.14-2,7.86-3.88,9.45-6,1.6,2.14,5.31,4,9.45,6,4.82,2.38,10.23,5.06,12.15,8.34A24.61,24.61,0,0,0,158.85,21a8.33,8.33,0,0,0-1.35,1.44,14,14,0,0,0-25.63,0A8.07,8.07,0,0,0,130.52,21a24.9,24.9,0,0,0-7.42-3.58C125,14.16,130.42,11.49,135.23,9.11ZM104.05,21.43c2.84-3.07,4.9-5.37,5.7-7.14,1.59,1.12,4.51,2.08,8.49,3.31,4.2,1.31,9,2.79,11.22,4.68,2.79,2.32,3,6.42,3.33,10.76a33.7,33.7,0,0,0,1,7.21,22.4,22.4,0,0,0-11.35,19.41,23.51,23.51,0,0,0,.15,2.52,23.81,23.81,0,0,0-1.13-2.26,22.39,22.39,0,0,0-19.53-11.13,33.72,33.72,0,0,0-2.75-6.72c-1.93-3.9-3.75-7.58-2.5-11C97.69,28.32,101.07,24.66,104.05,21.43ZM68.71,32c2.56-3.84,4.86-7.28,5.17-9.94,2.46,1.06,6.59.79,11.2.49,5.36-.34,11.39-.73,14.69,1.15a24.78,24.78,0,0,0-4.64,6.82,8.35,8.35,0,0,0-.45,1.92,14,14,0,0,0-22.2,12.81,8.06,8.06,0,0,0-1.9-.58,24.6,24.6,0,0,0-8.22.61C62.39,41.48,65.73,36.47,68.71,32ZM47.87,58.26c.92-4.08,1.56-7.1,1.36-9,1.94.19,4.94-.45,9-1.37,4.29-1,9.15-2.06,12.06-1.56,3.57.62,5.85,4,8.26,7.66A33.37,33.37,0,0,0,83,59.7a22.41,22.41,0,0,0-.13,22.48,24.88,24.88,0,0,0,1.4,2.11,24.88,24.88,0,0,0-2.11-1.4A22.43,22.43,0,0,0,59.7,83,33.7,33.7,0,0,0,54,78.58c-3.62-2.41-7-4.69-7.66-8.27C45.8,67.41,46.9,62.55,47.87,58.26ZM22.55,85.09c.3-4.61.57-8.74-.5-11.2,2.66-.31,6.11-2.61,10-5.17,4.47-3,9.5-6.33,13.3-6.35a24.65,24.65,0,0,0-.62,8.22,8.16,8.16,0,0,0,.58,1.89A14,14,0,0,0,32.44,94.67a8.39,8.39,0,0,0-1.94.45,24.6,24.6,0,0,0-6.81,4.64C21.82,96.45,22.2,90.44,22.55,85.09Zm-8.26,24.65c1.77-.81,4.05-2.86,7.12-5.69,3.23-3,6.89-6.37,9.65-7.38,3.41-1.25,7.09.57,11,2.5a33.89,33.89,0,0,0,6.74,2.75,22.4,22.4,0,0,0,11.13,19.53,23.81,23.81,0,0,0,2.26,1.13,23.51,23.51,0,0,0-2.52-.15,22.4,22.4,0,0,0-19.41,11.35,32.81,32.81,0,0,0-7.19-1c-4.34-.28-8.44-.55-10.76-3.33-1.89-2.27-3.37-7-4.67-11.22C16.38,114.25,15.43,111.33,14.29,109.74Zm-5.18,44.4c-2-4.14-3.88-7.85-6-9.45,2.14-1.59,4-5.31,6-9.45,2.38-4.82,5.06-10.23,8.34-12.15A24.61,24.61,0,0,0,21,130.52a7.63,7.63,0,0,0,1.44,1.35,14,14,0,0,0,0,25.63A8.13,8.13,0,0,0,21,158.86a24.66,24.66,0,0,0-3.58,7.42C14.16,164.35,11.49,159,9.11,154.14Zm5.17,25.48c1.13-1.58,2.08-4.51,3.32-8.49,1.31-4.2,2.79-9,4.68-11.22,2.32-2.78,6.42-3,10.76-3.33a33.08,33.08,0,0,0,7.21-1A22.4,22.4,0,0,0,59.66,167a21.18,21.18,0,0,0,2.52-.16,21.73,21.73,0,0,0-2.26,1.14,22.37,22.37,0,0,0-11.13,19.52,34.33,34.33,0,0,0-6.72,2.75c-3.9,1.93-7.58,3.75-11,2.5-2.77-1-6.43-4.4-9.66-7.38C18.36,182.48,16.07,180.42,14.28,179.62Zm17.72,41c-3.84-2.56-7.28-4.86-9.94-5.17,1.06-2.45.79-6.59.49-11.19-.34-5.37-.73-11.39,1.15-14.7a24.62,24.62,0,0,0,6.82,4.65,8.32,8.32,0,0,0,1.92.44A14.06,14.06,0,0,0,43.79,217a14.44,14.44,0,0,0,1.46-.08,7.92,7.92,0,0,0-.58,1.9,24.56,24.56,0,0,0,.61,8.21C41.48,227,36.47,223.64,32,220.66Zm17.22,19.48c.19-1.94-.45-4.94-1.37-9-1-4.29-2.07-9.15-1.56-12,.62-3.58,4-5.86,7.66-8.27a33.11,33.11,0,0,0,5.76-4.47,22.35,22.35,0,0,0,22.47.14,22.68,22.68,0,0,0,2.11-1.4,23.54,23.54,0,0,0-1.4,2.12A22.41,22.41,0,0,0,83,229.67a33.7,33.7,0,0,0-4.44,5.74c-2.41,3.62-4.69,7-8.27,7.66-2.9.5-7.76-.6-12.05-1.56C54.18,240.58,51.16,240,49.22,240.14Zm35.87,26.68c-4.61-.29-8.74-.56-11.2.5-.31-2.66-2.61-6.1-5.17-9.94-3-4.48-6.33-9.5-6.35-13.3a34,34,0,0,0,6.25.76,12,12,0,0,0,2-.15,8.16,8.16,0,0,0,1.89-.58,14,14,0,0,0,22.19,12.82,9.16,9.16,0,0,0,.45,1.95,24.9,24.9,0,0,0,4.64,6.81C96.45,267.56,90.44,267.17,85.09,266.82Zm33.16,4.93c-4,1.24-6.93,2.19-8.51,3.33-.81-1.76-2.86-4.05-5.69-7.11-3-3.23-6.37-6.89-7.38-9.66-1.25-3.4.57-7.09,2.5-11a33.65,33.65,0,0,0,2.75-6.74,22.38,22.38,0,0,0,19.53-11.13,23.81,23.81,0,0,0,1.13-2.26,23.69,23.69,0,0,0-.15,2.53,22.4,22.4,0,0,0,11.35,19.4,33,33,0,0,0-1,7.19c-.28,4.34-.55,8.44-3.33,10.76C127.2,269,122.45,270.44,118.25,271.75Zm35.89,8.51c-4.14,2.05-7.85,3.88-9.45,6-1.59-2.15-5.31-4-9.45-6-4.82-2.38-10.23-5.06-12.15-8.34a24.61,24.61,0,0,0,7.43-3.58,8,8,0,0,0,1.35-1.45,14,14,0,0,0,25.63,0,8.13,8.13,0,0,0,1.36,1.46,24.43,24.43,0,0,0,7.42,3.58C164.35,275.21,159,277.89,154.14,280.26Zm31.18-12.32c-2.84,3.08-4.9,5.37-5.7,7.15-1.58-1.13-4.5-2.08-8.49-3.32-4.2-1.3-9-2.78-11.22-4.67-2.78-2.33-3-6.43-3.33-10.77a33.08,33.08,0,0,0-1-7.21A22.4,22.4,0,0,0,167,229.72a21.35,21.35,0,0,0-.16-2.53,21.73,21.73,0,0,0,1.14,2.26,22.35,22.35,0,0,0,19.52,11.13,34.33,34.33,0,0,0,2.75,6.72c1.93,3.9,3.75,7.58,2.5,11C191.69,261.05,188.3,264.71,185.32,267.94Zm35.34-10.57c-2.56,3.84-4.86,7.29-5.17,9.94-2.45-1.06-6.59-.79-11.19-.49-5.37.35-11.39.74-14.7-1.15a24.62,24.62,0,0,0,4.65-6.82,8.32,8.32,0,0,0,.44-1.92,14,14,0,0,0,22.2-12.81,8,8,0,0,0,1.91.59,12.13,12.13,0,0,0,2,.15,33,33,0,0,0,6.24-.77C227,247.9,223.64,252.91,220.66,257.37Zm20.85-26.25c-.93,4.08-1.56,7.09-1.37,9-1.93-.18-4.94.45-9,1.37-4.29,1-9.15,2.07-12,1.57-3.58-.62-5.86-4-8.27-7.66a33.45,33.45,0,0,0-4.46-5.76,22.37,22.37,0,0,0,.13-22.47,21.57,21.57,0,0,0-1.4-2.12,21.57,21.57,0,0,0,2.12,1.4,22.33,22.33,0,0,0,22.46-.14,34.27,34.27,0,0,0,5.75,4.46c3.62,2.41,7,4.69,7.66,8.26C243.57,222,242.47,226.83,241.51,231.12Zm25.31-26.83c-.29,4.6-.56,8.74.5,11.19-2.66.31-6.1,2.61-9.94,5.17-4.48,3-9.51,6.34-13.31,6.35a24.63,24.63,0,0,0,.62-8.22,8.74,8.74,0,0,0-.57-1.88,14.44,14.44,0,0,0,1.46.08,14.06,14.06,0,0,0,11.36-22.28,8,8,0,0,0,1.94-.45,24.45,24.45,0,0,0,6.81-4.64C267.56,192.92,267.17,198.93,266.82,204.29Zm8.26-24.66c-1.77.81-4.05,2.87-7.11,5.7-3.23,3-6.89,6.36-9.66,7.38-3.4,1.25-7.09-.57-11-2.5a33.07,33.07,0,0,0-6.74-2.75,22.35,22.35,0,0,0-11.13-19.53,21.73,21.73,0,0,0-2.26-1.14,21.35,21.35,0,0,0,2.53.16,22.4,22.4,0,0,0,19.4-11.35,34.16,34.16,0,0,0,7.19,1c4.34.28,8.44.54,10.76,3.32,1.89,2.27,3.37,7,4.68,11.23C273,175.12,274,178.05,275.08,179.63Zm5.18-25.5c-2.38,4.82-5.06,10.23-8.34,12.15a24.61,24.61,0,0,0-3.58-7.43,8.77,8.77,0,0,0-1.45-1.35,14,14,0,0,0,0-25.63,8.07,8.07,0,0,0,1.46-1.35,24.66,24.66,0,0,0,3.58-7.42c3.27,1.93,5.95,7.32,8.32,12.14,2.05,4.13,3.88,7.85,6,9.44C284.14,146.28,282.31,150,280.26,154.13Z"/><path class="cls-1" d="M271.37,158.44a.88.88,0,0,0-.19,1.17.82.82,0,0,0,1.2.18.84.84,0,0,0,.17-1.2A.86.86,0,0,0,271.37,158.44Z"/><path class="cls-1" d="M273.79,156.25a.89.89,0,0,0,0,1.19.81.81,0,0,0,1.21-.05.84.84,0,1,0-1.24-1.14Z"/><path class="cls-1" d="M276.9,153.35a.86.86,0,0,0-1.15.3.88.88,0,0,0,.25,1.16.83.83,0,0,0,1.19-.28A.84.84,0,0,0,276.9,153.35Z"/><path class="cls-1" d="M278.26,150.21a.85.85,0,0,0-1.07.51.88.88,0,0,0,.46,1.09.81.81,0,0,0,1.11-.49A.84.84,0,0,0,278.26,150.21Z"/><path class="cls-1" d="M279,146.88a.85.85,0,0,0-.95.7.87.87,0,0,0,.66,1,.83.83,0,0,0,1-.69A.84.84,0,0,0,279,146.88Z"/><path class="cls-1" d="M279.07,143.46a.84.84,0,0,0-.78.87.84.84,0,1,0,1.68,0A.86.86,0,0,0,279.07,143.46Z"/><path class="cls-1" d="M277.91,141.09a.84.84,0,0,0,1,.67.86.86,0,0,0,.68-1,.84.84,0,1,0-1.65.35Z"/><path class="cls-1" d="M276.92,138a.87.87,0,0,0,1.09.47.85.85,0,0,0,.47-1.13.84.84,0,0,0-1.14-.45A.89.89,0,0,0,276.92,138Z"/><path class="cls-1" d="M276.53,135.38a.85.85,0,0,0,.24-1.2.82.82,0,0,0-1.2-.22.89.89,0,0,0-.2,1.17A.86.86,0,0,0,276.53,135.38Z"/><path class="cls-1" d="M273.28,131.42a.89.89,0,0,0,0,1.19.87.87,0,0,0,1.19,0,.85.85,0,0,0,0-1.22A.83.83,0,0,0,273.28,131.42Z"/><path class="cls-1" d="M270.55,129.37a.89.89,0,0,0,.24,1.16.87.87,0,0,0,1.18-.2.85.85,0,0,0-.23-1.2A.82.82,0,0,0,270.55,129.37Z"/><path class="cls-1" d="M262.37,92.79a.87.87,0,0,0-1.1.46.9.9,0,0,0,.42,1.11.81.81,0,0,0,1.13-.44A.84.84,0,0,0,262.37,92.79Z"/><path class="cls-1" d="M263.26,89.49a.87.87,0,0,0-1,.66.88.88,0,0,0,.62,1,.81.81,0,0,0,1-.65A.84.84,0,0,0,263.26,89.49Z"/><path class="cls-1" d="M263.52,86.08a.87.87,0,0,0-.85.84.89.89,0,0,0,.8.87.82.82,0,0,0,.89-.83A.85.85,0,0,0,263.52,86.08Z"/><path class="cls-1" d="M262.45,83.67a.89.89,0,0,0,.95.71.84.84,0,0,0,.72-1,.85.85,0,0,0-1-.7A.86.86,0,0,0,262.45,83.67Z"/><path class="cls-1" d="M261.62,80.52a.88.88,0,0,0,1.07.52.85.85,0,0,0,.52-1.11.86.86,0,0,0-1.12-.5A.85.85,0,0,0,261.62,80.52Z"/><path class="cls-1" d="M261.34,77.89a.84.84,0,0,0,.31-1.18.85.85,0,0,0-1.19-.28.83.83,0,0,0-.25,1.15A.85.85,0,0,0,261.34,77.89Z"/><path class="cls-1" d="M259.44,75.06a.87.87,0,0,0,.08-1.23.85.85,0,1,0-.08,1.23Z"/><path class="cls-1" d="M257,72.63a.85.85,0,0,0-.16-1.21.82.82,0,0,0-1.2.18.87.87,0,0,0,.19,1.17A.84.84,0,0,0,257,72.63Z"/><path class="cls-1" d="M253.08,71.07a.86.86,0,0,0,1.13-.37.84.84,0,0,0-.39-1.15.83.83,0,0,0-1.15.4A.89.89,0,0,0,253.08,71.07Z"/><path class="cls-1" d="M250,69.92a.85.85,0,0,0,1-.57.84.84,0,0,0-.6-1.06.82.82,0,0,0-1.05.61A.88.88,0,0,0,250,69.92Z"/><path class="cls-1" d="M246.82,69.37a.85.85,0,0,0,.91-.76.83.83,0,0,0-.78-.92.82.82,0,0,0-.92.8A.88.88,0,0,0,246.82,69.37Z"/><path class="cls-1" d="M219.94,41.85a.88.88,0,0,0,.92.75.82.82,0,0,0,.75-1,.84.84,0,0,0-1-.75A.86.86,0,0,0,219.94,41.85Z"/><path class="cls-1" d="M219.25,38.66a.89.89,0,0,0,1.05.57.82.82,0,0,0,.56-1.08.84.84,0,0,0-1.08-.55A.86.86,0,0,0,219.25,38.66Z"/><path class="cls-1" d="M219.11,36a.81.81,0,0,0,.35-1.16.83.83,0,0,0-1.16-.34.86.86,0,0,0-.32,1.14A.87.87,0,0,0,219.11,36Z"/><path class="cls-1" d="M217.34,33.1a.82.82,0,0,0,.13-1.21.84.84,0,1,0-1.3,1.07A.88.88,0,0,0,217.34,33.1Z"/><path class="cls-1" d="M215.05,30.56a.82.82,0,0,0-.1-1.21.86.86,0,0,0-1.22.12.87.87,0,0,0,.14,1.18A.88.88,0,0,0,215.05,30.56Z"/><path class="cls-1" d="M211.18,28.81a.84.84,0,1,0-.36-1.12A.84.84,0,0,0,211.18,28.81Z"/><path class="cls-1" d="M208.19,27.52a.84.84,0,0,0,1.06-.51.86.86,0,1,0-1.06.51Z"/><path class="cls-1" d="M205,26.82a.85.85,0,1,0,.21-1.68.82.82,0,0,0-1,.76A.87.87,0,0,0,205,26.82Z"/><path class="cls-1" d="M201.75,26.73a.87.87,0,0,0,.8-.88.85.85,0,0,0-.92-.8.82.82,0,0,0-.79.92A.88.88,0,0,0,201.75,26.73Z"/><path class="cls-1" d="M198.53,27.27a.86.86,0,0,0,.62-1,.84.84,0,0,0-1.05-.62.83.83,0,0,0-.6,1.06A.88.88,0,0,0,198.53,27.27Z"/><path class="cls-1" d="M195.48,28.4a.86.86,0,0,0,.41-1.12.83.83,0,0,0-1.14-.4.82.82,0,0,0-.4,1.14A.89.89,0,0,0,195.48,28.4Z"/></g></g></svg>