<svg xmlns="http://www.w3.org/2000/svg" viewBox="0 0 55.41 55.41"><title>bell</title><g id="Layer_2" data-name="Layer 2"><g id="Layer_1-2" data-name="Layer 1"><path d="M24.87,50.8a8,8,0,0,1-5.59,2.3,7.8,7.8,0,0,1-5.49-2.25,8.18,8.18,0,0,1,0-11.19ZM49.94,0A5.57,5.57,0,0,0,46,1.64h0A5.51,5.51,0,0,1,40.67,3.1C27-.54,15.25,21.15,3.24,15.05L0,18.3,37.12,55.41l3.24-3.24c-6.1-12,15.6-23.74,12-37.43a5.53,5.53,0,0,1,1.45-5.31h0a5.61,5.61,0,0,0,1.64-4A5.46,5.46,0,0,0,49.94,0Zm-8,31c-4.68,6.83-6.3,9.77-7.25,15.39L9,20.75l1.21-.21c5.17-.86,10-4.14,14.19-7,5.11-3.5,10.4-7.2,15.11-5.94a11.67,11.67,0,0,1,8.37,8.37C49.09,20.57,45.6,25.65,41.91,31ZM52,7.17a2.62,2.62,0,1,1,0-3.72A2.62,2.62,0,0,1,52,7.17Z"/></g></g></svg>