<svg xmlns="http://www.w3.org/2000/svg" viewBox="0 0 83.6 76.64"><title>comm_1</title><g id="Layer_2" data-name="Layer 2"><g id="Layer_1-2" data-name="Layer 1"><path d="M41.8,7C61,7,76.64,19.08,76.64,34s-15.61,27-34.79,27c-2.16,0-3.8-.16-6.13-.33-3.48,2.7-6.18,4.88-12.14,6.83.91-4.82-.39-7.87-1.79-11.35C13.49,50.85,7,44.21,7,34,7,19.08,22.59,7,41.8,7Zm0-7C18.72,0,0,15.2,0,34,0,44.86,6.33,54.56,16.17,60.77c3,7.55-3.78,14-11,15.69,10.74.92,23.6-1.68,32.65-8.7C62.54,69.64,83.6,53.87,83.6,34,83.6,15.2,64.89,0,41.8,0Z"/></g></g></svg>