<svg xmlns="http://www.w3.org/2000/svg" viewBox="0 0 143.47 143.47"><title>copy</title><g id="Layer_2" data-name="Layer 2"><g id="Layer_1-2" data-name="Layer 1"><path d="M71.74,12A59.78,59.78,0,1,1,12,71.74,59.84,59.84,0,0,1,71.74,12Zm0-12a71.74,71.74,0,1,0,71.73,71.74A71.74,71.74,0,0,0,71.74,0Zm0,94.34a22.61,22.61,0,1,1,0-45.21c7,0,13.78,3.13,18.74,10l11.1-7.28c-7.65-10.92-18.73-16-29.84-16a35.87,35.87,0,1,0,0,71.73c11.24,0,22.26-5.13,29.85-16l-11.1-7.28C85.54,91.18,78.78,94.34,71.74,94.34Z"/></g></g></svg>