<svg xmlns="http://www.w3.org/2000/svg" viewBox="0 0 52.53 45.96"><defs><style>.cls-1{fill-rule:evenodd;}</style></defs><title>food</title><g id="Layer_2" data-name="Layer 2"><g id="Layer_1-2" data-name="Layer 1"><path class="cls-1" d="M2.2,19.16C2.29,6.83,13.81,0,26.49,0,38.69,0,50.4,6.61,50.33,19.16a6.57,6.57,0,0,1,.53,9.28,6.62,6.62,0,0,1,1.66,4.05,6.55,6.55,0,0,1-2.26,5.29c.61,5.11-2,8-6.28,8.15-1.31,0-32.68,0-35.43,0-4.75-.15-6.81-3.39-6.3-8.19a6.55,6.55,0,0,1-.57-9.32,6.56,6.56,0,0,1,.52-9.28ZM6.55,39.39h0c.07,1.73.58,2.14,2.09,2.18,2.71,0,34,0,35.23,0,1.49-.05,2-.59,2.1-2.07C46,39.49,21.06,39.57,6.55,39.39Zm20.69-8.75a5.87,5.87,0,0,0-2.84,1c-1.94,1.14-3.47,2.29-5.8,2.27-2.59,0-4-1.21-5.62-2.24a4.49,4.49,0,0,0-2.51-1H6.4A2.19,2.19,0,0,0,6.58,35H46a2.19,2.19,0,0,0,.14-4.37C46.07,30.64,30.77,30.62,27.24,30.64ZM25.79,21.9l-19.21,0a2.19,2.19,0,1,0,0,4.38s2.25,0,4.36,0c3.16,0,5.3,3.66,7.68,3.65,2.12,0,5-3.64,8.13-3.65H46A2.19,2.19,0,0,0,48.15,24,2.15,2.15,0,0,0,46,21.88l-3.46,0a5.69,5.69,0,0,0-2.83,1c-1.95,1.14-3.48,2.3-5.81,2.27-2.59,0-4-1.2-5.62-2.24A4.49,4.49,0,0,0,25.79,21.9Zm-5-11A1.1,1.1,0,1,1,19.7,12,1.09,1.09,0,0,1,20.79,10.94Zm11,0A1.1,1.1,0,1,1,30.64,12,1.09,1.09,0,0,1,31.74,10.94Zm8.75,0A1.1,1.1,0,1,1,39.4,12,1.09,1.09,0,0,1,40.49,10.94Zm-26.26,0A1.1,1.1,0,1,1,13.13,12,1.09,1.09,0,0,1,14.23,10.94ZM25.17,8.75a1.1,1.1,0,1,1-1.09,1.09A1.09,1.09,0,0,1,25.17,8.75Zm10.94,0A1.1,1.1,0,1,1,35,9.84,1.09,1.09,0,0,1,36.11,8.75ZM18.6,6.56a1.1,1.1,0,1,1-1.09,1.09A1.09,1.09,0,0,1,18.6,6.56Zm11,0a1.1,1.1,0,1,1-1.1,1.09A1.09,1.09,0,0,1,29.55,6.56ZM46,17.5C44.05,7.25,34.25,4.34,26.26,4.38,17.67,4.41,8.19,8.2,6.57,17.51H26.26c3.16,0,5.31,3.66,7.68,3.64,2.12,0,5-3.64,8.13-3.64Z"/></g></g></svg>