<svg xmlns="http://www.w3.org/2000/svg" viewBox="0 0 62.76 57.53"><title>heart</title><g id="Layer_2" data-name="Layer 2"><g id="Layer_1-2" data-name="Layer 1"><path d="M45.8,5.23c6.23,0,11.73,4.09,11.73,12.32,0,13-17.07,21.7-26.15,31.21C22.29,39.25,5.22,30.53,5.22,17.55c0-8,5.25-12.32,11.74-12.32,8.31,0,12.67,9.53,14.42,13.89C33.12,14.76,37.48,5.23,45.8,5.23ZM45.8,0A15.72,15.72,0,0,0,31.38,8.94,15.72,15.72,0,0,0,17,0C8.06,0,0,6.25,0,17.49c0,19,25.9,28.6,31.38,40,5.48-11.44,31.38-21,31.38-40C62.76,5.5,53.83,0,45.8,0Z"/></g></g></svg>