<svg xmlns="http://www.w3.org/2000/svg" viewBox="0 0 52.33 53.78"><title>log</title><g id="Layer_2" data-name="Layer 2"><g id="Layer_1-2" data-name="Layer 1"><g id="_icons" data-name=" icons"><path d="M49.42,20.35H41.86l.87-.87a2.88,2.88,0,0,0-4.07-4.07l-5.81,5.81c-.29.29-.58.58-.58.87a3.2,3.2,0,0,0,0,2.33c.29.29.29.58.58.87l5.81,5.81a2.79,2.79,0,0,0,4.07,0,2.79,2.79,0,0,0,0-4.06l-.87-.88h7.56a2.75,2.75,0,0,0,2.91-2.9A2.75,2.75,0,0,0,49.42,20.35Z"/><path d="M37.79,34.88a2.76,2.76,0,0,0-2.91,2.91h0A2.74,2.74,0,0,1,32,40.7H29.07v-25a8.61,8.61,0,0,0-5.52-8.14L18.9,5.81H32a2.75,2.75,0,0,1,2.9,2.91,2.91,2.91,0,0,0,5.82,0A8.57,8.57,0,0,0,32,0H2.91A1.1,1.1,0,0,0,2,.29H2a1,1,0,0,0-.58.29h0L1.16.87a.62.62,0,0,0-.58.58v.29A.63.63,0,0,0,0,2.33H0V43.6a2.94,2.94,0,0,0,1.74,2.62l19.19,7.27a5,5,0,0,0,2,.29,4.36,4.36,0,0,0,3.19-1.16A6.4,6.4,0,0,0,28.78,48V46.51h2.91a8.75,8.75,0,0,0,8.72-8.72A2.68,2.68,0,0,0,37.79,34.88Zm-32,6.69V7l15.41,5.81a3.5,3.5,0,0,1,2,2.91V43.6h0V48Z"/></g></g></g></svg>