<svg xmlns="http://www.w3.org/2000/svg" viewBox="0 0 130.66 130.66"><defs><style>.cls-1{fill-rule:evenodd;}</style></defs><title>logo</title><g id="Layer_2" data-name="Layer 2"><g id="Layer_1-2" data-name="Layer 1"><path class="cls-1" d="M80.75,13.59a22,22,0,0,1,26.17,18.24,31.83,31.83,0,0,1-9.35,62.59L72.3,130.66,0,80.26,25.27,44A31.82,31.82,0,0,1,80.75,13.59ZM51,109.85l20.08,14,21-30.15a32.28,32.28,0,0,1-9.32-3.36,2.45,2.45,0,1,1,2.41-4.26c6,3.36,24.19,8.51,35.74-8.06a26.94,26.94,0,0,0-6.69-37.49c-4.41-3.08-7.93-3.79-11.67-4.77-1.64-10.67-5.27-13-7.62-14.65S89.1,16.88,78.57,19c-2.34-3.37-4.13-6.24-8.51-9.3a26.94,26.94,0,0,0-37.49,6.69C21,33,32.18,48.35,37.37,52.75a2.45,2.45,0,0,1-3.17,3.73,32.47,32.47,0,0,1-6.37-7.58l-21,30.15,20.08,14L36.7,79a2.45,2.45,0,0,1,4,2.8l-9.8,14.06L47,107.05,56.78,93a2.45,2.45,0,0,1,4,2.8Z"/></g></g></svg>