<svg xmlns="http://www.w3.org/2000/svg" viewBox="0 0 63.88 76.66"><defs><style>.cls-1{fill-rule:evenodd;}</style></defs><title>money</title><g id="Layer_2" data-name="Layer 2"><g id="Layer_1-2" data-name="Layer 1"><path class="cls-1" d="M0,30.19V0H29.87l34,33.94L51.76,46.06l5.91,15.11L18.25,76.66Zm5.62,5.59L20.06,72.52,53.53,59.37,49.3,48.52,33.94,63.88ZM3.19,3.19V28.86L33.93,59.37,59.36,33.94,28.55,3.19ZM42.32,29.68a6,6,0,0,0-4.4-2c-1.85,0-3.92.77-6.93,2.57-2.18,1.31-3.57,1.87-4.65,1.87a3.39,3.39,0,0,1-3.07-3.9A6,6,0,0,1,25.09,25c2.09-2.09,4.93-2.71,7.27-.34l2.38-2.38a8.07,8.07,0,0,0-5.63-2.53,8.31,8.31,0,0,0-5.31,2.16l-2-2-2.23,2.23,2.09,2.09c-1.82,2.64-2.69,6.45.24,9.38,3.23,3.23,7,1.73,10.9-.74a9.45,9.45,0,0,1,4.71-1.8,3.47,3.47,0,0,1,3.45,4,6.29,6.29,0,0,1-2,3.58,6.24,6.24,0,0,1-4.3,2.17,4.93,4.93,0,0,1-3.35-1.48L29,41.72a8,8,0,0,0,5.54,2.41,8.51,8.51,0,0,0,5.15-1.91l1.73,1.72,2.22-2.22-1.66-1.67c2.38-2.86,3.7-7,.38-10.37ZM12.78,6.39a6.39,6.39,0,1,1-6.39,6.39A6.39,6.39,0,0,1,12.78,6.39Zm0,3.2a3.19,3.19,0,1,1-3.2,3.19A3.19,3.19,0,0,1,12.78,9.59Z"/></g></g></svg>