<svg xmlns="http://www.w3.org/2000/svg" viewBox="0 0 58 87"><title>pin</title><g id="Layer_2" data-name="Layer 2"><g id="Layer_1-2" data-name="Layer 1"><path d="M29,7.25c11.59,0,21.75,9.49,21.75,20.31,0,8.11-3.84,12.64-9.64,19.5-3.91,4.62-8.35,9.87-12.11,17-3.76-7.16-8.2-12.41-12.11-17-5.8-6.86-9.64-11.39-9.64-19.5C7.25,16.74,17.41,7.25,29,7.25ZM29,0C13.78,0,0,12.34,0,27.56,0,50.19,23.12,52.58,29,87c5.88-34.42,29-36.81,29-59.44C58,12.34,44.22,0,29,0Zm0,39.87A10.88,10.88,0,1,1,39.87,29,10.87,10.87,0,0,1,29,39.87Z"/></g></g></svg>