<svg xmlns="http://www.w3.org/2000/svg" viewBox="0 0 61.53 61.53"><title>question</title><g id="Layer_2" data-name="Layer 2"><g id="Layer_1-2" data-name="Layer 1"><path d="M30.76,5.13A25.64,25.64,0,1,1,5.13,30.76,25.66,25.66,0,0,1,30.76,5.13Zm0-5.13A30.77,30.77,0,1,0,61.53,30.76,30.76,30.76,0,0,0,30.76,0ZM34,43.58a3.21,3.21,0,1,1-3.21-3.2A3.21,3.21,0,0,1,34,43.58ZM37.54,18A9,9,0,0,0,31,15.5c-5.59,0-9.2,4-9.2,10.13H27c0-3.81,2.13-5.16,3.95-5.16a3.38,3.38,0,0,1,3.49,3.14c.16,2.17-1,3.28-2.46,4.67-3.62,3.44-3.69,5.11-3.68,8.89H33.4c0-1.7.07-3.08,2.39-5.58,1.74-1.87,3.9-4.2,3.94-7.75A8,8,0,0,0,37.54,18Z"/></g></g></svg>