<svg xmlns="http://www.w3.org/2000/svg" viewBox="0 0 50.65 59.86"><title>user_1</title><g id="Layer_2" data-name="Layer 2"><g id="Layer_1-2" data-name="Layer 1"><g id="user_people_person_users_man" data-name="user people person users man"><path d="M43.14,30.34a2.3,2.3,0,1,0-3.24,3.27A20.73,20.73,0,0,1,46,48.34c0,2.81-8.08,6.91-20.72,6.91S4.6,51.15,4.6,48.34a20.77,20.77,0,0,1,6.06-14.66,2.3,2.3,0,0,0-3.25-3.25A25.17,25.17,0,0,0,0,48.34c0,7.49,13.05,11.52,25.32,11.52s25.33-4,25.33-11.52A25.22,25.22,0,0,0,43.14,30.34Z"/><path d="M25.32,32.23A16.12,16.12,0,1,0,9.21,16.11,16.12,16.12,0,0,0,25.32,32.23Zm0-27.63A11.52,11.52,0,1,1,13.81,16.11,11.51,11.51,0,0,1,25.32,4.6Z"/></g></g></g></svg>