<svg xmlns="http://www.w3.org/2000/svg" viewBox="0 0 80.76 56.53"><title>view</title><g id="Layer_2" data-name="Layer 2"><g id="Layer_1-2" data-name="Layer 1"><path d="M40.37,0C23.9,0,9.11,12.49.59,26.18a4,4,0,0,0,0,4.17C9.11,44,23.9,56.53,40.37,56.53c16.73,0,31.48-12.48,39.83-26.22a4,4,0,0,0,0-4.09C71.85,12.48,57.1,0,40.37,0Zm34,28.26c-7.42,11.63-19.77,22.21-34,22.21-14,0-26.37-10.62-33.93-22.21C14,16.68,26.38,6.06,40.37,6.06,54.58,6.06,66.93,16.65,74.34,28.26Zm-34-16.15A16.16,16.16,0,1,1,24.23,28.26,16.16,16.16,0,0,1,40.38,12.11Zm0,6.06A10.1,10.1,0,1,0,50.47,28.26,10.1,10.1,0,0,0,40.38,18.17Z"/></g></g></svg>