<svg xmlns="http://www.w3.org/2000/svg" viewBox="0 0 60 45"><title>wiki</title><g id="Layer_2" data-name="Layer 2"><g id="Layer_1-2" data-name="Layer 1"><path d="M22.5,45a1.89,1.89,0,0,1-1.71-1.1L2,2.65A1.88,1.88,0,0,1,5.46,1.1L24.21,42.35a1.87,1.87,0,0,1-.93,2.48A1.83,1.83,0,0,1,22.5,45Z"/><path d="M22.5,45a1.83,1.83,0,0,1-.78-.17,1.87,1.87,0,0,1-.93-2.48L39.54,1.1A1.88,1.88,0,0,1,43,2.65L24.21,43.9A1.89,1.89,0,0,1,22.5,45Z"/><path d="M37.5,45a1.89,1.89,0,0,1-1.71-1.1L17,2.65A1.88,1.88,0,0,1,20.46,1.1L39.21,42.35a1.88,1.88,0,0,1-.93,2.48A1.83,1.83,0,0,1,37.5,45Z"/><path d="M37.5,45a1.83,1.83,0,0,1-.78-.17,1.87,1.87,0,0,1-.93-2.48L54.54,1.1A1.87,1.87,0,1,1,58,2.65L39.21,43.9A1.89,1.89,0,0,1,37.5,45Z"/><rect width="9.37" height="3.75"/><rect x="15" width="9.37" height="3.75"/><rect x="35.62" width="9.37" height="3.75"/><rect x="50.62" width="9.37" height="3.75"/></g></g></svg>