<svg xmlns="http://www.w3.org/2000/svg" viewBox="0 0 61.51 55.31"><title>feat4</title><g id="Layer_2" data-name="Layer 2"><g id="Layer_1-2" data-name="Layer 1"><path d="M37.76,41.14l-4,3.87V27.71a3.07,3.07,0,0,0-6.14,0V44.85l-3.95-4a3.08,3.08,0,0,0-4.35,4.35l9.19,9.2a3.08,3.08,0,0,0,4.3,0L42,45.56a3.07,3.07,0,1,0-3.9-4.73A2.42,2.42,0,0,0,37.76,41.14Z"/><path d="M48.06,12.38a18.39,18.39,0,0,0-34.76,0A15.34,15.34,0,0,0,3.85,37.74a3.07,3.07,0,1,0,4.6-3.89,9.2,9.2,0,0,1,6.9-15.33h.31a3.06,3.06,0,0,0,3.06-2.46,12.27,12.27,0,0,1,24,0,3.08,3.08,0,0,0,3.07,2.46H46a9.2,9.2,0,0,1,6.9,15.33,3,3,0,0,0,.25,4.32l0,0a3.05,3.05,0,0,0,4.33-.28,15.34,15.34,0,0,0-9.45-25.54Z"/></g></g></svg>