<svg xmlns="http://www.w3.org/2000/svg" viewBox="0 0 50.62 71.98"><title>feat2</title><g id="Layer_2" data-name="Layer 2"><g id="Layer_1-2" data-name="Layer 1"><path d="M50.5,67.48,42.19,35.09a21.35,21.35,0,0,0,4.71-13.5,21.59,21.59,0,0,0-43.18,0A21.36,21.36,0,0,0,8.54,35.16L.12,67.48a3.6,3.6,0,0,0,5.32,4L24.63,60.21l20.44,11.3A3.28,3.28,0,0,0,46.9,72a3.6,3.6,0,0,0,3.71-3.48A3.17,3.17,0,0,0,50.5,67.48ZM25.31,7.2a14.4,14.4,0,1,1-14.4,14.39A14.39,14.39,0,0,1,25.31,7.2Zm1.11,45.74a3.6,3.6,0,0,0-3.59,0L9.33,60.86l5.18-20.52a21.34,21.34,0,0,0,21.31,0l5.5,20.84Z"/></g></g></svg>