<svg xmlns="http://www.w3.org/2000/svg" viewBox="0 0 88.35 75.08"><title>feat3</title><g id="Layer_2" data-name="Layer 2"><g id="Layer_1-2" data-name="Layer 1"><path d="M44.17,75.08A4.38,4.38,0,0,1,41,73.8L6.72,39.44A23.11,23.11,0,0,1,39.4,6.76l4.77,4.77,4.77-4.77A23.11,23.11,0,0,1,81.63,39.44L47.31,73.8A4.4,4.4,0,0,1,44.17,75.08ZM23.06,8.83A14.13,14.13,0,0,0,13,13a14.32,14.32,0,0,0,0,20.19L44.17,64.39,75.35,33.17a14.3,14.3,0,0,0,0-20.19,14.66,14.66,0,0,0-20.14,0l-7.9,8a4.42,4.42,0,0,1-6.25,0l0,0L33.13,13A14.13,14.13,0,0,0,23.06,8.83Z"/></g></g></svg>