<svg xmlns="http://www.w3.org/2000/svg" viewBox="0 0 64.86 45.4"><title>feat1</title><g id="Layer_2" data-name="Layer 2"><g id="Layer_1-2" data-name="Layer 1"><path d="M55.13,0H9.73A9.73,9.73,0,0,0,0,9.73V35.67A9.73,9.73,0,0,0,9.73,45.4h45.4a9.72,9.72,0,0,0,9.73-9.73V9.73A9.73,9.73,0,0,0,55.13,0ZM6.49,9.73A3.24,3.24,0,0,1,9.73,6.49h45.4a3.25,3.25,0,0,1,3.25,3.24V13H6.49ZM58.38,35.67a3.26,3.26,0,0,1-3.25,3.25H9.73a3.25,3.25,0,0,1-3.24-3.25V19.46H58.38Z"/><path d="M16.22,32.43h13a3.25,3.25,0,0,0,0-6.49h-13a3.25,3.25,0,1,0,0,6.49Z"/><path d="M42.16,32.43h6.49a3.25,3.25,0,0,0,0-6.49H42.16a3.25,3.25,0,0,0,0,6.49Z"/></g></g></svg>