<svg xmlns="http://www.w3.org/2000/svg" viewBox="0 0 83.68 75.31"><title>feat5</title><g id="Layer_2" data-name="Layer 2"><g id="Layer_1-2" data-name="Layer 1"><path d="M29.29,33.47A16.74,16.74,0,1,0,12.55,16.74,16.73,16.73,0,0,0,29.29,33.47Zm0-25.1a8.37,8.37,0,1,1-8.37,8.37A8.36,8.36,0,0,1,29.29,8.37Z"/><path d="M62.76,41.84A12.55,12.55,0,1,0,50.21,29.29,12.55,12.55,0,0,0,62.76,41.84Zm0-16.74a4.19,4.19,0,1,1-4.19,4.19A4.19,4.19,0,0,1,62.76,25.1Z"/><path d="M62.76,46A20.94,20.94,0,0,0,50,50.42,29.29,29.29,0,0,0,0,71.13a4.19,4.19,0,0,0,8.37,0,20.92,20.92,0,0,1,41.84,0,4.18,4.18,0,0,0,8.36,0,28.85,28.85,0,0,0-3.59-14,12.55,12.55,0,0,1,20.33,9.83,4.19,4.19,0,1,0,8.37,0A20.92,20.92,0,0,0,62.76,46Z"/></g></g></svg>