<svg xmlns="http://www.w3.org/2000/svg" viewBox="0 0 143.07 156.82"><title>vec8</title><g id="Layer_2" data-name="Layer 2"><g id="Layer_1-2" data-name="Layer 1"><path d="M71.53,156.82c-25.27,0-45.83-22.64-45.83-50.47,0-2.13,1.38-4.78,3.62-8.36-.36-10.74-.84-22.4-1.18-27.29C12.86,69.43,0,58,0,45,0,33.29,18.08,29.52,26.77,27.71c1.16-.24,2.45-.51,3-.67,2.21-1.77,3.81-4.43,5.65-7.49C40.67,10.84,47.19,0,72.61,0,97.1,0,103.8,10.73,109.18,19.36c1.84,2.95,3.44,5.51,5.54,7.3.44.11,1.17.27,1.85.42,7.93,1.76,26.5,5.9,26.5,17.94,0,12.95-12.86,24.41-28.15,25.67-.34,4.91-.81,16.61-1.17,27.39l0,0c2.28,3.62,3.6,6.14,3.6,8.28,0,27.81-20.57,50.43-45.84,50.43ZM32.12,109.61c1.47,22.78,18.58,40.88,39.41,40.88s37.92-18.06,39.4-40.88Zm1.39-6.32h76c-.31-.52-.67-1.12-1.1-1.81l-.62-1a3.3,3.3,0,0,1-.4-1.65s.26-7.83.58-15.67c.16-3.93.34-7.86.51-10.8.32-5.57.45-7.87,3.62-7.87,13.12,0,24.63-9.09,24.63-19.46,0-7-16.22-10.58-21.54-11.77-2.49-.55-3.24-.72-4-1.31-3.17-2.47-5.22-5.76-7.4-9.23-5-8.06-10.22-16.39-31.19-16.39-21.85,0-26.89,8.38-31.76,16.49-2.16,3.6-4.21,7-7.56,9.51-.91.67-2.09.92-5.24,1.58C22.11,35.15,6.32,38.44,6.32,45,6.32,55.38,17.83,64.49,31,64.49c3.17,0,3.3,2.3,3.63,7.85.17,2.94.35,6.85.51,10.77.32,7.81.58,15.62.58,15.62a3.15,3.15,0,0,1-.4,1.65l-.58,1c-.47.74-.86,1.39-1.18,2Zm48.75,35.52c-4,0-8.53-2.34-11-3.82-2.5,1.48-7,3.82-11,3.82a19.6,19.6,0,0,1-6.91-.91,3.16,3.16,0,1,1,2.29-5.9,15.1,15.1,0,0,0,4.62.49c3,0,7.79-2.85,9.23-3.85a3.16,3.16,0,0,1,3.6,0c2.15,1.49,6.56,3.85,9.22,3.85,1.57,0,3.95,0,4.95-.48A3.17,3.17,0,0,1,90,137.72c-2.13,1-4.64,1.09-7.69,1.09Zm6.3-17.43H78.1a3.17,3.17,0,0,1,0-6.33H88.56a3.17,3.17,0,0,1,0,6.33Zm-24.18,0H53.92a3.17,3.17,0,1,1,0-6.33H64.38a3.17,3.17,0,0,1,0,6.33ZM92.15,93.6A3.17,3.17,0,0,1,89,90.43V67.56a3.17,3.17,0,1,1,6.33,0V90.44a3.17,3.17,0,0,1-3.17,3.16Zm-19.6,0a3.17,3.17,0,0,1-3.17-3.17V59.71a3.17,3.17,0,0,1,6.33,0V90.44a3.17,3.17,0,0,1-3.16,3.16Zm-19.61,0a3.17,3.17,0,0,1-3.17-3.17V67.56a3.17,3.17,0,1,1,6.33,0V90.44a3.17,3.17,0,0,1-3.16,3.16Z"/></g></g></svg>