<svg xmlns="http://www.w3.org/2000/svg" xmlns:xlink="http://www.w3.org/1999/xlink" viewBox="0 0 125.19 164.98"><defs><style>.cls-1{fill:none;}.cls-2{clip-path:url(#clip-path);}</style><clipPath id="clip-path" transform="translate(-0.11 0)"><rect id="SVGID" class="cls-1" width="125.41" height="164.98"/></clipPath></defs><title>vec1</title><g id="Layer_2" data-name="Layer 2"><g id="Layer_1-2" data-name="Layer 1"><path d="M78.31,24.49a3.89,3.89,0,1,1-3.89-3.88,3.89,3.89,0,0,1,3.89,3.88" transform="translate(-0.11 0)"/><g class="cls-2"><path d="M113.16,55.72a90.66,90.66,0,0,0-17.9-10.84c-2.07-1.05-4.18-2.09-6.24-3.22h0a21.8,21.8,0,0,0-4.74-28.5A25.15,25.15,0,0,1,98.82,6.33a3.2,3.2,0,0,0,2.88-3.15,3.19,3.19,0,0,0-1-2.34A3.14,3.14,0,0,0,98.26,0,31.41,31.41,0,0,0,78.64,9.85,21.77,21.77,0,0,0,48.72,30.08a22.67,22.67,0,0,0,.22,3.08h0a56.08,56.08,0,0,1-7.75,5.77c-3.5,2.17-7.31,4.08-11,5.94h0a92.22,92.22,0,0,0-17.9,10.84c-11.06,9.24-15,22.56-10,34a26.61,26.61,0,0,0,2.92,5.14L21,149.39A21.7,21.7,0,0,0,41.74,165H83.67a21.7,21.7,0,0,0,20.76-15.59l15.82-54.58h0a27.19,27.19,0,0,0,2.93-5.14c5-11.39,1-24.71-10-33.95ZM56.06,24.61v0h0a15.82,15.82,0,0,1,9.59-9.19,15.26,15.26,0,0,1,4.88-.8,15.48,15.48,0,1,1-14.47,10ZM8,87.14C3.39,76.52,9.61,66.2,16.31,60.59h0A85.33,85.33,0,0,1,33,50.56c3.82-1.94,7.78-3.92,11.49-6.25h0A63.51,63.51,0,0,0,51,39.73h0A22,22,0,0,0,53.81,44c-3.68,3.91-19.49,22-14.48,39.29,2.06,7.12,7.32,13,15.69,17.61-.65,0-1.32,0-2,.08-17,.76-38.22,1.68-45-13.88Zm90.32,60.48h0a15.34,15.34,0,0,1-11.9,10.75l7.28-25.48a3.17,3.17,0,1,0-6.09-1.74l-7.86,27.49H66V127.29a3.17,3.17,0,0,0-6.34,0v31.35h-14l-7.85-27.49a3.18,3.18,0,0,0-5.83-.67,3.21,3.21,0,0,0-.27,2.41L39,158.38h0a15.31,15.31,0,0,1-7.49-3.69,15.51,15.51,0,0,1-4.45-7.07L14,102.46c11.25,6.13,26.88,5.45,39.34,4.9,3.38-.14,6.55-.28,9.39-.28s5.8.12,9.06.27h.34c1.55.07,3.15.15,4.8.21,2.31.08,4.69.14,7.1.14,9.56,0,19.56-1,27.43-5.27Zm19-60.48h0a19.33,19.33,0,0,1-1.17,2.26c-15.42-2.26-25.7-7.09-29.77-14.05h0a14.5,14.5,0,0,1-1.81-9.66A3.17,3.17,0,0,0,80,62.37a3.12,3.12,0,0,0-1.59,2.22A20.79,20.79,0,0,0,80.9,78.42C85.61,86.59,95.81,92.16,111.24,95c-9.44,7.25-25.25,6.61-38.59,6-15.57-4.3-24.73-10.81-27.24-19.46-4.09-14.13,10.35-30.35,13.13-33.3a21.77,21.77,0,0,0,26.24-1.7h0c2.52,1.41,5.1,2.71,7.61,4h0a84,84,0,0,1,16.7,10c6.71,5.61,12.92,15.93,8.29,26.55Z" transform="translate(-0.11 0)"/></g></g></g></svg>