<svg xmlns="http://www.w3.org/2000/svg" xmlns:xlink="http://www.w3.org/1999/xlink" viewBox="0 0 181.43 148.85"><defs><style>.cls-1{fill:none;}.cls-2{clip-path:url(#clip-path);}</style><clipPath id="clip-path" transform="translate(0 -0.28)"><rect id="SVGID" class="cls-1" width="181.43" height="149.41"/></clipPath></defs><title>vec2</title><g id="Layer_2" data-name="Layer 2"><g id="Layer_1-2" data-name="Layer 1"><g class="cls-2"><path d="M157.85.28H23.58A23.59,23.59,0,0,0,0,23.87V42.2A7.84,7.84,0,0,0,3.93,49v1.09c.17,0,.32,0,.49,0v67a32.06,32.06,0,0,0,32,32H145a32.06,32.06,0,0,0,32-32v-67c.17,0,.32,0,.49,0V49a7.84,7.84,0,0,0,3.93-6.77V23.86A23.58,23.58,0,0,0,157.85.28ZM7.86,23.87A15.72,15.72,0,0,1,23.58,8.14H157.85a15.72,15.72,0,0,1,15.72,15.72V42.64c-6.69,1.5-10.53,6.68-13.7,11-3.75,5.1-6.31,8.22-11.31,8.22s-7.54-3.12-11.3-8.22S128.85,42.2,119.62,42.2,105.75,48.54,102,53.63s-6.31,8.22-11.3,8.22-7.54-3.12-11.3-8.22S71,42.2,61.78,42.2,47.9,48.54,44.15,53.63s-6.3,8.22-11.29,8.22-7.55-3.12-11.3-8.22c-3.17-4.31-7-9.49-13.7-11ZM145,141.27H36.44a24.17,24.17,0,0,1-24.15-24.15V97.35H130.92a3.93,3.93,0,1,0,0-7.86H12.29v-35c.94,1.09,1.89,2.34,2.94,3.77C19,63.38,23.64,69.72,32.86,69.72s13.88-6.34,17.62-11.43,6.31-8.23,11.3-8.23,7.54,3.13,11.3,8.23,8.41,11.43,17.63,11.43,13.88-6.34,17.62-11.43,6.31-8.23,11.3-8.23,7.55,3.13,11.3,8.23,8.41,11.42,17.64,11.42,13.88-6.33,17.63-11.42c1.05-1.43,2-2.68,3-3.78v62.61A24.17,24.17,0,0,1,145,141.27Z" transform="translate(0 -0.28)"/></g></g></g></svg>