<svg xmlns="http://www.w3.org/2000/svg" xmlns:xlink="http://www.w3.org/1999/xlink" viewBox="0 0 158.81 185.02"><defs><style>.cls-1{fill:none;}.cls-2{clip-path:url(#clip-path);}</style><clipPath id="clip-path" transform="translate(-0.3 -0.01)"><rect id="SVGID" class="cls-1" width="159.41" height="185.03"/></clipPath></defs><title>vec3</title><g id="Layer_2" data-name="Layer 2"><g id="Layer_1-2" data-name="Layer 1"><g class="cls-2"><path d="M159.11,109.39v-3.77H141a35.94,35.94,0,0,0,3.33-15.17,36.43,36.43,0,0,0-31.14-36A36.48,36.48,0,0,0,95.7,37.14,16.76,16.76,0,0,0,98.36,28,17.18,17.18,0,0,0,86.85,11.84a16.33,16.33,0,0,1,7.75-4.4A3.77,3.77,0,0,0,92.86.1,25.12,25.12,0,0,0,77.75,11.21,17.17,17.17,0,0,0,64.05,28a16.86,16.86,0,0,0,2.3,8.56,36.7,36.7,0,0,0-17.22,15L24.83,4.36a3.78,3.78,0,0,0-6.72,3.47L42.64,55.4A36.44,36.44,0,0,0,16,90.45a35.94,35.94,0,0,0,3.33,15.17H.3v3.77a79.46,79.46,0,0,0,38.6,68.1H20.52a3.77,3.77,0,1,0,0,7.54H138.89a3.77,3.77,0,1,0,0-7.54H120.51a79.46,79.46,0,0,0,38.6-68.1ZM107.94,61.61A27.67,27.67,0,0,1,116,62.78a28.79,28.79,0,0,1,16.44,42.84H85.41A34.56,34.56,0,0,0,88,98a35,35,0,0,0,.79-7.56,36.13,36.13,0,0,0-4.16-16.89,28.8,28.8,0,0,1,23.35-12ZM81.21,18.41a9.63,9.63,0,1,1-6.8,2.82,9.56,9.56,0,0,1,6.8-2.82ZM72.1,42.53a17,17,0,0,0,17.65.34,28.9,28.9,0,0,1,14.68,11.37A36.26,36.26,0,0,0,80.15,67,36.29,36.29,0,0,0,56.32,54.3,28.89,28.89,0,0,1,72.1,42.53ZM44.79,62.63c.45-.13.92-.25,1.39-.34h0a26.35,26.35,0,0,1,3.94-.57c.75-.07,1.5-.11,2.25-.11a3.77,3.77,0,0,1,.47,0c.51,0,1,0,1.52.06h0A28.67,28.67,0,0,1,74.73,72.33a35.38,35.38,0,0,1-20.58,7.26c-8.51.2-17.85-1.41-24.53-6.87h0A28.89,28.89,0,0,1,44.79,62.63Zm-19,16.68a34.5,34.5,0,0,0,15.5,7v14.94a3.91,3.91,0,0,0,3.14,3.92,3.77,3.77,0,0,0,4.4-3.72V89.48a2.91,2.91,0,1,1,5.82,0v3.25a3.92,3.92,0,0,0,3.14,3.92,3.77,3.77,0,0,0,4.4-3.72V86.41a36.11,36.11,0,0,0,16.58-7.52,28.6,28.6,0,0,1,1.4,19.29c-.07.26-.15.54-.24.81h0a27.72,27.72,0,0,1-3.06,6.63h-49A28.7,28.7,0,0,1,25.77,79.3Zm76.91,98.19h-46a72.23,72.23,0,0,1-36.51-27.85h23.5a3.77,3.77,0,1,0,0-7.54h-28a71.17,71.17,0,0,1-4.07-9.61H51.88a3.77,3.77,0,0,0,0-7.54H9.55a72.17,72.17,0,0,1-1.61-11.8H151.48a72,72,0,0,1-48.81,64.34Z" transform="translate(-0.3 -0.01)"/></g></g></g></svg>