<svg xmlns="http://www.w3.org/2000/svg" xmlns:xlink="http://www.w3.org/1999/xlink" viewBox="0 0 184.36 184.36"><defs><style>.cls-1{fill:none;}.cls-2{clip-path:url(#clip-path);}</style><clipPath id="clip-path" transform="translate(-0.04 -0.04)"><rect id="SVGID" class="cls-1" width="184.39" height="184.39"/></clipPath></defs><title>vec4</title><g id="Layer_2" data-name="Layer 2"><g id="Layer_1-2" data-name="Layer 1"><g class="cls-2"><path d="M183.76,26.44a15.5,15.5,0,0,0-3.9-6.86A13,13,0,0,0,176.14,17c-2.08-1-5.21-1-6.61-3.1-1.12-1.62-1.29-3.85-2.12-5.63h0a13.16,13.16,0,0,0-2.59-3.72,16.27,16.27,0,0,0-17.53-3.23c-9.1,4.18-8.43,15.74-8.22,19.57.07.95.18,2,.32,3,.5,4.39.39,6-.6,6.71h0a2.42,2.42,0,0,0-.31.25,3.49,3.49,0,0,0-.82,3.09,3.4,3.4,0,0,0,5.25,2.24c4.5-3.23,3.78-9.42,3.35-13.1-.11-.9-.22-1.79-.28-2.61-.42-7.16,1-11.39,4.19-12.87a8.79,8.79,0,0,1,5.94-.32,7.75,7.75,0,0,1,5,3.91,14.14,14.14,0,0,1,.83,2.45A12.53,12.53,0,0,0,166.21,20a14.23,14.23,0,0,0,3.29,2c1.21.5,2.53.72,3.71,1.29a7.76,7.76,0,0,1,3.91,5,8.88,8.88,0,0,1-.32,5.95c-1.48,3.24-5.71,4.61-12.86,4.18-3.28-.17-6.69-.92-10-.33-4.23.78-7.22,4.78-10.16,7.71L140,49.57c-.89-.88-1.78-1.74-2.64-2.57-12.45-12.89-30.68-30.61-51.45-20.2C72.72,33.41,65.58,48.21,62.51,56.43c-2.85,7.62-13.11,13.1-21.22,16.34h0a30.53,30.53,0,0,0-18.14,20.1,29.75,29.75,0,0,0,4.69,26,119.17,119.17,0,0,0,10.5,12.17l-7.11,7.12-.82.81c-.8.8-2.47.86-6.53.4-1-.14-2.06-.25-3-.32-3.83-.21-15.38-.88-19.56,8.21h0a16.27,16.27,0,0,0,3.23,17.53,13,13,0,0,0,3.71,2.59c1.79.83,4,1,5.64,2.11,2,1.41,2.11,4.54,3.09,6.62h0a13.16,13.16,0,0,0,2.59,3.72,15.55,15.55,0,0,0,6.86,3.9,15.59,15.59,0,0,0,10.68-.68c9.09-4.18,8.42-15.73,8.21-19.56-.07-1-.18-2-.32-3-.46-4-.41-5.72.41-6.54l7.92-7.92A119.08,119.08,0,0,0,65.5,156.54a29.76,29.76,0,0,0,26,4.7,30.53,30.53,0,0,0,20.1-18.14c3.23-8.11,8.71-18.38,16.33-21.23,8.23-3.07,23-10.19,29.64-23.42,8.47-16.91-1.7-32.14-12.72-43.93l9.1-9.11c.82-.82,2.49-.87,6.54-.4,1,.13,2.06.24,3,.32,3.83.21,15.38.88,19.57-8.22h0a15.57,15.57,0,0,0,.67-10.67Zm-138,117.37c-2.94,2.94-6.93,5.93-7.72,10.16-.58,3.28.16,6.69.33,10,.43,7.15-.94,11.38-4.18,12.86a8.85,8.85,0,0,1-5.94.32,7.78,7.78,0,0,1-5-3.91c-.56-1.18-.78-2.5-1.28-3.71a14.27,14.27,0,0,0-2-3.29A12.49,12.49,0,0,0,13.63,162a14,14,0,0,1-2.44-.83,7.77,7.77,0,0,1-3.92-5,8.86,8.86,0,0,1,.32-5.94c1.48-3.24,5.71-4.61,12.88-4.19.82.06,1.71.17,2.6.28h0a22.11,22.11,0,0,0,8.5-.21,9,9,0,0,0,3.09-1.55l8.6-8.6c.88.84,1.78,1.68,2.71,2.52s1.67,1.82,2.51,2.7ZM151.41,95.35c-5.55,11.1-18.59,17.33-25.88,20-8,3-14.85,11.46-20.34,25.14a23.61,23.61,0,0,1-15.56,14.06,22.93,22.93,0,0,1-20-3.61,128.08,128.08,0,0,1-17.43-16.06c-.43-.45-2.24-2.24-2.68-2.68h0A129,129,0,0,1,33.4,114.79a22.9,22.9,0,0,1-3.59-20,23.47,23.47,0,0,1,8.13-12.11L52.29,97h0a3.46,3.46,0,0,0,4.89-4.89l-13-13A58.51,58.51,0,0,0,62.76,67.91l23.71,23.7a3.46,3.46,0,0,0,4.89-4.89L67.17,62.53A20.94,20.94,0,0,0,69,58.86a63.09,63.09,0,0,1,8.84-16.27L95.41,60.16a3.46,3.46,0,0,0,4.89-4.89L82.54,37.51A28.72,28.72,0,0,1,89.05,33c15.81-7.91,30.21,5.29,42.11,17.5.45.48,2.31,2.34,2.8,2.8,12.19,11.88,25.35,26.27,17.45,42.06Z" transform="translate(-0.04 -0.04)"/></g><path d="M150.88,87.58a5.72,5.72,0,1,1-5.72-5.71,5.72,5.72,0,0,1,5.72,5.71" transform="translate(-0.04 -0.04)"/></g></g></svg>