<svg xmlns="http://www.w3.org/2000/svg" xmlns:xlink="http://www.w3.org/1999/xlink" viewBox="0 0 176.49 116.78"><defs><style>.cls-1{fill:none;}.cls-2{clip-path:url(#clip-path);}</style><clipPath id="clip-path" transform="translate(0 -0.29)"><rect id="SVGID" class="cls-1" width="176.74" height="117.35"/></clipPath></defs><title>vec5</title><g id="Layer_2" data-name="Layer 2"><g id="Layer_1-2" data-name="Layer 1"><g class="cls-2"><path d="M170.62,26.09l-.71-.29h0a9.33,9.33,0,0,1-1.54-.79,4.27,4.27,0,0,1-.89-2,16.86,16.86,0,0,0-1.13-3,12.2,12.2,0,0,0-15.68-5.24c-6.68,3.06-6.49,10.58-6.41,14.19a5.28,5.28,0,0,1-1.45,3.77l-8.41,9.07a24.38,24.38,0,0,0-9.73.53,67.13,67.13,0,0,0-8.81-3.78c-1.6-.55-3.2-1-4.82-1.46a27.74,27.74,0,0,1,6-5.26,7,7,0,0,1,3,.4,11.32,11.32,0,0,0,15-10.63,9.57,9.57,0,0,0-5.86-8.85l-.7-.31a7.76,7.76,0,0,1-1.55-.78c-.36-.27-.57-1-.89-2a15.29,15.29,0,0,0-1.13-3,12.25,12.25,0,0,0-15.68-5.25c-6.68,3.07-6.49,10.59-6.4,14.2h0a5.32,5.32,0,0,1-1.46,3.78L86.58,35.12h0a60.92,60.92,0,0,0-6.29,1c-8.92,1.93-18,6-28.46,12.82-2.87,1.87-5.77,3.68-8.68,5.51C38,57.65,32.74,61,27.67,64.49c-14.85,10.38-22,24.92-22.4,45.73H3.42a3.43,3.43,0,0,0,0,6.85h161.3a3.43,3.43,0,1,0,0-6.85h-2.59c0-17.64-2.1-32.19-11.58-45.59-.55-.77-1.11-1.54-1.7-2.29a22.47,22.47,0,0,0-.41-7.71h0c5.37-5.82,8.77-9,10-9.44h0a6.92,6.92,0,0,1,3,.4,11.43,11.43,0,0,0,8.28-.26,11.58,11.58,0,0,0,4.87-4.22,11.7,11.7,0,0,0,1.88-6.16,9.6,9.6,0,0,0-5.87-8.85ZM106.46,24a12.19,12.19,0,0,0,3.27-8.61c-.12-4.89.51-6.93,2.41-7.8h0a5.49,5.49,0,0,1,6.78,2.25,8.5,8.5,0,0,1,.6,1.69,9.86,9.86,0,0,0,3.34,5.58,14,14,0,0,0,3,1.61l.59.25h0a2.73,2.73,0,0,1,1.83,2.64,4.71,4.71,0,0,1-2.75,4.13,5,5,0,0,1-3.7-.16,12.93,12.93,0,0,0-6-.49c-3,.58-6.79,4.11-12.61,10.35a65.56,65.56,0,0,0-6.85-.64Zm48.82,86.23H12.11c.41-18.6,6.43-31,19.48-40.1,4.92-3.43,10.15-6.7,15.21-9.87,2.92-1.85,5.85-3.7,8.76-5.58,9.78-6.34,18.1-10.1,26.18-11.87h0A59,59,0,0,1,113.61,45c.5.17,1,.34,1.46.53h0A60,60,0,0,0,95.18,58.16a3.42,3.42,0,1,0,4.87,4.8c6.85-6.79,16-10.88,23.85-13.31.72-.22,1.42-.44,2.13-.63h0a18.39,18.39,0,0,1,4.89-.69,14.09,14.09,0,0,1,4.51.71,9.61,9.61,0,0,1,3.88,2.45,8.45,8.45,0,0,1,1.49,2.07,12.55,12.55,0,0,1,1.39,6,17.79,17.79,0,0,1-.63,4.65c0,.09-.05.18-.07.26-3.05,10.79-9.32,25.09-21.85,32A19,19,0,0,1,92.12,83.67a3.49,3.49,0,0,0-3.38-2.85A3.44,3.44,0,0,0,85.37,85,26.07,26.07,0,0,0,110.8,105.6a25.1,25.1,0,0,0,12.14-3.12A46,46,0,0,0,139.71,85.9a73.36,73.36,0,0,0,6.9-14.81c7,11.3,8.62,23.92,8.67,39.13Zm11.6-71.12c-1.06.5-1.95.3-3.7-.15a13,13,0,0,0-6-.5c-2.86.57-6.46,3.8-11.83,9.51-.35-.41-.67-.84-1.05-1.24h0a16.27,16.27,0,0,0-2.91-2.38l6.49-7h0a12.19,12.19,0,0,0,3.27-8.62c-.12-4.89.51-6.93,2.41-7.81h0a5.49,5.49,0,0,1,6.78,2.27,9.77,9.77,0,0,1,.6,1.67,9.72,9.72,0,0,0,3.34,5.58,13.26,13.26,0,0,0,3,1.61l.6.26A2.78,2.78,0,0,1,169.64,35a4.77,4.77,0,0,1-2.76,4.13Z" transform="translate(0 -0.29)"/></g><path d="M62.39,61.48,43.84,73.36a3.43,3.43,0,0,0,3.7,5.77L66.08,67.25a3.42,3.42,0,0,0-3.69-5.77Z" transform="translate(0 -0.29)"/></g></g></svg>