<svg xmlns="http://www.w3.org/2000/svg" xmlns:xlink="http://www.w3.org/1999/xlink" viewBox="0 0 227.42 158.81"><defs><style>.cls-1{fill:none;}.cls-2{clip-path:url(#clip-path);}</style><clipPath id="clip-path" transform="translate(0 -0.31)"><rect id="SVGID" class="cls-1" width="227.42" height="159.43"/></clipPath></defs><title>vec6</title><g id="Layer_2" data-name="Layer 2"><g id="Layer_1-2" data-name="Layer 1"><g class="cls-2"><path d="M101.66,159.12H101c-55.7-2-101-18.92-101-37.67l0-85C.51,14.79,59.18.31,113.68.31s113.15,14.48,113.64,36l0,75.19c0,.95,0,1.87,0,2.76.12,5.26.24,10.7-3.8,16.37h0a35.53,35.53,0,0,1-13,10.92A41.85,41.85,0,0,1,178.78,144h0c-1.58-.53-10.11-3.46-59.88-20.57v18.46h0a17.24,17.24,0,0,1-17.25,17.21Zm12-149.29C52.84,9.83,9.74,27.18,9.53,36.57l0,84.88c0,8.75,34.87,26.09,91.85,28.15h0a7.64,7.64,0,0,0,5.83-2.31,8.19,8.19,0,0,0,2.2-5.78V86.33A52.29,52.29,0,0,0,101.69,59L91.55,42.44h0a6.57,6.57,0,0,1-.66-5.75,6.31,6.31,0,0,1,7.28-3.91L177.7,50.67a36.8,36.8,0,0,1,28.73,35.91V118a4.76,4.76,0,1,1-9.51,0V86.58a27.17,27.17,0,0,0-21.31-26.64L103.5,43.73,109.81,54h0a61.87,61.87,0,0,1,9.1,32.3V113.4l63,21.64a32.18,32.18,0,0,0,24.46-1.94,26.05,26.05,0,0,0,9.52-7.94c2.1-3,2.14-5.68,2-10.64,0-1-.05-2-.05-3V36.47c-.22-9.29-43.31-26.64-104.14-26.64Z" transform="translate(0 -0.31)"/></g><path d="M141.18,87.5a14.08,14.08,0,1,1,9.94-4.12,14.07,14.07,0,0,1-9.94,4.12Zm0-21a6.93,6.93,0,1,0,4.9,2,6.93,6.93,0,0,0-4.9-2Z" transform="translate(0 -0.31)"/><path d="M173.3,122.48a12.55,12.55,0,1,1,8.85-3.67,12.52,12.52,0,0,1-8.85,3.67Zm0-17.93a5.4,5.4,0,1,0,5.39,5.4A5.41,5.41,0,0,0,173.3,104.55Z" transform="translate(0 -0.31)"/><path d="M150.25,103.75a5.35,5.35,0,1,1-5.35-5.35,5.35,5.35,0,0,1,5.35,5.35" transform="translate(0 -0.31)"/><path d="M178.65,79a5.35,5.35,0,1,1-5.35-5.35A5.36,5.36,0,0,1,178.65,79" transform="translate(0 -0.31)"/></g></g></svg>