<svg xmlns="http://www.w3.org/2000/svg" xmlns:xlink="http://www.w3.org/1999/xlink" viewBox="0 0 243.2 140.65"><defs><style>.cls-1{fill:none;}.cls-2{clip-path:url(#clip-path);}</style><clipPath id="clip-path" transform="translate(0 -0.03)"><rect id="SVGID" class="cls-1" width="243.19" height="140.71"/></clipPath></defs><title>vec7</title><g id="Layer_2" data-name="Layer 2"><g id="Layer_1-2" data-name="Layer 1"><g class="cls-2"><path d="M210.79,8.09a107,107,0,0,0-16.4-5.2A110.87,110.87,0,0,0,169.11,0h-95v0A108.6,108.6,0,0,0,51.42,2.42c-2.77.6-5.56,1.32-8.26,2.12C28.5,8.94,8.29,17,1.9,35.68h0A36.35,36.35,0,0,0,0,47.38,37.24,37.24,0,0,0,21,81a3.88,3.88,0,0,1,2.12,3.46v38.64a17.58,17.58,0,0,0,17.58,17.56h161.9a17.58,17.58,0,0,0,17.57-17.56V82A37.34,37.34,0,0,0,243.2,47.38c0-16.48-11.82-30.82-32.41-39.29ZM84.52,131.74H40.65A8.64,8.64,0,0,1,32,123.12V84.48A12.69,12.69,0,0,0,24.88,73,28.35,28.35,0,0,1,8.94,47.38a26.88,26.88,0,0,1,1.4-8.8C15.41,23.75,33,16.94,45.72,13.09c2.48-.73,5-1.4,7.57-1.94h0A100.57,100.57,0,0,1,74.2,9,102.52,102.52,0,0,1,97.36,11.6a93.68,93.68,0,0,1,14.81,4.69l.2.06h0a62.32,62.32,0,0,1,9.12,4.6c8.35,5.11,17.75,13.67,17.75,26.42h0a28.35,28.35,0,0,1-16,25.62,11.94,11.94,0,0,0-1.47.85,12.93,12.93,0,0,0-5.63,10.63v47.26ZM214.31,74.61l-3.12,1v47.53a8.66,8.66,0,0,1-8.64,8.63H125.08l0-44.94h55.31a4.47,4.47,0,1,0,0-8.93H132.48a37.21,37.21,0,0,0,15.7-30.49c0-11.88-6.15-22.65-17.29-30.91h0a66.87,66.87,0,0,0-9.25-5.68c-1.25-.64-2.55-1.24-3.87-1.83h51.45a102.65,102.65,0,0,1,23.16,2.64,97.66,97.66,0,0,1,15,4.76c8.08,3.33,26.87,13,26.87,31a28.43,28.43,0,0,1-19.95,27.23Z" transform="translate(0 -0.03)"/></g><path d="M42.49,31.8a5.12,5.12,0,1,0,5.12,5.12,5.12,5.12,0,0,0-5.12-5.12Z" transform="translate(0 -0.03)"/><path d="M104.57,36.92a5.12,5.12,0,1,0-1.5,3.62,5.12,5.12,0,0,0,1.5-3.62Z" transform="translate(0 -0.03)"/><path d="M67.18,54.42a6.9,6.9,0,1,0,4.89,2,6.91,6.91,0,0,0-4.89-2Z" transform="translate(0 -0.03)"/><path d="M60.66,109.7a6.91,6.91,0,1,1-6.91-6.91,6.91,6.91,0,0,1,6.91,6.91" transform="translate(0 -0.03)"/></g></g></svg>