<svg xmlns="http://www.w3.org/2000/svg" viewBox="0 0 160 100"><defs><style>.cls-1{fill:#f6f6f6;}.cls-1,.cls-2,.cls-3{fill-rule:evenodd;}.cls-2{fill:#306fc5;}.cls-3{fill:#265697;}</style></defs><title>pay1</title><g id="Layer_2" data-name="Layer 2"><g id="Layer_1-2" data-name="Layer 1"><path id="Rectangle-1" class="cls-1" d="M148,0H8C4,0,0,4,0,8V88q0,12,12,12H148q12,0,12-12V12Q160,0,148,0Z"/><path id="pal" class="cls-2" d="M151.76,33.46h-4.2a2.39,2.39,0,0,0-2.21,1.63.36.36,0,0,0,0,.11L145,36.41l-5.77,25.46c-.13.58-.22,1-.25,1.05l0,0a1.35,1.35,0,0,0,1.25,1.71h4.37a2.42,2.42,0,0,0,2.2-1.61.5.5,0,0,0,.05-.13l6.29-27.72h0A1.37,1.37,0,0,0,151.76,33.46Zm-21.54,25a12.2,12.2,0,0,1-1.84.93,6.79,6.79,0,0,1-2.45.52,5.57,5.57,0,0,1-2.67-.51,1.74,1.74,0,0,1-.92-1.7,3.45,3.45,0,0,1,.68-2.23,4.9,4.9,0,0,1,2-1.32,18.2,18.2,0,0,1,3.09-.68c1.07-.13,3.19-.37,3.46-.37s.45-.15.33.56c0,.3-.67,2.74-.95,3.85a2.12,2.12,0,0,1-.74.95Zm8.31-17.16c-1.79-1-4.57-1.46-8.39-1.46a39.14,39.14,0,0,0-5.69.43c-1.39.21-1.54.25-2.4.43A2.69,2.69,0,0,0,120,42.84l-.58,2.29c-.32,1.47.54,1.41.92,1.3a24.35,24.35,0,0,1,2.79-.81,20.9,20.9,0,0,1,4.41-.58,11.82,11.82,0,0,1,4.26.59,2.1,2.1,0,0,1,1.42,2.07,1.51,1.51,0,0,1-.08.65c-.08.18-.23.35-.68.41-2.68.16-4.6.4-6.92.72a22.07,22.07,0,0,0-6,1.6,9.19,9.19,0,0,0-4,3.11A8.22,8.22,0,0,0,114.18,59a5.55,5.55,0,0,0,1.92,4.33,7.34,7.34,0,0,0,5,1.65,13.75,13.75,0,0,0,3-.27,15.28,15.28,0,0,0,2.26-.75,12.38,12.38,0,0,0,1.93-1L130,61.73l0,0-.17.73s0,0,0,0h0a1.36,1.36,0,0,0,1.26,1.71v0h4.36s0,0,.07,0a2.43,2.43,0,0,0,2-1.71l3.43-14.41a8.44,8.44,0,0,0,.18-1.18,10.85,10.85,0,0,0,.08-1.1,4.81,4.81,0,0,0-2.67-4.51ZM117.88,38a7.07,7.07,0,0,0-2.58-2.69,11.92,11.92,0,0,0-4.09-1.46,32.66,32.66,0,0,0-5.52-.42H95.87a2.45,2.45,0,0,0-2.24,1.74l-6.6,28a1.37,1.37,0,0,0,1.41,1.74h4.71a2.44,2.44,0,0,0,2.26-1.73L97,56.39a2.38,2.38,0,0,1,2.25-1.73h1.34q8.63,0,13.4-3.44a10.7,10.7,0,0,0,4.79-9.07A8.66,8.66,0,0,0,117.88,38Zm-10.13,9.15a10.1,10.1,0,0,1-5.92,1.5h-1.17a1.36,1.36,0,0,1-1.42-1.74l1.4-5.94a2.42,2.42,0,0,1,2.24-1.73h1.54a7.75,7.75,0,0,1,4.08.88,3,3,0,0,1,1.36,2.73,4.94,4.94,0,0,1-2.11,4.3"/><path id="pay" class="cls-3" d="M84.84,39.86a3.61,3.61,0,0,0-2.63,1.56l-6.57,11c-.32.54-.64.2-.69,0s-1.86-11-1.86-11a2.27,2.27,0,0,0-2.28-1.6H67.08a1.22,1.22,0,0,0-1.26,1.56S68.68,57.28,69.23,61c.28,2.06,0,2.43,0,2.43l-3.69,6.31c-.55.86-.25,1.56.65,1.56h4.32a3.51,3.51,0,0,0,2.61-1.56L89.72,42.19s1.59-2.35.13-2.33ZM53.61,58.48a12.68,12.68,0,0,1-1.84.93,7,7,0,0,1-2.45.51,5.63,5.63,0,0,1-2.67-.5,1.76,1.76,0,0,1-.91-1.7,3.38,3.38,0,0,1,.68-2.23,4.76,4.76,0,0,1,2-1.32,17.41,17.41,0,0,1,3.1-.68c1.07-.13,3.18-.37,3.45-.37s.45-.15.33.56c0,.3-.66,2.74-.94,3.85a2.21,2.21,0,0,1-.75.95Zm8.31-17.17c-1.78-1-4.57-1.45-8.38-1.45a37.68,37.68,0,0,0-5.69.43c-1.4.21-1.54.24-2.41.43a2.7,2.7,0,0,0-2.06,2.12l-.57,2.29c-.33,1.47.53,1.41.91,1.3a24.69,24.69,0,0,1,2.8-.81,20.73,20.73,0,0,1,4.4-.58,11.82,11.82,0,0,1,4.26.59A2.1,2.1,0,0,1,56.6,47.7a1.53,1.53,0,0,1-.08.65c-.08.18-.23.35-.68.41-2.67.16-4.6.4-6.92.72a22.07,22.07,0,0,0-6,1.6,9.16,9.16,0,0,0-4,3.11A8.22,8.22,0,0,0,37.58,59a5.54,5.54,0,0,0,1.91,4.33,7.34,7.34,0,0,0,4.95,1.65,13.75,13.75,0,0,0,3-.27,14.55,14.55,0,0,0,2.26-.75,12.38,12.38,0,0,0,1.93-1c.69-.45,1.16-.76,1.78-1.15v0l-.17.74s0,0,0,0h0a1.35,1.35,0,0,0,1.25,1.71v0h4.37a.07.07,0,0,0,.06,0,2.42,2.42,0,0,0,2-1.71l3.43-14.41a8.44,8.44,0,0,0,.18-1.18c0-.46.09-.83.08-1.1A4.8,4.8,0,0,0,61.92,41.31ZM40.48,38a7.1,7.1,0,0,0-2.59-2.69,11.94,11.94,0,0,0-4.08-1.46,32.74,32.74,0,0,0-5.52-.42H18.46a2.43,2.43,0,0,0-2.23,1.74l-6.61,28A1.37,1.37,0,0,0,11,64.92h4.72A2.42,2.42,0,0,0,18,63.18l1.59-6.79a2.39,2.39,0,0,1,2.26-1.73h1.34c5.75,0,10.2-1.15,13.39-3.44a10.68,10.68,0,0,0,4.79-9.07A8.78,8.78,0,0,0,40.48,38ZM30.34,47.18a10.08,10.08,0,0,1-5.92,1.5H23.25a1.36,1.36,0,0,1-1.42-1.74L23.24,41a2.41,2.41,0,0,1,2.23-1.73H27a7.75,7.75,0,0,1,4.08.88,3,3,0,0,1,1.37,2.73,5,5,0,0,1-2.12,4.3"/></g></g></svg>