<svg xmlns="http://www.w3.org/2000/svg" viewBox="0 0 160 100"><defs><style>.cls-1{fill:#f6f6f6;}.cls-2{fill:#265697;}.cls-2,.cls-3{fill-rule:evenodd;}.cls-3{fill:#d97b16;}</style></defs><title>pay2</title><g id="Layer_2" data-name="Layer 2"><g id="Layer_1-2" data-name="Layer 1"><g id="Visa"><rect id="Rectangle-20" class="cls-1" y="9" width="160" height="80"/><path id="Rectangle-1" class="cls-2" d="M148,0H8C4,0,0,4,0,8V20H160V12Q160,0,148,0Z"/><path class="cls-3" d="M0,80v8q0,12,12,12H148q12,0,12-12V80Z"/><path id="Shape" class="cls-2" d="M111.61,29.78A28.63,28.63,0,0,0,101.47,28c-11.18,0-19.06,5.76-19.13,14-.06,6.1,5.63,9.5,9.92,11.53s5.89,3.41,5.86,5.26c0,2.85-3.51,4.15-6.77,4.15A23.34,23.34,0,0,1,80.7,60.71L79.24,60l-1.59,9.49A35,35,0,0,0,90.26,71.8c11.9,0,19.62-5.69,19.71-14.5,0-4.83-3-8.5-9.5-11.53-4-2-6.38-3.27-6.36-5.26,0-1.76,2-3.65,6.48-3.65a20.48,20.48,0,0,1,8.48,1.63l1,.49,1.53-9.2"/><path class="cls-2" d="M140.64,28.78h-8.75c-2.71,0-4.73.75-5.92,3.52L109.16,71.18H121S123,66,123.42,64.81h14.5c.34,1.49,1.38,6.36,1.38,6.36h10.5l-9.16-42.4Zm-14,27.35c.94-2.45,4.51-11.86,4.51-11.86s.93-2.46,1.5-4.05l.77,3.65s2.16,10.13,2.62,12.26Z"/><path class="cls-2" d="M59.25,71.17l7.08-42.43H77.65L70.56,71.17Z"/><path class="cls-2" d="M49.76,28.77,38.68,57.7l-1.19-5.88C35.43,45,29,37.7,21.82,34L32,71.13h12L61.75,28.77h-12"/><path class="cls-3" d="M28.4,28.74H10.14l-.14.88c14.2,3.52,23.59,12,27.49,22.2l-4-19.5c-.69-2.68-2.68-3.48-5.13-3.58"/></g></g></g></svg>