<svg xmlns="http://www.w3.org/2000/svg" viewBox="0 0 160 100"><defs><style>.cls-1{fill:#f6f6f6;}.cls-1,.cls-2,.cls-3,.cls-4{fill-rule:evenodd;}.cls-2{fill:#dfac16;}.cls-3{fill:#bf3126;}.cls-4{fill:#fff;}</style></defs><title>pay3_1</title><g id="Layer_2" data-name="Layer 2"><g id="Layer_1-2" data-name="Layer 1"><path id="Rectangle-1" class="cls-1" d="M148,0H8C4,0,0,4,0,8V88q0,12,12,12H148q12,0,12-12V12Q160,0,148,0Z"/><path id="path2268" class="cls-2" d="M149.55,50.5a41.63,41.63,0,1,1-83.26,0v0a41.63,41.63,0,1,1,83.26,0v0Z"/><path id="path1350" class="cls-3" d="M51.81,8.43C29,8.57,10.45,27.37,10.45,50.5A41.87,41.87,0,0,0,52.08,92.57a41.19,41.19,0,0,0,28-11h0a41.87,41.87,0,0,0,4.22-4.51H75.8a40.4,40.4,0,0,1-3.11-4.33H87.4a43.31,43.31,0,0,0,2.42-4.51H70.26a44.05,44.05,0,0,1-1.74-4.42h23a42.69,42.69,0,0,0,1.18-22.35H67.3a42.39,42.39,0,0,1,1.19-4.42H91.54a42,42,0,0,0-1.8-4.51H70.26a40,40,0,0,1,2.39-4.41h14.7a42.47,42.47,0,0,0-3.23-4.51h-8.2a38.09,38.09,0,0,1,4.18-4.25,41.23,41.23,0,0,0-28-11Z"/><path id="path4157" class="cls-4" d="M67.05,61.21l.55-3.81c-.3,0-.74.14-1.14.14-1.54,0-1.71-.83-1.61-1.45l1.24-7.77h2.35L69,44.11H66.79l.45-2.62H62.81c-.1.1-2.61,14.73-2.61,16.52,0,2.63,1.46,3.81,3.53,3.79a11.33,11.33,0,0,0,3.32-.59Z"/><path id="path4155" class="cls-4" d="M68.45,54c0,6.33,4.14,7.84,7.66,7.84a11.1,11.1,0,0,0,4.68-.74l.78-4.32a13.66,13.66,0,0,1-4.7,1.1c-4.76,0-3.93-3.58-3.93-3.58h9a32.82,32.82,0,0,0,.58-4.09c0-2.95-1.45-6.55-6.32-6.55-4.46,0-7.76,4.86-7.76,10.34Zm7.78-6.33c2.5,0,2,2.85,2,3.08H73.35c0-.3.46-3.08,2.88-3.08Z"/><path id="path4151" class="cls-4" d="M104.29,61.21l.79-4.88a10.56,10.56,0,0,1-3.66,1.1c-3.15,0-4.41-2.43-4.41-5,0-5.29,2.71-8.2,5.72-8.2a7.83,7.83,0,0,1,4.07,1.28l.72-4.75a15.7,15.7,0,0,0-5-1.1c-5.11,0-10.09,4.49-10.09,12.92,0,5.58,2.69,9.27,8,9.27a20.36,20.36,0,0,0,3.88-.61Z"/><path id="path4149" class="cls-4" d="M42.67,43.68a15.14,15.14,0,0,0-5.37,1l-.64,3.86a13.84,13.84,0,0,1,4.83-.79c1.65,0,2.86.19,2.86,1.54a2.84,2.84,0,0,1-.15,1.13s-1.3-.11-1.9-.11c-3.84,0-7.86,1.65-7.86,6.64,0,3.93,2.64,4.83,4.28,4.83a5.72,5.72,0,0,0,4.54-2.06l-.14,1.71H47l1.74-12.34c0-5.23-4.52-5.4-6.09-5.4Zm.95,10c.09.75-.46,4.28-3.13,4.28a1.63,1.63,0,0,1-1.74-1.69c0-1.22.66-2.7,3.91-2.7a2.94,2.94,0,0,1,1,.11Z"/><path id="path4145" class="cls-4" d="M52.91,61.68c1,0,6.7.25,6.7-5.7,0-5.56-5.28-4.46-5.28-6.7,0-1.11.86-1.46,2.43-1.46.63,0,3,.2,3,.2l.56-4a20.45,20.45,0,0,0-4.09-.35c-3.28,0-6.6,1.32-6.6,5.85,0,5.13,5.55,4.61,5.55,6.77,0,1.45-1.55,1.56-2.75,1.56a14.27,14.27,0,0,1-3.94-.68l-.59,3.92c.11,0,1.26.55,5,.55Z"/><path id="path4139" class="cls-4" d="M141,40.13l-.95,6a5.85,5.85,0,0,0-4.28-2.33c-4.06,0-7.45,5-7.45,10.64,0,3.67,1.81,7.26,5.5,7.26A5.55,5.55,0,0,0,138,59.83l-.2,1.6h4.31l3.39-21.3ZM139,51.82c0,2.37-1.16,5.53-3.57,5.53-1.59,0-2.34-1.35-2.34-3.48,0-3.47,1.54-5.76,3.49-5.76,1.6,0,2.42,1.11,2.42,3.71Z"/><path id="path4133" class="cls-4" d="M18.68,61.45l2.69-16.09.4,16.09h3.05l5.7-16.09L28,61.45h4.53L36,40.12H29L24.64,53.2l-.23-13.08H18L14.4,61.45Z"/><path id="path4131" class="cls-4" d="M87,61.48c1.29-7.42,1.53-13.44,4.61-12.34A17.23,17.23,0,0,1,93.22,44a4.59,4.59,0,0,0-.86-.06c-2,0-3.45,2.74-3.45,2.74l.39-2.52H85.17L82.41,61.48Z"/><path id="path4149-2" data-name="path4149" class="cls-4" d="M114.52,43.68a15.14,15.14,0,0,0-5.37,1l-.64,3.86a13.84,13.84,0,0,1,4.83-.79c1.65,0,2.85.19,2.85,1.54a3,3,0,0,1-.14,1.13s-1.31-.11-1.91-.11c-3.83,0-7.86,1.65-7.86,6.64,0,3.93,2.64,4.83,4.28,4.83a5.73,5.73,0,0,0,4.55-2.06L115,61.42h3.9l1.74-12.34c0-5.23-4.51-5.4-6.08-5.4Zm1,10c.08.75-.47,4.28-3.14,4.28a1.62,1.62,0,0,1-1.73-1.69c0-1.22.66-2.7,3.9-2.7a3,3,0,0,1,1,.11Z"/><path id="path4131-2" data-name="path4131" class="cls-4" d="M124.17,61.48c1.29-7.42,1.53-13.44,4.61-12.34A17.23,17.23,0,0,1,130.43,44a4.59,4.59,0,0,0-.86-.06c-2,0-3.45,2.74-3.45,2.74l.39-2.52h-4.12l-2.77,17.37Z"/></g></g></svg>