<svg xmlns="http://www.w3.org/2000/svg" xmlns:xlink="http://www.w3.org/1999/xlink" viewBox="0 0 167.5 105.14"><defs><style>.cls-1{fill:none;}.cls-2{clip-path:url(#clip-path);}.cls-3{fill:#246ea9;}.cls-4{clip-path:url(#clip-path-2);}.cls-5{fill:#fffffe;}.cls-6{clip-path:url(#clip-path-3);}</style><clipPath id="clip-path"><rect id="SVGID" class="cls-1" x="4.34" y="5.95" width="158.7" height="99.19" rx="7.44"/></clipPath><clipPath id="clip-path-2"><path id="SVGID-2" data-name="SVGID" class="cls-1" d="M161.3,13.64h-7.93c-.75,0-1.37,0-1.74.37s-.62.74-.62,1.36a1.35,1.35,0,0,0,1,1.37,6.47,6.47,0,0,0,1.61.25H156c2.36.12,4,.49,5,1.48a1.8,1.8,0,0,1,.37.5V13.64Zm0,12c-1.12,1.62-3.1,2.36-6,2.36h-8.43v-4h8.43a2.27,2.27,0,0,0,1.74-.49,1.69,1.69,0,0,0,.49-1.24,1.91,1.91,0,0,0-.49-1.24,2.4,2.4,0,0,0-1.49-.37c-4.09-.13-9.18.12-9.18-5.71,0-2.6,1.74-5.45,6.2-5.45h8.68V6h-8.06a9.2,9.2,0,0,0-5.45,1.49V6H135.88c-1.86,0-4.09.5-5.2,1.49V6H109.35V7.44C107.62,6.2,104.76,6,103.53,6H89.39V7.44C88,6.2,85.05,6,83.19,6H67.57L64,10,60.63,6.2H37.07V31.62H60.13l3.72-4,3.47,4H81.58v-6h1.36A15.2,15.2,0,0,0,89,24.8v6.82H100.8V25h.62c.74,0,.74,0,.74.75v5.83h35.58a10.83,10.83,0,0,0,6-1.62v1.62H155a17.64,17.64,0,0,0,6.44-1.12V25.66Zm-17.48-7.31a5,5,0,0,1,1.36,3.84c0,4-2.48,5.71-6.82,5.71h-8.55V24.05h8.43a2.27,2.27,0,0,0,1.74-.49,1.69,1.69,0,0,0,.49-1.24,1.91,1.91,0,0,0-.49-1.24,2.59,2.59,0,0,0-1.62-.37c-4.09-.13-9.17.12-9.17-5.71,0-2.6,1.61-5.45,6.2-5.45h8.68v3.84h-7.94c-.87,0-1.36,0-1.73.37s-.62.75-.62,1.37a1.34,1.34,0,0,0,1,1.36,6.56,6.56,0,0,0,1.73.25h2.36C141.34,17,142.83,17.36,143.82,18.35Zm-39.3-1.12a4,4,0,0,1-2.11.38H97.08v-4.1h5.33a3.74,3.74,0,0,1,2.11.38,1.55,1.55,0,0,1,.86,1.61A1.64,1.64,0,0,1,104.52,17.23Zm2.72,2.24A4.82,4.82,0,0,1,109.35,21a5.19,5.19,0,0,1,.75,3.35v3.6h-4.34V25.66c0-1.11.12-2.72-.75-3.59-.62-.62-1.61-.87-3.22-.87H97.08v6.7H92.74V9.79h10c2.23,0,3.84.13,5.21.87a4.38,4.38,0,0,1,2.23,4.09A4.85,4.85,0,0,1,107.24,19.47Zm5.46-9.68h14.51v3.85H117V17H127v3.72H117V24.3h10.17v3.84H112.7ZM83.32,18.23H77.61V13.64h5.71c1.61,0,2.6.62,2.6,2.23S84.93,18.23,83.32,18.23Zm-10,8.18L66.58,19l6.69-7.19ZM56,24.18H45.38v-3.6h9.54V16.86H45.38V13.51H56.29L61,18.85Zm34.59-8.43c0,5.08-3.72,6.07-7.56,6.07H77.61V27.9H69.18l-5.33-6.08L58.27,27.9H41V9.79H58.52l5.33,6,5.58-6H83.32C86.79,9.79,90.63,10.79,90.63,15.75Z"/></clipPath><clipPath id="clip-path-3"><path id="SVGID-3" data-name="SVGID" class="cls-1" d="M20.21,42.15l-3-7.31-3,7.31ZM85.92,39.3a4,4,0,0,1-2.11.37H78.48V35.58h5.33a3.81,3.81,0,0,1,2.11.37,1.58,1.58,0,0,1,.87,1.62A1.85,1.85,0,0,1,85.92,39.3Zm37.81,2.85-3-7.31-3,7.31ZM53.31,50.09H48.85V35.83L42.53,50.09H38.68L32.36,35.83V50.09h-8.8L21.82,46h-9L11,50.09H6.32l7.81-18.23h6.45L28,49.1V31.86h7.07l5.7,12.4L46,31.86h7.19V50.09Zm17.73,0H56.54V31.86H71v3.85H60.88v3.22h9.91v3.72H60.88v3.6H71ZM91.62,36.7a5.09,5.09,0,0,1-3.1,4.83A4.91,4.91,0,0,1,90.63,43a5.19,5.19,0,0,1,.74,3.35V50H87V47.61c0-1.12.12-2.73-.75-3.6-.62-.62-1.61-.74-3.22-.74H78.36v6.57H74v-18h10a11.52,11.52,0,0,1,5.33.87A4.18,4.18,0,0,1,91.62,36.7ZM94.1,50.09h4.47V31.86H94.1Zm56,0h-6.2l-8.3-13.64V50.09h-8.93L125,46h-8.92l-1.61,4.09h-5.09c-2.11,0-4.83-.5-6.32-2s-2.36-3.6-2.36-7c0-2.73.5-5.21,2.36-7.06,1.36-1.49,3.59-2.11,6.57-2.11h4.22v3.84h-4.1A4.06,4.06,0,0,0,106.38,37,5.91,5.91,0,0,0,105.14,41a6.25,6.25,0,0,0,1.24,4.34,4,4,0,0,0,3,1h2L117.54,32h6.57l7.31,17.23V31.86h6.7l7.68,12.65V31.86h4.47V50.09ZM6.2,53.68h7.44l1.73-4.09h3.72l1.62,4.09H35.46v-3.1l1.36,3.1h7.57l1.24-3.1v3.1H82.08V47h.74c.5,0,.62.12.62.87v5.82h18.85V52.07a13.88,13.88,0,0,0,6.94,1.61h7.93l1.74-4.09h3.72l1.61,4.09h15.25V49.84l2.36,3.84h12.27V28.27H142v3l-1.74-3H127.83v3l-1.62-3H109.48a14.79,14.79,0,0,0-7.32,1.49V28.27H90.63v1.49a7.16,7.16,0,0,0-5-1.49H43.39l-2.85,6.57-2.85-6.57H24.3v3l-1.49-3H11.41l-5.21,12Z"/></clipPath></defs><title>pay4</title><g id="Layer_2" data-name="Layer 2"><g id="Layer_1-2" data-name="Layer 1"><g class="cls-2"><path class="cls-3" d="M4.34,13.39A7.46,7.46,0,0,1,11.78,6H155.6A7.46,7.46,0,0,1,163,13.39V97.7a7.46,7.46,0,0,1-7.44,7.44H11.78A7.46,7.46,0,0,1,4.34,97.7Z"/></g><g class="cls-4"><rect class="cls-5" x="30.87" width="136.63" height="37.81"/></g><g class="cls-6"><rect class="cls-5" y="22.07" width="160.18" height="37.81"/></g><rect class="cls-3" x="94.1" y="31.86" width="4.46" height="18.23"/></g></g></svg>